<svg width="51" height="50" viewBox="0 0 51 50" fill="none" xmlns="http://www.w3.org/2000/svg">
<path d="M26.9648 28.9062C26.9648 28.699 26.8825 28.5003 26.736 28.3538C26.5895 28.2073 26.3908 28.125 26.1836 28.125C25.9764 28.125 25.7777 28.2073 25.6312 28.3538C25.4847 28.5003 25.4023 28.699 25.4023 28.9062C25.4023 29.3939 25.2178 29.6049 24.912 29.9543C24.542 30.3771 24.0352 30.9564 24.0352 32.0312C24.0352 33.1061 24.542 33.6854 24.912 34.1082C25.2178 34.4576 25.4023 34.6686 25.4023 35.1562C25.4023 35.3635 25.4847 35.5622 25.6312 35.7087C25.7777 35.8552 25.9764 35.9375 26.1836 35.9375C26.3908 35.9375 26.5895 35.8552 26.736 35.7087C26.8825 35.5622 26.9648 35.3635 26.9648 35.1562C26.9648 34.0814 26.458 33.5021 26.088 33.0793C25.7822 32.7299 25.5977 32.5189 25.5977 32.0312C25.5977 31.5436 25.7822 31.3326 26.088 30.9832C26.458 30.5604 26.9648 29.9811 26.9648 28.9062Z" fill="#55384C"/>
<path d="M31.6523 28.9062C31.6523 28.699 31.57 28.5003 31.4235 28.3538C31.277 28.2073 31.0783 28.125 30.8711 28.125C30.6639 28.125 30.4652 28.2073 30.3187 28.3538C30.1722 28.5003 30.0898 28.699 30.0898 28.9062C30.0898 29.3939 29.9053 29.6049 29.5995 29.9543C29.2295 30.3771 28.7227 30.9564 28.7227 32.0312C28.7227 33.1061 29.2295 33.6854 29.5995 34.1082C29.9053 34.4576 30.0898 34.6686 30.0898 35.1562C30.0898 35.3635 30.1722 35.5622 30.3187 35.7087C30.4652 35.8552 30.6639 35.9375 30.8711 35.9375C31.0783 35.9375 31.277 35.8552 31.4235 35.7087C31.57 35.5622 31.6523 35.3635 31.6523 35.1562C31.6523 34.0814 31.1455 33.5021 30.7755 33.0793C30.4697 32.7299 30.2852 32.5189 30.2852 32.0312C30.2852 31.5436 30.4697 31.3326 30.7755 30.9832C31.1455 30.5604 31.6523 29.9811 31.6523 28.9062Z" fill="#55384C"/>
<path d="M22.2773 28.9062C22.2773 28.699 22.195 28.5003 22.0485 28.3538C21.902 28.2073 21.7033 28.125 21.4961 28.125C21.2889 28.125 21.0902 28.2073 20.9437 28.3538C20.7972 28.5003 20.7148 28.699 20.7148 28.9062C20.7148 29.3939 20.5303 29.6049 20.2245 29.9543C19.8545 30.3771 19.3477 30.9564 19.3477 32.0312C19.3477 33.1061 19.8545 33.6854 20.2245 34.1082C20.5303 34.4576 20.7148 34.6686 20.7148 35.1562C20.7148 35.3635 20.7972 35.5622 20.9437 35.7087C21.0902 35.8552 21.2889 35.9375 21.4961 35.9375C21.7033 35.9375 21.902 35.8552 22.0485 35.7087C22.195 35.5622 22.2773 35.3635 22.2773 35.1562C22.2773 34.0814 21.7705 33.5021 21.4005 33.0793C21.0947 32.7299 20.9102 32.5189 20.9102 32.0312C20.9102 31.5436 21.0947 31.3326 21.4005 30.9832C21.7705 30.5604 22.2773 29.9811 22.2773 28.9062Z" fill="#55384C"/>
<path d="M43.4688 14.0625H7.53125C7.32405 14.0625 7.12534 14.1448 6.97882 14.2913C6.83231 14.4378 6.75 14.6365 6.75 14.8438V42.9688C6.75 43.176 6.83231 43.3747 6.97882 43.5212C7.12534 43.6677 7.32405 43.75 7.53125 43.75H43.4688C43.6759 43.75 43.8747 43.6677 44.0212 43.5212C44.1677 43.3747 44.25 43.176 44.25 42.9688V14.8438C44.25 14.6365 44.1677 14.4378 44.0212 14.2913C43.8747 14.1448 43.6759 14.0625 43.4688 14.0625ZM42.6875 42.1875H8.3125V15.625H42.6875V42.1875Z" fill="#55384C"/>
<path d="M44.6406 1.5625H6.35938C5.22016 1.56377 4.12797 2.01688 3.32242 2.82242C2.51688 3.62797 2.06377 4.72016 2.0625 5.85938V44.1406C2.06377 45.2798 2.51688 46.372 3.32242 47.1776C4.12797 47.9831 5.22016 48.4362 6.35938 48.4375H44.6406C45.7798 48.4362 46.872 47.9831 47.6776 47.1776C48.4831 46.372 48.9362 45.2798 48.9375 44.1406V5.85938C48.9362 4.72016 48.4831 3.62797 47.6776 2.82242C46.872 2.01688 45.7798 1.56377 44.6406 1.5625ZM3.625 5.85938C3.62583 5.13443 3.91418 4.43941 4.42679 3.92679C4.93941 3.41418 5.63443 3.12583 6.35938 3.125H44.6406C45.3656 3.12583 46.0606 3.41418 46.5732 3.92679C47.0858 4.43941 47.3742 5.13443 47.375 5.85938V9.375H3.625V5.85938ZM44.6406 46.875H6.35938C5.63443 46.8742 4.93941 46.5858 4.42679 46.0732C3.91418 45.5606 3.62583 44.8656 3.625 44.1406V10.9375H47.375V44.1406C47.3742 44.8656 47.0858 45.5606 46.5732 46.0732C46.0606 46.5858 45.3656 46.8742 44.6406 46.875Z" fill="#55384C"/>
<path d="M30.9688 3.90625H20.0312C19.824 3.90625 19.6253 3.98856 19.4788 4.13507C19.3323 4.28159 19.25 4.4803 19.25 4.6875V7.8125C19.25 8.0197 19.3323 8.21841 19.4788 8.36493C19.6253 8.51144 19.824 8.59375 20.0312 8.59375H30.9688C31.176 8.59375 31.3747 8.51144 31.5212 8.36493C31.6677 8.21841 31.75 8.0197 31.75 7.8125V4.6875C31.75 4.4803 31.6677 4.28159 31.5212 4.13507C31.3747 3.98856 31.176 3.90625 30.9688 3.90625ZM30.1875 7.03125H20.8125V5.46875H30.1875V7.03125Z" fill="#55384C"/>
<path d="M12.2188 25H38.7813C39.334 24.9998 39.8689 24.8042 40.2914 24.4479C40.7139 24.0916 40.9969 23.5974 41.0903 23.0526C41.1838 22.5079 41.0818 21.9476 40.8022 21.4708C40.5226 20.994 40.0836 20.6313 39.5625 20.4469V17.9688C39.5625 17.7615 39.4802 17.5628 39.3337 17.4163C39.1872 17.2698 38.9885 17.1875 38.7813 17.1875H35.6563C35.4491 17.1875 35.2504 17.2698 35.1039 17.4163C34.9573 17.5628 34.875 17.7615 34.875 17.9688V20.3125H16.125V17.9688C16.125 17.7615 16.0427 17.5628 15.8962 17.4163C15.7497 17.2698 15.551 17.1875 15.3438 17.1875H12.2188C12.0116 17.1875 11.8129 17.2698 11.6664 17.4163C11.5198 17.5628 11.4375 17.7615 11.4375 17.9688V20.4469C10.9165 20.6313 10.4774 20.994 10.1979 21.4708C9.91833 21.9476 9.81627 22.5079 9.90974 23.0526C10.0032 23.5974 10.2862 24.0916 10.7087 24.4479C11.1312 24.8042 11.6661 24.9998 12.2188 25ZM36.4375 18.75H38V20.3125H36.4375V18.75ZM13 18.75H14.5625V20.3125H13V18.75ZM12.2188 21.875H38.7813C38.9885 21.875 39.1872 21.9573 39.3337 22.1038C39.4802 22.2503 39.5625 22.449 39.5625 22.6562C39.5625 22.8635 39.4802 23.0622 39.3337 23.2087C39.1872 23.3552 38.9885 23.4375 38.7813 23.4375H12.2188C12.0116 23.4375 11.8129 23.3552 11.6664 23.2087C11.5198 23.0622 11.4375 22.8635 11.4375 22.6562C11.4375 22.449 11.5198 22.2503 11.6664 22.1038C11.8129 21.9573 12.0116 21.875 12.2188 21.875Z" fill="#55384C"/>
<path d="M15.3438 3.90625C14.8802 3.90625 14.4271 4.04371 14.0416 4.30124C13.6562 4.55878 13.3558 4.92482 13.1784 5.35309C13.001 5.78135 12.9546 6.2526 13.045 6.70724C13.1355 7.16189 13.3587 7.5795 13.6865 7.90728C14.0142 8.23506 14.4319 8.45828 14.8865 8.54872C15.3412 8.63915 15.8124 8.59274 16.2407 8.41534C16.6689 8.23795 17.035 7.93755 17.2925 7.55212C17.55 7.16669 17.6875 6.71355 17.6875 6.25C17.6868 5.62861 17.4396 5.03288 17.0003 4.59349C16.5609 4.1541 15.9651 3.90695 15.3438 3.90625ZM15.3438 7.03125C15.1892 7.03125 15.0382 6.98543 14.9097 6.89959C14.7812 6.81374 14.6811 6.69173 14.622 6.54897C14.5628 6.40622 14.5474 6.24913 14.5775 6.09759C14.6077 5.94604 14.6821 5.80683 14.7913 5.69757C14.9006 5.58831 15.0398 5.51391 15.1913 5.48376C15.3429 5.45362 15.5 5.46909 15.6427 5.52822C15.7855 5.58735 15.9075 5.68748 15.9933 5.81596C16.0792 5.94444 16.125 6.09548 16.125 6.25C16.1248 6.45713 16.0424 6.65571 15.8959 6.80217C15.7495 6.94863 15.5509 7.03102 15.3438 7.03125Z" fill="#55384C"/>
<path d="M9.09375 3.90625C8.6302 3.90625 8.17706 4.04371 7.79163 4.30124C7.40621 4.55878 7.1058 4.92482 6.92841 5.35309C6.75102 5.78135 6.7046 6.2526 6.79504 6.70724C6.88547 7.16189 7.10869 7.5795 7.43647 7.90728C7.76425 8.23506 8.18187 8.45828 8.63651 8.54872C9.09115 8.63915 9.5624 8.59274 9.99067 8.41534C10.4189 8.23795 10.785 7.93755 11.0425 7.55212C11.3 7.16669 11.4375 6.71355 11.4375 6.25C11.4368 5.62861 11.1896 5.03288 10.7503 4.59349C10.3109 4.1541 9.71514 3.90695 9.09375 3.90625ZM9.09375 7.03125C8.93923 7.03125 8.78819 6.98543 8.65971 6.89959C8.53124 6.81374 8.4311 6.69173 8.37197 6.54897C8.31284 6.40622 8.29737 6.24913 8.32751 6.09759C8.35766 5.94604 8.43206 5.80683 8.54132 5.69757C8.65058 5.58831 8.78979 5.51391 8.94134 5.48376C9.09288 5.45362 9.24997 5.46909 9.39272 5.52822C9.53548 5.58735 9.65749 5.68748 9.74334 5.81596C9.82918 5.94444 9.875 6.09548 9.875 6.25C9.87477 6.45713 9.79238 6.65571 9.64592 6.80217C9.49946 6.94863 9.30088 7.03102 9.09375 7.03125Z" fill="#55384C"/>
<path d="M41.9063 3.90625C41.4427 3.90625 40.9896 4.04371 40.6041 4.30124C40.2187 4.55878 39.9183 4.92482 39.7409 5.35309C39.5635 5.78135 39.5171 6.2526 39.6075 6.70724C39.698 7.16189 39.9212 7.5795 40.249 7.90728C40.5767 8.23506 40.9944 8.45828 41.449 8.54872C41.9037 8.63915 42.3749 8.59274 42.8032 8.41534C43.2314 8.23795 43.5975 7.93755 43.855 7.55212C44.1125 7.16669 44.25 6.71355 44.25 6.25C44.2493 5.62861 44.0021 5.03288 43.5628 4.59349C43.1234 4.1541 42.5276 3.90695 41.9063 3.90625ZM41.9063 7.03125C41.7517 7.03125 41.6007 6.98543 41.4722 6.89959C41.3437 6.81374 41.2436 6.69173 41.1845 6.54897C41.1253 6.40622 41.1099 6.24913 41.14 6.09759C41.1702 5.94604 41.2446 5.80683 41.3538 5.69757C41.4631 5.58831 41.6023 5.51391 41.7538 5.48376C41.9054 5.45362 42.0625 5.46909 42.2052 5.52822C42.348 5.58735 42.47 5.68748 42.5558 5.81596C42.6417 5.94444 42.6875 6.09548 42.6875 6.25C42.6873 6.45713 42.6049 6.65571 42.4584 6.80217C42.312 6.94863 42.1134 7.03102 41.9063 7.03125Z" fill="#55384C"/>
<path d="M35.6563 3.90625C35.1927 3.90625 34.7396 4.04371 34.3541 4.30124C33.9687 4.55878 33.6683 4.92482 33.4909 5.35309C33.3135 5.78135 33.2671 6.2526 33.3575 6.70724C33.448 7.16189 33.6712 7.5795 33.999 7.90728C34.3267 8.23506 34.7444 8.45828 35.199 8.54872C35.6537 8.63915 36.1249 8.59274 36.5532 8.41534C36.9814 8.23795 37.3475 7.93755 37.605 7.55212C37.8625 7.16669 38 6.71355 38 6.25C37.9993 5.62861 37.7521 5.03288 37.3128 4.59349C36.8734 4.1541 36.2776 3.90695 35.6563 3.90625ZM35.6563 7.03125C35.5017 7.03125 35.3507 6.98543 35.2222 6.89959C35.0937 6.81374 34.9936 6.69173 34.9345 6.54897C34.8753 6.40622 34.8599 6.24913 34.89 6.09759C34.9202 5.94604 34.9946 5.80683 35.1038 5.69757C35.2131 5.58831 35.3523 5.51391 35.5038 5.48376C35.6554 5.45362 35.8125 5.46909 35.9552 5.52822C36.098 5.58735 36.22 5.68748 36.3058 5.81596C36.3917 5.94444 36.4375 6.09548 36.4375 6.25C36.4373 6.45713 36.3549 6.65571 36.2084 6.80217C36.062 6.94863 35.8634 7.03102 35.6563 7.03125Z" fill="#55384C"/>
<path d="M32.5312 39.0625H18.4688C18.2615 39.0625 18.0628 39.1448 17.9163 39.2913C17.7698 39.4378 17.6875 39.6365 17.6875 39.8438C17.6875 40.051 17.7698 40.2497 17.9163 40.3962C18.0628 40.5427 18.2615 40.625 18.4688 40.625H32.5312C32.7385 40.625 32.9372 40.5427 33.0837 40.3962C33.2302 40.2497 33.3125 40.051 33.3125 39.8438C33.3125 39.6365 33.2302 39.4378 33.0837 39.2913C32.9372 39.1448 32.7385 39.0625 32.5312 39.0625Z" fill="#55384C"/>
<path d="M36.4375 39.0625H35.6562C35.449 39.0625 35.2503 39.1448 35.1038 39.2913C34.9573 39.4378 34.875 39.6365 34.875 39.8438C34.875 40.051 34.9573 40.2497 35.1038 40.3962C35.2503 40.5427 35.449 40.625 35.6562 40.625H36.4375C36.6447 40.625 36.8434 40.5427 36.9899 40.3962C37.1364 40.2497 37.2188 40.051 37.2188 39.8438C37.2188 39.6365 37.1364 39.4378 36.9899 39.2913C36.8434 39.1448 36.6447 39.0625 36.4375 39.0625Z" fill="#55384C"/>
</svg>
