<svg width="51" height="50" viewBox="0 0 51 50" fill="none" xmlns="http://www.w3.org/2000/svg">
<g clip-path="url(#clip0_983_405)">
<path d="M50.4998 4.965C50.5029 4.28596 50.2326 3.63424 49.7498 3.15668L47.3432 0.750032C46.8679 0.269509 46.22 -0.000574952 45.544 9.19016e-07H45.5357C44.8639 0.000412255 44.2205 0.27066 43.7499 0.750032L32.8333 11.6666H11.3335V2.50002C11.3335 1.11925 10.2142 9.19016e-07 8.83351 9.19016e-07H7.16686C3.48671 0.00411428 0.504358 2.98647 0.500244 6.66661V43.5422C0.708792 47.1943 3.75071 50.0376 7.40856 49.9996H47.9999C49.3806 49.9996 50.4998 48.8803 50.4998 47.4996V14.1666C50.4998 12.7859 49.3806 11.6666 47.9999 11.6666H44.8333L49.7499 6.74995C50.2283 6.27905 50.4983 5.6363 50.4998 4.965ZM30.3167 20.8332C30.1403 20.8572 29.963 20.7952 29.84 20.6665C29.716 20.5433 29.6547 20.3704 29.6734 20.1965L29.9892 17.3633C30.0024 17.304 30.0191 17.2455 30.0392 17.1883L33.3217 20.4707C33.2676 20.4824 33.2184 20.5091 33.1617 20.5157L30.3167 20.8332ZM34.6825 19.4723L31.0358 15.8249L40.1191 6.74164L43.764 10.3858L34.6825 19.4723ZM41.2941 5.56242L42.5299 4.32742L46.1732 7.97154L44.9382 9.20735L41.2941 5.56242ZM2.1669 6.66661C2.16969 3.90638 4.40662 1.66937 7.16686 1.66665H8.83351C9.29371 1.66665 9.66688 2.03974 9.66688 2.49994V35.833C9.66688 36.2932 9.29379 36.6663 8.83351 36.6663H7.16686C5.25241 36.6657 3.43052 37.4898 2.1669 38.9279V6.66661ZM47.9999 13.3332C48.4601 13.3332 48.8333 13.7063 48.8333 14.1666V47.4996C48.8333 47.9599 48.4602 48.333 47.9999 48.333H7.40856C4.65754 48.3793 2.3529 46.2614 2.1669 43.5163V43.333C2.16969 40.5727 4.40662 38.3358 7.16686 38.333H8.83351C10.2142 38.333 11.3334 37.2138 11.3334 35.8331V13.3332H31.1666L29.2741 15.2257C28.7458 15.7463 28.4135 16.4333 28.3333 17.1707L28.0175 20.0098C27.9915 20.2867 28.0178 20.5659 28.095 20.8331H13.8335C13.3733 20.8331 13.0001 21.2062 13.0001 21.6665C13.0001 22.1267 13.3732 22.4998 13.8335 22.4998H16.3335V44.9996C16.3335 45.4598 16.7066 45.833 17.1669 45.833C17.6271 45.833 18.0002 45.4599 18.0002 44.9996V33.3331H27.1668V39.9997H21.3334C20.8732 39.9997 20.5002 40.3728 20.5002 40.833C20.5002 41.2932 20.8732 41.6663 21.3334 41.6663H38C38.9205 41.6663 39.6666 40.9202 39.6666 39.9997V27.4998C39.6666 27.0396 39.2935 26.6664 38.8333 26.6664C38.3731 26.6664 38 27.0395 38 27.4998V31.6664H18.0001V22.4999H30.2567C30.338 22.5 30.4193 22.4956 30.5001 22.4865L33.3475 22.1624C34.0702 22.0804 34.7448 21.7592 35.2642 21.2499L43.1708 13.3333L47.9999 13.3332ZM38 33.3331V39.9997H28.8333V33.3331H38ZM48.5749 5.56826L47.3515 6.7924L43.7083 3.14911L44.9324 1.92497C45.0926 1.7606 45.3121 1.66748 45.5416 1.66665C45.7752 1.66723 45.9988 1.76151 46.1624 1.92835L48.5724 4.33335C48.74 4.49838 48.834 4.72395 48.8333 4.95916C48.8325 5.18868 48.7394 5.40825 48.5749 5.56826Z" fill="#55384C"/>
</g>
<defs>
<clipPath id="clip0_983_405">
<rect width="50" height="50" fill="white" transform="translate(0.5)"/>
</clipPath>
</defs>
</svg>
