<svg width="24" height="24" viewBox="0 0 24 24" fill="none" xmlns="http://www.w3.org/2000/svg">
<path fill-rule="evenodd" clip-rule="evenodd" d="M11.9985 14.0967L16.4432 18.5414C16.679 18.7772 16.9989 18.9097 17.3325 18.9097C17.666 18.9097 17.9859 18.7772 18.2217 18.5414C18.4576 18.3055 18.5901 17.9857 18.5901 17.6521C18.5901 17.3186 18.4576 16.9987 18.2217 16.7628L13.7754 12.3182L18.2209 7.87349C18.3376 7.75671 18.4302 7.61808 18.4933 7.46552C18.5565 7.31296 18.589 7.14945 18.5889 6.98434C18.5889 6.81922 18.5563 6.65573 18.4931 6.5032C18.4299 6.35067 18.3373 6.21209 18.2205 6.09536C18.1037 5.97864 17.9651 5.88606 17.8125 5.82291C17.6599 5.75976 17.4964 5.72727 17.3313 5.72731C17.1662 5.72735 17.0027 5.75991 16.8502 5.82313C16.6977 5.88635 16.5591 5.979 16.4423 6.09578L11.9985 10.5405L7.55383 6.09578C7.43791 5.97565 7.29923 5.87981 7.14588 5.81385C6.99252 5.74789 6.82757 5.71313 6.66064 5.7116C6.49371 5.71007 6.32814 5.7418 6.1736 5.80494C6.01907 5.86809 5.87865 5.96137 5.76056 6.07936C5.64246 6.19735 5.54904 6.33767 5.48575 6.49215C5.42247 6.64663 5.39058 6.81216 5.39195 6.97909C5.39332 7.14602 5.42792 7.31101 5.49374 7.46443C5.55956 7.61784 5.65527 7.75662 5.77529 7.87265L10.2216 12.3182L5.77613 16.7637C5.65611 16.8797 5.56039 17.0185 5.49458 17.1719C5.42876 17.3253 5.39416 17.4903 5.39279 17.6572C5.39142 17.8242 5.4233 17.9897 5.48659 18.1442C5.54988 18.2987 5.6433 18.439 5.76139 18.557C5.87949 18.675 6.01991 18.7682 6.17444 18.8314C6.32898 18.8945 6.49454 18.9263 6.66147 18.9247C6.82841 18.9232 6.99336 18.8884 7.14671 18.8225C7.30007 18.7565 7.43875 18.6607 7.55467 18.5405L11.9985 14.0967Z" fill="#55384C"/>
</svg>
