<svg width="51" height="50" viewBox="0 0 51 50" fill="none" xmlns="http://www.w3.org/2000/svg">
<g id="cooking 1" clip-path="url(#clip0_558_12)">
<path id="Vector" d="M9.10796 43.9498C11.1542 44.689 13.3145 45.0626 15.4902 45.0533C17.8659 45.0452 20.2236 44.6392 22.4652 43.8522C26.9711 42.2849 30.7125 39.3684 33 35.64C35.3185 31.8613 35.8725 27.7024 34.5601 23.9291C34.5347 23.8573 34.5053 23.7868 34.4722 23.7182C34.8015 23.9513 35.1785 24.1084 35.576 24.1781C35.9734 24.2478 36.3814 24.2283 36.7704 24.1211L49.1709 18.1039C49.4512 17.9693 49.7018 17.7802 49.9082 17.5478C50.1147 17.3154 50.2728 17.0442 50.3734 16.75C50.4741 16.4559 50.5152 16.1447 50.4944 15.8345C50.4735 15.5243 50.3912 15.2213 50.2522 14.9433L50.0692 14.5774C49.7992 14.0352 49.3296 13.6189 48.7589 13.4159C48.1883 13.2129 47.5612 13.239 47.0095 13.4889L35.3317 18.8209C34.7498 18.9824 34.2371 19.3304 33.8723 19.8116C33.5075 20.2928 33.3108 20.8805 33.3125 21.4844C33.3123 21.7944 33.3652 22.1021 33.4687 22.3944L33.2389 22.5476C30.1734 21.0144 22.7386 22.2504 15.7921 24.6667C15.384 24.8086 14.9771 24.9549 14.5714 25.1056C13.8038 22.2615 15.7904 20.1915 15.8985 20.0819L14.7917 18.9791C14.0346 19.7978 13.4683 20.774 13.1335 21.8376C12.7382 23.0835 12.7273 24.4195 13.1022 25.6716C11.8522 26.1707 10.651 26.6984 9.5144 27.2467C8.88403 24.9067 8.82808 22.4922 8.91392 20.7475C8.93076 20.3953 8.87706 20.0434 8.75597 19.7123C8.63487 19.3812 8.44884 19.0776 8.20878 18.8194C7.96872 18.5612 7.67949 18.3536 7.35807 18.2087C7.03664 18.0639 6.68951 17.9847 6.33707 17.9759C5.98463 17.9671 5.63398 18.0288 5.30572 18.1574C4.97746 18.286 4.67821 18.4789 4.42555 18.7248C4.17289 18.9707 3.97192 19.2646 3.83443 19.5892C3.69695 19.9139 3.62573 20.2627 3.62495 20.6153V26.1406C3.62472 26.2525 3.58013 26.3598 3.50096 26.4389C3.42179 26.5179 3.31449 26.5624 3.20259 26.5625C2.94095 26.5624 2.68188 26.6141 2.44029 26.7145C2.19869 26.8149 1.97934 26.9621 1.79486 27.1476C1.61037 27.3331 1.4644 27.5533 1.36533 27.7955C1.26627 28.0376 1.21607 28.297 1.21763 28.5586C1.25226 29.8262 1.47815 31.0813 1.88765 32.2815C0.692237 33.5612 0.264698 34.7213 0.617139 35.7349C1.92974 39.5081 4.94517 42.4256 9.10796 43.9498ZM21.9519 42.3759C17.7857 43.825 13.4152 43.863 9.64517 42.4826C6.85962 41.4627 4.65493 39.7574 3.23892 37.5671C4.05581 37.727 4.88707 37.8018 5.71939 37.7903C6.19797 37.7903 6.70903 37.7717 7.25259 37.7345C9.94624 37.5497 13.188 36.907 16.5902 35.897C16.6585 35.9079 18.5214 35.2977 19.3857 34.9971C21.357 34.3148 23.2917 33.5309 25.182 32.6486L25.2218 32.63C27.2657 31.6682 29.0947 30.6452 30.5986 29.6141C31.9442 28.6916 32.9577 27.8185 33.6392 26.995C34.227 33.234 29.461 39.7641 21.9519 42.3759ZM30.0854 26.6532C29.9208 28.0536 29.6465 28.3421 29.635 28.3537L29.6501 28.3689C29.0034 28.8093 28.294 29.2486 27.531 29.682C28.0408 28.673 28.3776 27.5855 28.5273 26.4649C28.5531 26.2756 28.6465 26.1022 28.7903 25.9765C28.934 25.8508 29.1185 25.7815 29.3094 25.7813C29.4197 25.7812 29.5288 25.8046 29.6294 25.8497C29.73 25.8948 29.8199 25.9608 29.8933 26.0431C29.9666 26.1255 30.0216 26.2225 30.0548 26.3277C30.0879 26.4329 30.0984 26.5439 30.0856 26.6534L30.0854 26.6532ZM47.6535 14.9121C47.8372 14.8293 48.046 14.8209 48.2358 14.8886C48.4257 14.9564 48.5819 15.0951 48.6716 15.2756L48.8546 15.6415C48.9011 15.7345 48.9286 15.8359 48.9354 15.9396C48.9423 16.0434 48.9283 16.1475 48.8944 16.2458C48.8605 16.344 48.8073 16.4346 48.7379 16.512C48.6686 16.5895 48.5844 16.6524 48.4905 16.6969L38.7798 21.4273C38.7719 21.041 38.682 20.6608 38.5162 20.3118C38.3503 19.9628 38.1122 19.6531 37.8176 19.403L47.6535 14.9121ZM36.0468 20.3125C36.2913 20.3122 36.5297 20.3885 36.7286 20.5306C36.9276 20.6727 37.077 20.8735 37.156 21.1049C37.235 21.3362 37.2395 21.5865 37.169 21.8206C37.0985 22.0547 36.9565 22.2608 36.7628 22.4101L36.3332 22.6195C36.1942 22.6562 36.0494 22.6656 35.9069 22.6471L36.0899 22.5251C36.1764 22.4687 36.2508 22.3957 36.3089 22.3103C36.367 22.225 36.4075 22.129 36.4283 22.0278C36.449 21.9267 36.4495 21.8224 36.4297 21.7211C36.41 21.6198 36.3703 21.5234 36.313 21.4375C36.2557 21.3516 36.182 21.2779 36.0961 21.2206C36.0101 21.1634 35.9137 21.1237 35.8124 21.104C35.711 21.0843 35.6068 21.0848 35.5057 21.1056C35.4045 21.1264 35.3085 21.167 35.2232 21.2251L34.8767 21.4561C34.8843 21.1506 35.0108 20.8601 35.2294 20.6465C35.4479 20.4329 35.7412 20.3131 36.0468 20.3125ZM14.7435 28.6252L15.9439 27.6249C15.6602 27.287 15.4054 26.9258 15.1822 26.5451C15.5549 26.4075 15.9302 26.273 16.3052 26.1424C20.5777 24.6564 24.7427 23.7136 28.032 23.488C29.5625 23.3831 30.8527 23.4443 31.7625 23.6651C32.5028 23.8445 32.972 24.1205 33.0838 24.4421C33.1957 24.7637 32.9989 25.2712 32.5299 25.8714C32.2585 26.2102 31.9604 26.5268 31.6384 26.818C31.7044 26.2043 31.526 25.5894 31.1419 25.1063C30.7578 24.6233 30.1989 24.3109 29.5862 24.2369C28.9735 24.1629 28.3562 24.3332 27.8682 24.7109C27.3801 25.0886 27.0604 25.6434 26.9784 26.2551C26.5815 29.1761 24.8547 30.8783 24.3731 31.3022C22.5776 32.1335 20.7414 32.8741 18.8716 33.5213C18.0746 33.7985 17.2831 34.0564 16.497 34.2949C13.4104 33.6992 11.228 31.834 10.0059 28.7434C11.1711 28.175 12.4122 27.6285 13.7054 27.1125C14.0011 27.6495 14.3488 28.1561 14.7435 28.6252ZM2.9023 28.2498C2.94154 28.2101 2.98831 28.1786 3.03987 28.1572C3.09143 28.1357 3.14675 28.1248 3.20259 28.125C3.72882 28.1244 4.23334 27.9151 4.60544 27.543C4.97755 27.1709 5.18686 26.6664 5.18745 26.1402V20.6153C5.18763 20.3278 5.3019 20.0522 5.50514 19.849C5.70839 19.6457 5.984 19.5314 6.27144 19.5313C6.41839 19.5313 6.56379 19.5613 6.6988 19.6193C6.83382 19.6773 6.95563 19.7622 7.05684 19.8687C7.15804 19.9753 7.23652 20.1013 7.28752 20.2391C7.33851 20.3769 7.36095 20.5237 7.35347 20.6704C7.24175 22.9402 7.35786 26.2795 8.54556 29.2976C9.22964 31.0359 10.1972 32.4663 11.4212 33.5488C12.1183 34.1636 12.9028 34.6714 13.7492 35.0555C11.9624 35.5178 10.1458 35.8563 8.31245 36.0685L7.65982 35.9482C5.91489 35.6573 4.5897 34.5549 3.72095 32.6716C3.14097 31.372 2.8214 29.9714 2.78032 28.5488C2.77978 28.4934 2.79028 28.4384 2.81122 28.3871C2.83217 28.3357 2.86313 28.2891 2.9023 28.2498ZM2.09302 35.2216C1.98491 34.911 2.16382 34.4371 2.58052 33.8811C3.04172 34.7572 3.67195 35.5333 4.43481 36.1645C4.09133 36.1324 3.75043 36.077 3.4145 35.9985C2.67456 35.819 2.20542 35.5433 2.09331 35.222V35.2215L2.09302 35.2216Z" fill="#55384C"/>
<path id="Vector_2" d="M7.53125 10.1562C7.0677 10.1562 6.61456 10.2937 6.22913 10.5512C5.84371 10.8088 5.5433 11.1748 5.36591 11.6031C5.18852 12.0314 5.1421 12.5026 5.23254 12.9572C5.32297 13.4119 5.54619 13.8295 5.87397 14.1573C6.20175 14.4851 6.61936 14.7083 7.07401 14.7987C7.52865 14.8892 7.9999 14.8427 8.42816 14.6653C8.85643 14.488 9.22247 14.1875 9.48001 13.8021C9.73754 13.4167 9.875 12.9636 9.875 12.5C9.8743 11.8786 9.62715 11.2829 9.18776 10.8435C8.74837 10.4041 8.15264 10.1569 7.53125 10.1562ZM7.53125 13.2813C7.37673 13.2813 7.22569 13.2354 7.09721 13.1496C6.96874 13.0637 6.8686 12.9417 6.80947 12.799C6.75034 12.6562 6.73487 12.4991 6.76501 12.3476C6.79516 12.196 6.86956 12.0568 6.97882 11.9476C7.08808 11.8383 7.22729 11.7639 7.37884 11.7338C7.53038 11.7036 7.68747 11.7191 7.83022 11.7782C7.97298 11.8374 8.09499 11.9375 8.18084 12.066C8.26668 12.1944 8.3125 12.3455 8.3125 12.5C8.31227 12.7071 8.22988 12.9057 8.08342 13.0522C7.93696 13.1986 7.73838 13.281 7.53125 13.2813Z" fill="#55384C"/>
<path id="Vector_3" d="M15.3438 7.03125C15.3438 6.5677 15.2063 6.11456 14.9488 5.72913C14.6912 5.34371 14.3252 5.0433 13.8969 4.86591C13.4687 4.68852 12.9974 4.6421 12.5428 4.73254C12.0881 4.82297 11.6705 5.04619 11.3427 5.37397C11.0149 5.70175 10.7917 6.11936 10.7013 6.57401C10.6109 7.02865 10.6573 7.4999 10.8347 7.92816C11.0121 8.35643 11.3125 8.72247 11.6979 8.98001C12.0833 9.23754 12.5365 9.375 13 9.375C13.6214 9.3743 14.2171 9.12715 14.6565 8.68776C15.0959 8.24837 15.3431 7.65264 15.3438 7.03125ZM12.2188 7.03125C12.2188 6.87673 12.2646 6.72569 12.3504 6.59721C12.4363 6.46874 12.5583 6.3686 12.701 6.30947C12.8438 6.25034 13.0009 6.23487 13.1524 6.26501C13.304 6.29516 13.4432 6.36956 13.5524 6.47882C13.6617 6.58808 13.7361 6.72729 13.7662 6.87884C13.7964 7.03038 13.7809 7.18747 13.7218 7.33022C13.6627 7.47298 13.5625 7.59499 13.434 7.68084C13.3056 7.76668 13.1545 7.8125 13 7.8125C12.7929 7.81227 12.5943 7.72988 12.4478 7.58342C12.3014 7.43696 12.219 7.23838 12.2188 7.03125Z" fill="#55384C"/>
<path id="Vector_4" d="M10.6562 15.625H12.2188V17.1875H10.6562V15.625Z" fill="#55384C"/>
<path id="Vector_5" d="M9.875 22.6562H11.4375V24.2188H9.875V22.6562Z" fill="#55384C"/>
<path id="Vector_6" d="M14.5625 29.6875H16.125V31.25H14.5625V29.6875Z" fill="#55384C"/>
<path id="Vector_7" d="M2.0625 14.8438H3.625V16.4062H2.0625V14.8438Z" fill="#55384C"/>
<path id="Vector_8" d="M8.66045 35.8062L9.52715 34.5062C7.61777 33.2333 7.5335 32.0605 7.53125 32.0112C7.53193 32.0244 7.53125 32.0312 7.53125 32.0312H5.96875C5.96875 32.234 6.04424 34.0625 8.66045 35.8062Z" fill="#55384C"/>
<path id="Vector_9" d="M16.3681 12.079C16.6908 11.5907 17.056 11.132 17.4594 10.708L16.3538 9.60376C16.2488 9.70884 13.7812 12.207 13.7812 14.8437H15.3438C15.3438 14.047 15.6979 13.091 16.3681 12.079Z" fill="#55384C"/>
</g>
<defs>
<clipPath id="clip0_558_12">
<rect width="50" height="50" fill="white" transform="translate(0.5)"/>
</clipPath>
</defs>
</svg>
