<svg width="51" height="50" viewBox="0 0 51 50" fill="none" xmlns="http://www.w3.org/2000/svg">
<g clip-path="url(#clip0_983_80)">
<path d="M17.8589 11.7403C17.7152 12.1824 17.8566 12.6562 18.2189 12.9476L21.445 15.5405L20.3592 19.5346C20.2373 19.983 20.4014 20.4494 20.7777 20.723C21.1541 20.9961 21.6481 21.0081 22.0371 20.7536L25.5001 18.4867L28.9632 20.7537C29.1499 20.8759 29.3607 20.9366 29.5712 20.9366C29.7993 20.9366 30.0269 20.8652 30.2223 20.723C30.5988 20.4497 30.7631 19.983 30.6409 19.5346L29.5551 15.5406L32.7809 12.9478C33.1435 12.6565 33.2849 12.1826 33.1412 11.7403C32.9975 11.2979 32.6046 10.9977 32.1402 10.9752L28.0061 10.7736L26.537 6.9043C26.372 6.46963 25.9649 6.18867 25.5 6.18867C25.035 6.18867 24.6279 6.46953 24.4631 6.9042L22.9938 10.7737L18.86 10.9752C18.3955 10.9977 18.0025 11.2979 17.8589 11.7403ZM23.3663 12.3198C23.8069 12.2983 24.1928 12.018 24.3491 11.6057L25.4999 8.5749L26.6507 11.606C26.8073 12.0182 27.1932 12.2983 27.6335 12.3198L30.8715 12.4777L28.3445 14.5087C28.0007 14.7852 27.8534 15.2388 27.9691 15.6642L28.8196 18.7925L26.1071 17.0168C25.9226 16.8961 25.7112 16.8357 25.4998 16.8357C25.2884 16.8357 25.0767 16.8962 24.8922 17.0169L22.1799 18.7925L23.0304 15.6644C23.1462 15.2387 22.9988 14.785 22.6549 14.5087L20.128 12.4778L23.3663 12.3198ZM24.7186 3.64824V0.78125C24.7186 0.349805 25.0684 0 25.4999 0C25.9313 0 26.2811 0.349805 26.2811 0.78125V3.64824C26.2811 4.07969 25.9313 4.42949 25.4999 4.42949C25.0684 4.42949 24.7186 4.07969 24.7186 3.64824ZM29.4763 8.27695C29.1877 7.95635 29.2136 7.4623 29.5342 7.17363L32.729 4.29688C33.0497 4.00811 33.5436 4.03398 33.8324 4.35469C34.1211 4.67529 34.0952 5.16934 33.7746 5.45801L30.5797 8.33477C30.4303 8.46924 30.2434 8.53545 30.0571 8.53545C29.8435 8.53545 29.6306 8.44834 29.4763 8.27695ZM17.1674 4.35469C17.456 4.03398 17.95 4.00811 18.2708 4.29688L21.4657 7.17363C21.7863 7.4623 21.8122 7.95635 21.5235 8.27695C21.3692 8.44824 21.1563 8.53545 20.9427 8.53545C20.7564 8.53545 20.5695 8.46924 20.4201 8.33477L17.2252 5.45801C16.9045 5.16934 16.8787 4.67529 17.1674 4.35469ZM35.5227 12.9476L38.7488 15.5405L37.663 19.5346C37.5411 19.983 37.7053 20.4494 38.0815 20.723C38.4576 20.9961 38.9517 21.008 39.3409 20.7536L42.8039 18.4867L46.267 20.7537C46.4537 20.8759 46.6645 20.9366 46.875 20.9366C47.1031 20.9366 47.3307 20.8652 47.5262 20.723C47.9024 20.4499 48.0667 19.9834 47.9447 19.5346L46.8589 15.5406L50.0847 12.9478C50.4472 12.6566 50.5887 12.1827 50.4449 11.7403C50.3013 11.2979 49.9083 10.9977 49.444 10.9752L45.3099 10.7736L43.8409 6.9043C43.676 6.46963 43.2688 6.18867 42.8039 6.18867C42.3388 6.18867 41.9317 6.46953 41.7668 6.9042L40.2977 10.7736L36.1639 10.9751C35.6993 10.9976 35.3063 11.2979 35.1627 11.7403C35.0189 12.1826 35.1603 12.6565 35.5227 12.9476ZM40.67 12.3198C41.1107 12.2983 41.4967 12.018 41.6531 11.6056L42.8038 8.5748L43.9544 11.6055C44.1109 12.018 44.4969 12.2983 44.9374 12.3197L48.1754 12.4776L45.6487 14.5084C45.3047 14.7848 45.1572 15.2385 45.273 15.6641L46.1235 18.7924L43.411 17.0167C43.2264 16.896 43.015 16.8356 42.8036 16.8356C42.5921 16.8356 42.3805 16.8961 42.1961 17.0168L39.4838 18.7924L40.3343 15.6643C40.45 15.2388 40.3027 14.7852 39.9588 14.5086L37.4319 12.4776L40.67 12.3198ZM0.914922 12.9476L4.141 15.5405L3.05516 19.5346C2.93328 19.983 3.09744 20.4494 3.47371 20.723C3.85008 20.9961 4.34412 21.0081 4.73309 20.7536L8.19607 18.4867L11.6592 20.7537C11.8459 20.8759 12.0567 20.9366 12.2672 20.9366C12.4953 20.9366 12.7229 20.8652 12.9183 20.723C13.2946 20.4499 13.4589 19.9834 13.3369 19.5346L12.2511 15.5406L15.4769 12.9478C15.8392 12.6568 15.9807 12.183 15.8371 11.7398C15.6931 11.2978 15.3002 10.9976 14.8362 10.9751L10.7021 10.7735L9.23309 6.9043C9.06814 6.46963 8.66102 6.18867 8.19607 6.18867C7.73104 6.18867 7.32391 6.46953 7.15897 6.9042L5.68992 10.7736L1.55613 10.9751C1.09158 10.9976 0.698613 11.2979 0.555058 11.7398C0.411015 12.1823 0.552324 12.6564 0.914922 12.9476ZM6.06219 12.3198C6.50291 12.2983 6.88885 12.018 7.04529 11.6056L8.19598 8.5748L9.34656 11.6055C9.50311 12.018 9.88904 12.2983 10.3296 12.3197L13.5676 12.4776L11.0409 14.5084C10.6969 14.7848 10.5494 15.2385 10.6652 15.6641L11.5157 18.7924L8.8032 17.0167C8.61863 16.896 8.40721 16.8356 8.19578 16.8356C7.98426 16.8356 7.77273 16.8961 7.58826 17.0168L4.87596 18.7924L5.72645 15.6643C5.84217 15.2388 5.6949 14.7852 5.35096 14.5086L2.8241 12.4776L6.06219 12.3198ZM50.3769 41.4974C49.8272 39.7222 48.7013 38.1282 47.2065 37.0089C46.4909 36.473 45.7116 36.0557 44.8895 35.7602C46.0293 34.8656 46.7636 33.477 46.7636 31.919C46.7636 29.2271 44.5735 27.037 41.8816 27.037C39.1896 27.037 36.9995 29.2271 36.9995 31.919C36.9995 33.4751 37.7321 34.8624 38.8696 35.757C37.3451 36.3012 35.9945 37.2572 34.9602 38.5455C34.4768 37.8692 33.9192 37.2411 33.2924 36.6742C32.0293 35.5319 30.547 34.6931 28.9506 34.1973C30.6434 33.075 31.7626 31.1534 31.7626 28.9746C31.7626 25.5215 28.9531 22.7121 25.5 22.7121C22.0469 22.7121 19.2374 25.5215 19.2374 28.9746C19.2374 31.1534 20.3564 33.075 22.0493 34.1973C20.4528 34.693 18.9705 35.5319 17.7074 36.6742C17.0805 37.2411 16.5229 37.8692 16.0396 38.5454C15.0054 37.257 13.6549 36.301 12.1303 35.7567C13.2677 34.8621 14.0004 33.4748 14.0004 31.9187C14.0004 29.2268 11.8102 27.0367 9.11834 27.0367C6.42635 27.0367 4.23621 29.2268 4.23621 31.9187C4.23621 33.4766 4.97059 34.8653 6.11023 35.7599C5.28816 36.0554 4.50887 36.4728 3.79314 37.0086C2.29832 38.1278 1.17244 39.7219 0.622734 41.497C0.36873 42.3169 0.509453 43.149 1.01893 43.8402C1.5283 44.5312 2.28162 44.9117 3.14002 44.9117H13.9401V46.3217C13.9401 48.35 15.5902 50.0001 17.6185 50.0001H33.3812C35.4095 50.0001 37.0596 48.35 37.0597 46.3217V44.9121H47.8597C48.7182 44.9121 49.4716 44.5315 49.9808 43.8406C50.4902 43.1494 50.6309 42.3172 50.3769 41.4974ZM41.8816 28.5995C43.712 28.5995 45.2011 30.0887 45.2011 31.919C45.2011 33.7495 43.712 35.2387 41.8816 35.2387C40.0512 35.2387 38.562 33.7495 38.562 31.919C38.562 30.0887 40.0512 28.5995 41.8816 28.5995ZM20.7999 28.9746C20.7999 26.383 22.9084 24.2746 25.5 24.2746C28.0916 24.2746 30.2001 26.383 30.2001 28.9746C30.2001 31.5654 28.0929 33.6732 25.5025 33.6746C25.5016 33.6746 25.5007 33.6746 25.4999 33.6746C25.4991 33.6746 25.4982 33.6746 25.4973 33.6746C22.9069 33.6731 20.7999 31.5653 20.7999 28.9746ZM9.11834 28.5991C10.9487 28.5991 12.4379 30.0883 12.4379 31.9187C12.4379 33.7491 10.9487 35.2383 9.11834 35.2383C7.28787 35.2383 5.79871 33.7491 5.79871 31.9187C5.79871 30.0883 7.28787 28.5991 9.11834 28.5991ZM14.0416 43.3491H3.14012C2.78055 43.3491 2.49012 43.2024 2.27674 42.913C2.06326 42.6235 2.00906 42.3026 2.11541 41.9592C3.07088 38.8737 5.88523 36.8008 9.11834 36.8008C11.5639 36.8008 13.7918 37.9824 15.162 39.9827C14.6203 41.0351 14.2409 42.1693 14.0416 43.3491ZM35.4972 46.3216C35.4971 47.4883 34.5479 48.4375 33.3812 48.4375H17.6185C16.4518 48.4375 15.5026 47.4883 15.5026 46.3216V44.1729C16.0682 39.0764 20.3577 35.2384 25.4973 35.2371C25.4982 35.2371 25.4991 35.2372 25.5 35.2372C25.5009 35.2372 25.5017 35.2371 25.5025 35.2371C30.6421 35.2385 34.9314 39.0764 35.4972 44.1729V46.3216ZM48.7231 42.9135C48.5097 43.2028 48.2194 43.3495 47.8597 43.3495H36.9584C36.759 42.1696 36.3796 41.0354 35.838 39.9829C37.2083 37.9827 39.436 36.8012 41.8815 36.8012C45.1146 36.8012 47.929 38.8742 48.8845 41.9597C48.9908 42.3029 48.9365 42.6238 48.7231 42.9135Z" fill="#55384C"/>
</g>
<defs>
<clipPath id="clip0_983_80">
<rect width="50" height="50" fill="white" transform="translate(0.5)"/>
</clipPath>
</defs>
</svg>
