<svg width="106" height="106" viewBox="0 0 106 106" fill="none" xmlns="http://www.w3.org/2000/svg">
<g clip-path="url(#clip0_28_698)">
<path d="M37.2847 25.4941C36.9831 26.4224 37.28 27.4175 38.0409 28.0292L44.8156 33.4745L42.5354 41.862C42.2794 42.8037 42.6242 43.7831 43.4143 44.3578C44.2047 44.9312 45.2422 44.9564 46.059 44.4219L53.3313 39.6615L60.6038 44.4221C60.9959 44.6787 61.4386 44.8063 61.8806 44.8063C62.3596 44.8063 62.8377 44.6563 63.248 44.3578C64.0386 43.7837 64.3836 42.8037 64.127 41.862L61.8467 33.4747L68.6211 28.0296C69.3826 27.4181 69.6795 26.4229 69.3776 25.4941C69.076 24.565 68.2507 23.9344 67.2756 23.8873L58.594 23.464L55.5088 15.3384C55.1624 14.4256 54.3075 13.8356 53.3311 13.8356C52.3547 13.8356 51.4997 14.4254 51.1536 15.3382L48.0682 23.4642L39.3872 23.8873C38.4117 23.9344 37.5864 24.565 37.2847 25.4941ZM48.8503 26.711C49.7756 26.6659 50.5859 26.0771 50.9142 25.2113L53.3309 18.8467L55.7475 25.2119C56.0765 26.0775 56.8869 26.6659 57.8114 26.711L64.6112 27.0426L59.3046 31.3076C58.5825 31.8882 58.2733 32.8408 58.5163 33.7341L60.3023 40.3036L54.6061 36.5746C54.2187 36.3212 53.7747 36.1944 53.3307 36.1944C52.8867 36.1944 52.4423 36.3214 52.0547 36.5748L46.3588 40.3036L48.1449 33.7345C48.3881 32.8406 48.0786 31.8878 47.3563 31.3076L42.0499 27.0428L48.8503 26.711ZM51.6903 8.50066V2.47998C51.6903 1.57395 52.4248 0.839355 53.3309 0.839355C54.2369 0.839355 54.9715 1.57395 54.9715 2.47998V8.50066C54.9715 9.4067 54.2369 10.1413 53.3309 10.1413C52.4248 10.1413 51.6903 9.4067 51.6903 8.50066ZM61.6815 18.221C61.0752 17.5477 61.1296 16.5102 61.8029 15.904L68.512 9.86279C69.1855 9.25638 70.2228 9.31072 70.8292 9.9842C71.4354 10.6575 71.381 11.695 70.7078 12.3012L63.9984 18.3424C63.6849 18.6248 63.2923 18.7638 62.9011 18.7638C62.4525 18.7638 62.0055 18.5809 61.6815 18.221ZM35.8326 9.9842C36.4388 9.31072 37.4761 9.25638 38.1498 9.86279L44.8591 15.904C45.5324 16.5102 45.5867 17.5477 44.9805 18.221C44.6565 18.5807 44.2094 18.7638 43.7607 18.7638C43.3696 18.7638 42.9771 18.6248 42.6633 18.3424L35.954 12.3012C35.2805 11.695 35.2264 10.6575 35.8326 9.9842ZM74.3789 28.0292L81.1536 33.4745L78.8734 41.862C78.6174 42.8037 78.9622 43.7831 79.7523 44.3578C80.5421 44.9312 81.5798 44.9562 82.397 44.4219L89.6693 39.6615L96.9418 44.4221C97.3339 44.6787 97.7766 44.8063 98.2186 44.8063C98.6976 44.8063 99.1757 44.6563 99.586 44.3578C100.376 43.7841 100.721 42.8045 100.465 41.862L98.1847 33.4747L104.959 28.0296C105.72 27.4183 106.017 26.4231 105.715 25.4941C105.414 24.565 104.589 23.9344 103.614 23.8873L94.932 23.464L91.847 15.3384C91.5006 14.4256 90.6457 13.8356 89.6693 13.8356C88.6927 13.8356 87.8377 14.4254 87.4914 15.3382L84.4064 23.464L75.7254 23.8871C74.7496 23.9342 73.9244 24.565 73.6227 25.4941C73.3209 26.4229 73.6178 27.4181 74.3789 28.0292ZM85.1881 26.711C86.1136 26.6659 86.9241 26.0771 87.2526 25.211L89.6691 18.8464L92.0853 25.2108C92.4141 26.0771 93.2245 26.6659 94.1496 26.7108L100.949 27.0424L95.6434 31.307C94.9209 31.8874 94.6113 32.8402 94.8545 33.7339L96.6405 40.3034L90.9443 36.5744C90.5567 36.3209 90.1127 36.1942 89.6687 36.1942C89.2245 36.1942 88.7803 36.3212 88.3929 36.5746L82.697 40.3034L84.4831 33.7343C84.7261 32.8408 84.4168 31.8882 83.6945 31.3074L78.3881 27.0424L85.1881 26.711ZM1.70246 28.0292L8.47722 33.4745L6.19696 41.862C5.94102 42.8037 6.28575 43.7831 7.07592 44.3578C7.86629 44.9312 8.90378 44.9564 9.72061 44.4219L16.9929 39.6615L24.2654 44.4221C24.6575 44.6787 25.1002 44.8063 25.5422 44.8063C26.0212 44.8063 26.4993 44.6563 26.9096 44.3578C27.6998 43.7841 28.0448 42.8045 27.7886 41.862L25.5083 33.4747L32.2827 28.0296C33.0435 27.4187 33.3407 26.4237 33.039 25.493C32.7367 24.5646 31.9115 23.9342 30.9372 23.8871L22.2556 23.4638L19.1706 15.3384C18.8242 14.4256 17.9693 13.8356 16.9929 13.8356C16.0163 13.8356 15.1613 14.4254 14.815 15.3382L11.73 23.464L3.04901 23.8871C2.07345 23.9342 1.24822 24.5651 0.946751 25.493C0.64426 26.4222 0.941008 27.4179 1.70246 28.0292ZM12.5117 26.711C13.4372 26.6659 14.2477 26.0771 14.5762 25.211L16.9927 18.8464L19.4089 25.2108C19.7376 26.0771 20.5481 26.6659 21.4732 26.7108L28.273 27.0424L22.967 31.307C22.2445 31.8874 21.9349 32.8402 22.1781 33.7339L23.9641 40.3034L18.2679 36.5744C17.8803 36.3209 17.4363 36.1942 16.9923 36.1942C16.5481 36.1942 16.1039 36.3212 15.7165 36.5746L10.0206 40.3034L11.8067 33.7343C12.0497 32.8408 11.7404 31.8882 11.0181 31.3074L5.71174 27.0424L12.5117 26.711ZM105.573 87.9838C104.418 84.2559 102.054 80.9086 98.9148 78.558C97.412 77.4328 95.7755 76.5563 94.0491 75.9357C96.4426 74.0572 97.9848 71.141 97.9848 67.8693C97.9848 62.2162 93.3855 57.6171 87.7325 57.6171C82.0793 57.6171 77.4801 62.2162 77.4801 67.8693C77.4801 71.1371 79.0186 74.0504 81.4073 75.9291C78.2058 77.0718 75.3696 79.0795 73.1976 81.7849C72.1825 80.3648 71.0115 79.0457 69.6951 77.8552C67.0426 75.4564 63.9297 73.6948 60.5773 72.6536C64.1323 70.2969 66.4825 66.2615 66.4825 61.686C66.4825 54.4345 60.5826 48.5348 53.3311 48.5348C46.0795 48.5348 40.1796 54.4345 40.1796 61.686C40.1796 66.2615 42.5296 70.2969 46.0847 72.6536C42.732 73.6946 39.6192 75.4564 36.9667 77.8552C35.6503 79.0457 34.4793 80.3648 33.4643 81.7847C31.2926 79.0791 28.4563 77.0714 25.2547 75.9285C27.6432 74.0498 29.1819 71.1364 29.1819 67.8687C29.1819 62.2155 24.5826 57.6165 18.9296 57.6165C13.2765 57.6165 8.67717 62.2155 8.67717 67.8687C8.67717 71.1401 10.2194 74.0565 12.6126 75.9351C10.8863 76.5556 9.24975 77.4321 7.74673 78.5574C4.6076 80.9078 2.24325 84.2553 1.08887 87.983C0.555462 89.7048 0.850979 91.4523 1.92087 92.9038C2.99056 94.355 4.57253 95.154 6.37517 95.154H29.0554V98.1149C29.0554 102.374 32.5206 105.84 36.7801 105.84H69.8817C74.141 105.84 77.6064 102.374 77.6066 98.1149V95.1548H100.287C102.089 95.1548 103.671 94.3556 104.741 92.9047C105.811 91.4531 106.106 89.7055 105.573 87.9838ZM87.7325 60.8983C91.5763 60.8983 94.7035 64.0256 94.7035 67.8693C94.7035 71.7133 91.5763 74.8406 87.7325 74.8406C83.8885 74.8406 80.7613 71.7133 80.7613 67.8693C80.7613 64.0256 83.8885 60.8983 87.7325 60.8983ZM43.4609 61.686C43.4609 56.2437 47.8887 51.816 53.3311 51.816C58.7734 51.816 63.2013 56.2437 63.2013 61.686C63.2013 67.1268 58.7763 71.5532 53.3364 71.556C53.3346 71.556 53.3325 71.556 53.3309 71.556C53.3292 71.556 53.3274 71.556 53.3256 71.556C47.8856 71.553 43.4609 67.1266 43.4609 61.686ZM18.9296 60.8975C22.7734 60.8975 25.9007 64.0247 25.9007 67.8685C25.9007 71.7125 22.7734 74.8397 18.9296 74.8397C15.0857 74.8397 11.9584 71.7125 11.9584 67.8685C11.9584 64.0247 15.0857 60.8975 18.9296 60.8975ZM29.2685 91.8725H6.37537C5.62028 91.8725 5.01037 91.5645 4.56228 90.9566C4.11398 90.3488 4.00016 89.6749 4.22349 88.9536C6.22997 82.4742 12.1401 78.121 18.9296 78.121C24.0654 78.121 28.7439 80.6024 31.6213 84.8031C30.4837 87.013 29.687 89.395 29.2685 91.8725ZM74.3253 98.1147C74.3251 100.565 72.3318 102.558 69.8817 102.558H36.7801C34.33 102.558 32.3366 100.565 32.3366 98.1147V93.6023C33.5244 82.8997 42.5323 74.84 53.3256 74.8373C53.3274 74.8373 53.3292 74.8375 53.3311 74.8375C53.3329 74.8375 53.3348 74.8373 53.3364 74.8373C64.1295 74.8402 73.1371 82.8997 74.3253 93.6023V98.1147ZM102.1 90.9577C101.652 91.5653 101.042 91.8733 100.287 91.8733H77.3937C76.975 89.3956 76.1782 87.0136 75.0409 84.8035C77.9185 80.6031 82.5968 78.1218 87.7323 78.1218C94.5218 78.1218 100.432 82.4752 102.438 88.9547C102.662 89.6755 102.548 90.3494 102.1 90.9577Z" fill="#55384C"/>
</g>
<defs>
<clipPath id="clip0_28_698">
<rect width="105" height="105" fill="white" transform="translate(0.831055 0.966309)"/>
</clipPath>
</defs>
</svg>
