<svg width="51" height="50" viewBox="0 0 51 50" fill="none" xmlns="http://www.w3.org/2000/svg">
<g clip-path="url(#clip0_558_1244)">
<path d="M44.9313 4.2048C44.5806 3.85441 44.0122 3.85411 43.6614 4.2048L34.352 13.514C34.0012 13.8647 34.0012 14.433 34.3519 14.7838C34.5273 14.9591 34.7569 15.0467 34.9868 15.0467C35.2165 15.0467 35.4464 14.9591 35.6218 14.7838L44.9313 5.47462C45.2818 5.12384 45.2818 4.55538 44.9313 4.2048Z" fill="#55384C"/>
<path d="M47.463 6.69646C47.1122 6.34597 46.5439 6.34597 46.1932 6.69646L36.8838 16.0058C36.5332 16.3566 36.5332 16.925 36.8837 17.2757C37.0591 17.451 37.289 17.5385 37.5187 17.5385C37.7484 17.5385 37.9782 17.451 38.1536 17.2757L47.463 7.96619C47.8137 7.6155 47.8137 7.04705 47.463 6.69646Z" fill="#55384C"/>
<path d="M38.6806 22.4168L50.2371 10.8604C50.5877 10.5096 50.5877 9.94122 50.2371 9.59054C49.8863 9.24015 49.3179 9.23986 48.9672 9.59054L37.411 21.147C35.9873 22.5706 33.8103 22.9442 31.994 22.0768C31.6327 21.9043 31.2012 21.9915 30.9355 22.2909L27.0088 26.7151C27.0073 26.7167 27.0055 26.7182 27.004 26.7199C27.0024 26.7217 27.0012 26.7235 26.9997 26.7253L10.0281 45.8461C10.0238 45.851 10.0195 45.856 10.0153 45.861C9.95933 45.9267 9.90649 45.9844 9.85298 46.038C8.73237 47.1585 6.90913 47.1584 5.78901 46.038C5.24624 45.4953 4.94731 44.7735 4.94731 44.006C4.94731 43.2384 5.24624 42.5167 5.78999 41.973C5.84214 41.9205 5.89976 41.8679 5.96606 41.8114C5.97114 41.8072 5.97603 41.8029 5.98091 41.7986L16.5911 32.3813C16.962 32.0521 16.9957 31.4846 16.6666 31.1138C16.3374 30.7428 15.7698 30.7089 15.3991 31.0383L4.79595 40.4494C4.69458 40.5359 4.60386 40.6195 4.51929 40.7042C3.63735 41.5861 3.15161 42.7587 3.15161 44.006C3.15161 45.2531 3.63726 46.4258 4.51919 47.3077C5.42964 48.218 6.62524 48.6732 7.82114 48.6731C9.01655 48.6731 10.2125 48.2181 11.1222 47.3082C11.2084 47.2222 11.2919 47.1314 11.3777 47.031L24.3105 32.4601L37.2435 47.0312C37.3291 47.1317 37.4126 47.2225 37.4983 47.3079C38.4085 48.2182 39.6042 48.6733 40.7999 48.6733C41.9957 48.6733 43.1915 48.2181 44.1019 47.3078C45.9222 45.4872 45.9222 42.5251 44.1024 40.705C44.0165 40.6188 43.9255 40.5353 43.8252 40.4496L28.9433 27.2406L31.8549 23.9602C34.214 24.796 36.8833 24.2138 38.6806 22.4168ZM42.6401 41.7987C42.645 41.803 42.6499 41.8073 42.6549 41.8115C42.7206 41.8675 42.7784 41.9203 42.832 41.9738C43.9524 43.0943 43.9524 44.9175 42.8321 46.0378C41.7115 47.1582 39.8883 47.1582 38.7674 46.0373C38.7144 45.9843 38.6614 45.9265 38.6054 45.8608C38.6012 45.8558 38.5969 45.8508 38.5926 45.8459L25.5109 31.1074L27.751 28.5835L42.6401 41.7987Z" fill="#55384C"/>
<path d="M42.2362 1.58953C41.8854 1.23904 41.3171 1.23904 40.9664 1.58953L29.4102 13.1461C27.6127 14.9433 27.0307 17.6124 27.8665 19.972L24.3103 23.1284L20.8926 20.0948C22.6601 16.6171 22.0148 12.3945 19.2107 9.59031C16.4258 6.80535 13.2 4.84548 10.1276 4.07195C6.9203 3.26462 4.1705 3.80359 2.38397 5.59001C0.597451 7.37644 0.0583882 10.1266 0.865908 13.3338C1.63954 16.4059 3.59931 19.6317 6.38446 22.4166C9.18857 25.2209 13.411 25.8661 16.889 24.0985C16.889 24.0985 20.2312 27.8639 20.2736 27.9118C20.4511 28.1117 20.6976 28.2136 20.9455 28.2136C21.1575 28.2136 21.3702 28.1389 21.5412 27.9872L29.5359 20.8911C29.8352 20.6254 29.9225 20.1937 29.7501 19.8326C28.8825 18.0161 29.2561 15.8393 30.6799 14.4158L42.2362 2.85935C42.5869 2.50857 42.5869 1.94021 42.2362 1.58953ZM21.0206 26.0484L17.7522 22.3662C17.4628 22.0401 16.9806 21.9688 16.6095 22.198C13.7308 23.9731 10.0481 23.5412 7.65399 21.147C5.09501 18.5881 3.30272 15.6577 2.60712 12.8953C1.96015 10.3253 2.33183 8.18171 3.6538 6.85984C4.97558 5.53777 7.11913 5.16628 9.68905 5.81335C12.4515 6.50886 15.382 8.30105 17.9408 10.86C20.335 13.2541 20.767 16.9367 18.9918 19.8154C18.7629 20.1866 18.8339 20.6686 19.16 20.9582L22.9576 24.3289L21.0206 26.0484Z" fill="#55384C"/>
</g>
<defs>
<clipPath id="clip0_558_1244">
<rect width="50" height="50" fill="white" transform="translate(0.5)"/>
</clipPath>
</defs>
</svg>
