<svg width="24" height="25" viewBox="0 0 24 25" fill="none" xmlns="http://www.w3.org/2000/svg">
<path d="M21.25 12.6916H8.895M4.534 12.6916H2.75M4.534 12.6916C4.534 12.1135 4.76368 11.559 5.17251 11.1501C5.58134 10.7413 6.13583 10.5116 6.714 10.5116C7.29217 10.5116 7.84666 10.7413 8.25549 11.1501C8.66432 11.559 8.894 12.1135 8.894 12.6916C8.894 13.2698 8.66432 13.8243 8.25549 14.2331C7.84666 14.642 7.29217 14.8716 6.714 14.8716C6.13583 14.8716 5.58134 14.642 5.17251 14.2331C4.76368 13.8243 4.534 13.2698 4.534 12.6916ZM21.25 19.2986H15.502M15.502 19.2986C15.502 19.8769 15.2718 20.4321 14.8628 20.841C14.4539 21.2499 13.8993 21.4796 13.321 21.4796C12.7428 21.4796 12.1883 21.249 11.7795 20.8401C11.3707 20.4313 11.141 19.8768 11.141 19.2986M15.502 19.2986C15.502 18.7203 15.2718 18.1662 14.8628 17.7573C14.4539 17.3484 13.8993 17.1186 13.321 17.1186C12.7428 17.1186 12.1883 17.3483 11.7795 17.7571C11.3707 18.166 11.141 18.7205 11.141 19.2986M11.141 19.2986H2.75M21.25 6.08463H18.145M13.784 6.08463H2.75M13.784 6.08463C13.784 5.50646 14.0137 4.95197 14.4225 4.54314C14.8313 4.13431 15.3858 3.90463 15.964 3.90463C16.2503 3.90463 16.5338 3.96102 16.7983 4.07058C17.0627 4.18013 17.3031 4.34071 17.5055 4.54314C17.7079 4.74557 17.8685 4.98589 17.9781 5.25038C18.0876 5.51487 18.144 5.79835 18.144 6.08463C18.144 6.37091 18.0876 6.65439 17.9781 6.91888C17.8685 7.18337 17.7079 7.42369 17.5055 7.62613C17.3031 7.82856 17.0627 7.98913 16.7983 8.09869C16.5338 8.20825 16.2503 8.26463 15.964 8.26463C15.3858 8.26463 14.8313 8.03495 14.4225 7.62613C14.0137 7.2173 13.784 6.6628 13.784 6.08463Z" stroke="black" stroke-width="1.5" stroke-miterlimit="10" stroke-linecap="round"/>
</svg>
