<svg width="106" height="106" viewBox="0 0 106 106" fill="none" xmlns="http://www.w3.org/2000/svg">
<path d="M74.6592 2.47998C64.3561 2.47998 56.6123 17.4097 56.6123 27.0894C56.6147 30.6897 57.6939 34.207 59.7113 37.1891C61.7286 40.1712 64.5917 42.4818 67.9326 43.8237L63.9787 92.6159C63.8357 94.1024 64.0051 95.6024 64.476 97.0196C64.9468 98.4368 65.7088 99.7399 66.713 100.845C67.7171 101.951 68.9413 102.834 70.3069 103.438C71.6725 104.043 73.1494 104.355 74.6428 104.355C76.1362 104.355 77.613 104.043 78.9787 103.438C80.3443 102.834 81.5684 101.951 82.5726 100.845C83.5767 99.7399 84.3387 98.4368 84.8096 97.0196C85.2804 95.6024 85.4498 94.1024 85.3068 92.6159L81.3857 43.8237C84.7266 42.4818 87.5898 40.1712 89.6071 37.1891C91.6244 34.207 92.7036 30.6897 92.7061 27.0894C92.7061 17.4097 84.9623 2.47998 74.6592 2.47998ZM82.0748 92.8784C82.1952 93.9195 82.0941 94.9743 81.778 95.9736C81.462 96.9728 80.9381 97.894 80.2409 98.6765C79.5437 99.459 78.6889 100.085 77.7326 100.514C76.7762 100.943 75.74 101.164 74.692 101.164C73.6439 101.164 72.6077 100.943 71.6514 100.514C70.6951 100.085 69.8403 99.459 69.1431 98.6765C68.4458 97.894 67.922 96.9728 67.606 95.9736C67.2899 94.9743 67.1888 93.9195 67.3092 92.8784L67.4568 91.0737H81.9928L82.0748 92.8784ZM81.3857 84.5112L81.6646 87.7925H67.6537L67.9326 84.5112H81.3857ZM68.2607 81.23L71.2139 44.7917C73.5319 45.2514 75.9177 45.2514 78.2357 44.7917L81.1232 81.23H68.2607ZM74.6592 41.855C70.7431 41.855 66.9874 40.2993 64.2183 37.5302C61.4492 34.7611 59.8936 31.0054 59.8936 27.0894C59.8936 18.8862 66.6529 5.76123 74.6592 5.76123C82.6654 5.76123 89.4248 18.8862 89.4248 27.0894C89.4248 31.0054 87.8691 34.7611 85.1001 37.5302C82.331 40.2993 78.5753 41.855 74.6592 41.855Z" fill="#55384C"/>
<path d="M39.8779 100.753C40.8913 99.6571 41.6644 98.361 42.1475 96.9483C42.6306 95.5357 42.8132 94.0376 42.6834 92.5503L38.992 46.9409C42.258 45.5691 45.0481 43.2663 47.0144 40.3197C48.9807 37.3731 50.0364 33.913 50.0498 30.3706V7.40186C50.0498 6.09649 49.5313 4.84459 48.6082 3.92156C47.6852 2.99853 46.4333 2.47998 45.1279 2.47998C43.8226 2.47998 42.5707 2.99853 41.6476 3.92156C40.7246 4.84459 40.2061 6.09649 40.2061 7.40186V28.73C40.2061 29.1651 40.0332 29.5824 39.7255 29.8901C39.4179 30.1978 39.0006 30.3706 38.5654 30.3706C38.1303 30.3706 37.713 30.1978 37.4053 29.8901C37.0977 29.5824 36.9248 29.1651 36.9248 28.73V7.40186C36.9248 6.09649 36.4063 4.84459 35.4832 3.92156C34.5602 2.99853 33.3083 2.47998 32.0029 2.47998C30.6976 2.47998 29.4457 2.99853 28.5226 3.92156C27.5996 4.84459 27.0811 6.09649 27.0811 7.40186V28.73C27.0811 29.1651 26.9082 29.5824 26.6005 29.8901C26.2928 30.1978 25.8756 30.3706 25.4404 30.3706C25.0053 30.3706 24.588 30.1978 24.2803 29.8901C23.9727 29.5824 23.7998 29.1651 23.7998 28.73V7.40186C23.7998 6.09649 23.2813 4.84459 22.3582 3.92156C21.4352 2.99853 20.1833 2.47998 18.8779 2.47998C17.5726 2.47998 16.3207 2.99853 15.3976 3.92156C14.4746 4.84459 13.9561 6.09649 13.9561 7.40186V30.3706C13.9566 33.9242 15.0062 37.3986 16.9734 40.358C18.9405 43.3175 21.7376 45.6303 25.0139 47.0065L21.3225 92.6159C21.124 94.8451 21.6288 97.0805 22.7657 99.0083C23.9027 100.936 25.6148 102.459 27.6618 103.364C29.7087 104.269 31.9877 104.51 34.1787 104.054C36.3697 103.597 38.3627 102.466 39.8779 100.819V100.753ZM17.2373 30.3706V7.40186C17.2373 6.96673 17.4102 6.54944 17.7178 6.24176C18.0255 5.93408 18.4428 5.76123 18.8779 5.76123C19.3131 5.76123 19.7303 5.93408 20.038 6.24176C20.3457 6.54944 20.5186 6.96673 20.5186 7.40186V28.73C20.5186 30.0353 21.0371 31.2872 21.9601 32.2103C22.8832 33.1333 24.1351 33.6519 25.4404 33.6519C26.7458 33.6519 27.9977 33.1333 28.9207 32.2103C29.8438 31.2872 30.3623 30.0353 30.3623 28.73V7.40186C30.3623 6.96673 30.5352 6.54944 30.8428 6.24176C31.1505 5.93408 31.5678 5.76123 32.0029 5.76123C32.4381 5.76123 32.8554 5.93408 33.163 6.24176C33.4707 6.54944 33.6436 6.96673 33.6436 7.40186V28.73C33.6436 30.0353 34.1621 31.2872 35.0851 32.2103C36.0082 33.1333 37.2601 33.6519 38.5654 33.6519C39.8708 33.6519 41.1227 33.1333 42.0457 32.2103C42.9688 31.2872 43.4873 30.0353 43.4873 28.73V7.40186C43.4873 6.96673 43.6602 6.54944 43.9678 6.24176C44.2755 5.93408 44.6928 5.76123 45.1279 5.76123C45.5631 5.76123 45.9804 5.93408 46.288 6.24176C46.5957 6.54944 46.7686 6.96673 46.7686 7.40186V30.3706C46.7686 34.2867 45.2129 38.0424 42.4438 40.8115C39.6747 43.5806 35.919 45.1362 32.0029 45.1362C28.0868 45.1362 24.3311 43.5806 21.5621 40.8115C18.793 38.0424 17.2373 34.2867 17.2373 30.3706ZM38.467 81.23H25.5389L28.2295 48.0073C30.7154 48.5539 33.2904 48.5539 35.7764 48.0073L38.467 81.23ZM25.342 84.5112H38.7951L39.074 87.7925H24.9975L25.342 84.5112ZM24.6529 92.8784L24.8006 91.0737H39.3365L39.4842 92.8784C39.6046 93.9195 39.5035 94.9743 39.1874 95.9736C38.8713 96.9728 38.3475 97.894 37.6503 98.6765C36.9531 99.459 36.0983 100.085 35.1419 100.514C34.1856 100.943 33.1494 101.164 32.1014 101.164C31.0533 101.164 30.0171 100.943 29.0608 100.514C28.1045 100.085 27.2496 99.459 26.5524 98.6765C25.8552 97.894 25.3314 96.9728 25.0153 95.9736C24.6993 94.9743 24.5981 93.9195 24.7186 92.8784H24.6529Z" fill="#55384C"/>
<path d="M74.6592 35.2925C72.4836 35.2925 70.3971 34.4282 68.8587 32.8898C67.3203 31.3515 66.4561 29.265 66.4561 27.0894H63.1748C63.1748 30.1352 64.3848 33.0563 66.5385 35.21C68.6922 37.3638 71.6133 38.5737 74.6592 38.5737C77.705 38.5737 80.6261 37.3638 82.7799 35.21C84.9336 33.0563 86.1436 30.1352 86.1436 27.0894H82.8623C82.8623 29.265 81.998 31.3515 80.4597 32.8898C78.9213 34.4282 76.8348 35.2925 74.6592 35.2925Z" fill="#55384C"/>
</svg>
