<svg width="106" height="106" viewBox="0 0 106 106" fill="none" xmlns="http://www.w3.org/2000/svg">
<g clip-path="url(#clip0_28_651)">
<path d="M104.293 49.5313H102.105V41.8553C102.105 40.173 101.528 38.5212 100.481 37.205L99.3871 35.8287V32.0933C99.3871 30.6793 98.2376 29.5298 96.8236 29.5298H95.155C93.7411 29.5298 92.5915 30.6793 92.5915 32.0933V35.8287L91.4964 37.205C90.4494 38.5212 89.8734 40.173 89.8734 41.8553V49.5313H88.0902V45.7518C88.0902 44.0695 87.5134 42.4185 86.4664 41.1015L85.3721 39.7252V35.9897C85.3721 34.5758 84.2225 33.4263 82.8086 33.4263H81.14C79.7261 33.4263 78.5765 34.5758 78.5765 35.9897V39.7252L77.4814 41.1015C76.4344 42.4185 75.8576 44.0703 75.8576 45.7518V49.5313H70.4551V48.9305C70.4551 47.072 68.9434 45.5603 67.0849 45.5603H64.495C63.645 45.5603 62.9569 46.2493 62.9569 47.0984C62.9569 47.9476 63.645 48.6365 64.495 48.6365H67.0849C67.2467 48.6365 67.3789 48.7687 67.3789 48.9305V49.5313H54.8691V47.0984C54.8691 46.2493 54.181 45.5603 53.3311 45.5603C52.4811 45.5603 51.793 46.2493 51.793 47.0984V49.5313H39.2824V48.9305C39.2824 48.7687 39.4146 48.6365 39.5772 48.6365H42.1671C43.0171 48.6365 43.7052 47.9476 43.7052 47.0984C43.7052 46.2493 43.0171 45.5603 42.1671 45.5603H39.5772C37.7187 45.5603 36.2062 47.072 36.2062 48.9305V49.5313H12.418V39.1004C12.418 37.4982 13.7213 36.1948 15.3235 36.1948C16.9257 36.1948 18.2282 37.4982 18.2282 39.1004V44.3018C18.2282 45.151 18.9172 45.8399 19.7663 45.8399C20.6163 45.8399 21.3044 45.151 21.3044 44.3018V39.1004C21.3044 35.8023 18.6216 33.1187 15.3235 33.1187C12.0254 33.1187 9.3418 35.8023 9.3418 39.1004V44.4668H7.46165C6.6125 44.4668 5.92356 45.155 5.92356 46.0049C5.92356 46.8541 6.6125 47.543 7.46165 47.543H9.3418V49.5313H2.36914C1.51919 49.5313 0.831055 50.2194 0.831055 51.0694V76.3421C0.831055 77.1912 1.51919 77.8802 2.36914 77.8802C3.21909 77.8802 3.90723 77.1912 3.90723 76.3421V72.3366H30.2598V100.506H4.41992C4.13714 100.506 3.90723 100.276 3.90723 99.9933V82.4944C3.90723 81.6445 3.21909 80.9563 2.36914 80.9563C1.51919 80.9563 0.831055 81.6445 0.831055 82.4944V99.9933C0.831055 101.972 2.44124 103.582 4.41992 103.582H102.242C104.221 103.582 105.831 101.972 105.831 99.9933V82.4944C105.831 81.6445 105.143 80.9563 104.293 80.9563C103.443 80.9563 102.755 81.6445 102.755 82.4944V99.9933C102.755 100.276 102.525 100.506 102.242 100.506H76.4023V72.3366H102.755V76.3421C102.755 77.1912 103.443 77.8802 104.293 77.8802C105.143 77.8802 105.831 77.1912 105.831 76.3421V51.0694C105.831 50.2194 105.143 49.5313 104.293 49.5313ZM92.9496 41.8553C92.9496 40.866 93.2884 39.8942 93.9045 39.1196L95.3336 37.3228C95.5499 37.0512 95.6677 36.7131 95.6677 36.3655V32.606H96.3109V36.3655C96.3109 36.7139 96.4287 37.0512 96.6458 37.3228L98.0741 39.1196C98.6902 39.8942 99.0298 40.866 99.0298 41.8553V49.5313H92.9496V41.8553ZM78.9346 45.7518C78.9346 44.7624 79.2734 43.7907 79.8895 43.0161L81.3186 41.2192C81.5349 40.9477 81.6527 40.6096 81.6527 40.2619V36.5024H82.2959V40.2619C82.2959 40.6096 82.4137 40.9477 82.63 41.2192L84.0591 43.0161C84.6752 43.7907 85.014 44.7624 85.014 45.7518V49.5313H78.9346V45.7518ZM3.90723 52.6075H102.755V55.2543H3.90723V52.6075ZM73.3262 58.3304V69.2605H33.3359V58.3304H73.3262ZM3.90723 69.2605V58.3304H30.2598V69.2605H3.90723ZM73.3262 100.506H33.3359V72.3366H73.3262V100.506ZM76.4023 69.2605V58.3304H102.755V69.2605H76.4023Z" fill="#55384C"/>
<path d="M43.9186 67.6328C46.1464 67.6328 47.9593 65.8207 47.9593 63.5921C47.9593 61.3643 46.1464 59.5522 43.9186 59.5522C41.6908 59.5522 39.8779 61.3643 39.8779 63.5921C39.8779 65.8207 41.6908 67.6328 43.9186 67.6328ZM43.9186 62.6284C44.4505 62.6284 44.8831 63.061 44.8831 63.5921C44.8831 64.124 44.4505 64.5566 43.9186 64.5566C43.3867 64.5566 42.9541 64.124 42.9541 63.5921C42.9541 63.061 43.3867 62.6284 43.9186 62.6284Z" fill="#55384C"/>
<path d="M62.7438 67.6328C64.9716 67.6328 66.7845 65.8207 66.7845 63.5921C66.7845 61.3643 64.9716 59.5522 62.7438 59.5522C60.516 59.5522 58.7031 61.3643 58.7031 63.5921C58.7031 65.8207 60.516 67.6328 62.7438 67.6328ZM62.7438 62.6284C63.2757 62.6284 63.7083 63.061 63.7083 63.5921C63.7083 64.124 63.2757 64.5566 62.7438 64.5566C62.2119 64.5566 61.7793 64.124 61.7793 63.5921C61.7793 63.061 62.2119 62.6284 62.7438 62.6284Z" fill="#55384C"/>
<path d="M32.8232 25.8589H73.8389C75.2528 25.8589 76.4023 24.7093 76.4023 23.2954V18.5097C76.4023 18.4985 76.4023 18.4873 76.4015 18.4753C76.4015 18.4721 76.4015 18.4689 76.4015 18.4649C76.4015 18.456 76.4007 18.4472 76.4007 18.4384C76.4007 18.4328 76.3999 18.4272 76.3999 18.4216C76.3991 18.4144 76.3991 18.4072 76.3983 18.4C76.3983 18.3944 76.3975 18.388 76.3967 18.3815C76.3967 18.3783 76.3967 18.3751 76.3959 18.3711C76.3695 18.0723 76.2573 17.7976 76.0835 17.5724C76.0827 17.5716 76.0827 17.5708 76.0819 17.57C76.0771 17.5644 76.0723 17.558 76.0675 17.5524C76.0659 17.55 76.0643 17.5476 76.0627 17.546C76.0555 17.5372 76.0483 17.5284 76.0411 17.5196C76.0378 17.5156 76.0354 17.5124 76.0322 17.5092C76.029 17.5052 76.025 17.5012 76.0218 17.4971C76.017 17.4915 76.013 17.4867 76.0082 17.4819C76.0058 17.4787 76.0034 17.4763 76.001 17.4731C75.9938 17.4659 75.9874 17.4587 75.9802 17.4515C75.9778 17.4483 75.9754 17.4459 75.973 17.4435C75.9674 17.4379 75.9617 17.4323 75.9561 17.4267C75.9537 17.4242 75.9521 17.4218 75.9497 17.4194C75.9425 17.4122 75.9345 17.4042 75.9273 17.397C75.9249 17.3954 75.9233 17.3938 75.9209 17.3922C75.9153 17.3866 75.9097 17.381 75.9033 17.3754C75.9001 17.3722 75.8969 17.3698 75.8937 17.3666C75.8888 17.3626 75.8832 17.3578 75.8784 17.353C75.8736 17.3489 75.868 17.3441 75.8624 17.3401C75.8576 17.3353 75.8528 17.3313 75.848 17.3273C75.8432 17.3233 75.8384 17.3193 75.8336 17.3153C75.8312 17.3137 75.8288 17.3113 75.8256 17.3089C75.7439 17.2432 75.6549 17.1855 75.5604 17.1375L61.7793 9.77147V4.83838C61.7793 3.98923 61.0912 3.30029 60.2412 3.30029C59.3913 3.30029 58.7031 3.98923 58.7031 4.83838V10.0791C58.7031 11.0268 59.2222 11.8927 60.0578 12.3398L68.7239 16.9716H37.9382L46.6035 12.3398C47.4399 11.8927 47.959 11.0268 47.959 10.0791V4.83838C47.959 3.98923 47.27 3.30029 46.4209 3.30029C45.5709 3.30029 44.8828 3.98923 44.8828 4.83838V9.77147L31.1017 17.1383C31.0072 17.1863 30.9183 17.244 30.8357 17.3097C30.8333 17.3121 30.8309 17.3137 30.8285 17.3161C30.8229 17.3201 30.8181 17.3241 30.8133 17.3281C30.8085 17.3321 30.8037 17.3361 30.7989 17.3401C30.7941 17.3449 30.7885 17.3489 30.7837 17.3538C30.7781 17.3586 30.7733 17.3626 30.7685 17.3674C30.7653 17.3706 30.762 17.373 30.7588 17.3762C30.7524 17.3818 30.7468 17.3874 30.7404 17.393C30.7388 17.3946 30.7364 17.3962 30.7348 17.3978C30.7276 17.405 30.7196 17.413 30.7124 17.4202C30.71 17.4226 30.7076 17.4242 30.706 17.4267C30.7004 17.4323 30.6948 17.4387 30.6891 17.4443C30.6867 17.4467 30.6843 17.4491 30.6819 17.4515C30.6747 17.4587 30.6675 17.4667 30.6611 17.4739C30.6587 17.4771 30.6563 17.4795 30.6539 17.4827C30.6491 17.4875 30.6443 17.4923 30.6403 17.4979C30.6371 17.5012 30.6331 17.5052 30.6299 17.5092C30.6267 17.5132 30.6243 17.5164 30.6211 17.5204C30.6138 17.5284 30.6066 17.5372 30.5994 17.546C30.5978 17.5484 30.5962 17.5508 30.5938 17.5532C30.589 17.5588 30.585 17.5652 30.5802 17.5708C30.5794 17.5716 30.5786 17.5724 30.5786 17.5732C30.4048 17.7984 30.2926 18.0723 30.2654 18.3719C30.2654 18.3751 30.2654 18.3791 30.2646 18.3823C30.2646 18.3888 30.2638 18.3944 30.2638 18.4008C30.263 18.408 30.2622 18.4152 30.2622 18.4224C30.2622 18.428 30.2614 18.4336 30.2614 18.4384C30.2606 18.4472 30.2606 18.4568 30.2606 18.4657C30.2606 18.4689 30.2598 18.4729 30.2598 18.4761V18.5105V23.2962C30.2598 24.7093 31.4093 25.8589 32.8232 25.8589ZM73.3262 22.7827H33.3359V20.0478H73.3262V22.7827Z" fill="#55384C"/>
<path d="M93.3213 60.7632H85.8359C84.986 60.7632 84.2979 61.4513 84.2979 62.3013C84.2979 63.1504 84.986 63.8394 85.8359 63.8394H93.3213C94.1712 63.8394 94.8594 63.1504 94.8594 62.3013C94.8594 61.4513 94.1712 60.7632 93.3213 60.7632Z" fill="#55384C"/>
<path d="M20.8262 60.7632H13.3408C12.4909 60.7632 11.8027 61.4513 11.8027 62.3013C11.8027 63.1504 12.4909 63.8394 13.3408 63.8394H20.8262C21.6761 63.8394 22.3643 63.1504 22.3643 62.3013C22.3643 61.4513 21.6761 60.7632 20.8262 60.7632Z" fill="#55384C"/>
<path d="M78.3506 81.9214V88.3725C78.3506 89.2225 79.0387 89.9106 79.8887 89.9106C80.7386 89.9106 81.4268 89.2225 81.4268 88.3725V81.9214C81.4268 81.0714 80.7386 80.3833 79.8887 80.3833C79.0387 80.3833 78.3506 81.0714 78.3506 81.9214Z" fill="#55384C"/>
<path d="M28.3115 88.3725V81.9214C28.3115 81.0714 27.6234 80.3833 26.7734 80.3833C25.9235 80.3833 25.2354 81.0714 25.2354 81.9214V88.3725C25.2354 89.2225 25.9235 89.9106 26.7734 89.9106C27.6234 89.9106 28.3115 89.2225 28.3115 88.3725Z" fill="#55384C"/>
<path d="M38.5654 97.9058H68.0967C69.5106 97.9058 70.6602 96.7562 70.6602 95.3423V77.5005C70.6602 76.0874 69.5106 74.937 68.0967 74.937H38.5654C37.1515 74.937 36.002 76.0874 36.002 77.5005V95.3423C36.002 96.7562 37.1515 97.9058 38.5654 97.9058ZM39.0781 78.0132H67.584V94.8296H39.0781V78.0132Z" fill="#55384C"/>
</g>
<defs>
<clipPath id="clip0_28_651">
<rect width="105" height="105" fill="white" transform="translate(0.831055 0.966309)"/>
</clipPath>
</defs>
</svg>
