<svg width="84" height="85" viewBox="0 0 84 85" fill="none" xmlns="http://www.w3.org/2000/svg">
<path d="M42 77.5C42 77.5 14 56.5 14 35.5C14 18 28 7.5 42 7.5C56 7.5 70 18 70 35.5C70 56.5 42 77.5 42 77.5ZM42 46C44.7848 46 47.4555 44.8938 49.4246 42.9246C51.3938 40.9555 52.5 38.2848 52.5 35.5C52.5 32.7152 51.3938 30.0445 49.4246 28.0754C47.4555 26.1062 44.7848 25 42 25C39.2152 25 36.5445 26.1062 34.5754 28.0754C32.6062 30.0445 31.5 32.7152 31.5 35.5C31.5 38.2848 32.6062 40.9555 34.5754 42.9246C36.5445 44.8938 39.2152 46 42 46Z" stroke="#55384C" stroke-width="6"/>
</svg>
