<svg width="100" height="101" viewBox="0 0 100 101" fill="none" xmlns="http://www.w3.org/2000/svg">
<path d="M49.9998 94.25C57.5356 94.25 64.9437 92.3035 71.5062 88.5991C78.0688 84.8946 83.5631 79.5579 87.4569 73.1059C91.3508 66.654 93.512 59.3057 93.7312 51.773C93.9505 44.2403 92.2203 36.7787 88.7083 30.1112C88.5123 29.7484 88.1807 29.4777 87.786 29.3583C87.3913 29.2389 86.9653 29.2803 86.6011 29.4736C86.2368 29.667 85.9637 29.9964 85.8414 30.3903C85.719 30.7841 85.7573 31.2104 85.9479 31.5761C89.024 37.4093 90.6294 43.9054 90.6248 50.5C88.3982 104.386 11.6009 104.387 9.37476 50.4997C8.99848 20.3722 42.5001 0.178665 68.924 14.5524C69.2901 14.7466 69.7184 14.7874 70.1146 14.6658C70.5108 14.5443 70.8425 14.2703 71.0367 13.9042C71.2309 13.5381 71.2718 13.1098 71.1502 12.7136C71.0287 12.3173 70.7547 11.9856 70.3885 11.7914C64.104 8.47623 57.1051 6.74565 49.9998 6.75001C-8.03216 9.14776 -8.03148 91.8533 49.9998 94.25Z" fill="#55384C"/>
<path d="M50.0002 38C51.3532 37.9991 52.6968 38.2237 53.9759 38.6645C54.3676 38.7994 54.7969 38.7732 55.1693 38.5916C55.5418 38.4101 55.8268 38.088 55.9618 37.6963C56.6483 34.9323 51.7818 35.0426 50.0004 34.8748C29.2742 35.7314 29.2751 65.2693 50.0004 66.125C54.1429 66.1204 58.1145 64.4727 61.0437 61.5434C63.973 58.6141 65.6206 54.6425 65.6252 50.5C65.4657 48.6862 65.5713 43.8704 62.8193 44.5543C62.6253 44.621 62.4463 44.7253 62.2926 44.8613C62.1388 44.9972 62.0134 45.1621 61.9235 45.3466C61.8335 45.531 61.7809 45.7314 61.7684 45.9362C61.756 46.1411 61.784 46.3463 61.851 46.5403C62.2858 47.815 62.5052 49.1532 62.5002 50.5C61.8737 67.0573 38.1267 67.0579 37.5002 50.4998C37.5041 47.1858 38.8223 44.0086 41.1656 41.6653C43.509 39.3219 46.6862 38.0038 50.0002 38Z" fill="#55384C"/>
<path d="M64.9606 26.6482C65.0602 26.4688 65.1234 26.2715 65.1467 26.0676C65.1699 25.8638 65.1528 25.6573 65.0963 25.4601C65.0397 25.2628 64.9449 25.0787 64.8172 24.9181C64.6894 24.7575 64.5313 24.6237 64.3518 24.5242C59.959 22.0927 55.021 20.8156 50.0002 20.8125C10.6214 22.44 10.6219 78.5607 50.0004 80.1875C55.1647 80.1905 60.2403 78.8455 64.7254 76.2855C69.2105 73.7255 72.9498 70.0392 75.5734 65.591C78.1971 61.1429 79.6143 56.0869 79.6849 50.9231C79.7555 45.7593 78.477 40.6665 75.976 36.1483C75.8769 35.968 75.7433 35.809 75.5827 35.6805C75.422 35.552 75.2376 35.4565 75.04 35.3994C74.8424 35.3423 74.6354 35.3249 74.4311 35.348C74.2267 35.3711 74.0288 35.4343 73.8489 35.5341C73.669 35.6338 73.5106 35.7681 73.3827 35.9292C73.2549 36.0903 73.1601 36.2751 73.1038 36.473C73.0475 36.6708 73.0308 36.8778 73.0548 37.0821C73.0787 37.2864 73.1427 37.484 73.2431 37.6635C83.147 54.8398 69.8425 77.4065 49.9997 77.0622C42.9574 77.0544 36.2058 74.2533 31.2261 69.2737C26.2465 64.294 23.4455 57.5423 23.4377 50.5C23.0973 30.6578 45.6581 17.3517 62.8369 27.2575C63.0162 27.3573 63.2135 27.4208 63.4175 27.4442C63.6214 27.4676 63.828 27.4505 64.0253 27.3939C64.2226 27.3373 64.4068 27.2423 64.5673 27.1143C64.7278 26.9863 64.8615 26.828 64.9606 26.6482Z" fill="#55384C"/>
<path d="M68.0059 22.2163L68.5797 29.7106L48.8951 49.3953C48.612 49.6904 48.4558 50.0846 48.46 50.4934C48.4643 50.9023 48.6286 51.2932 48.9177 51.5823C49.2068 51.8714 49.5977 52.0356 50.0066 52.0398C50.4154 52.044 50.8096 51.8878 51.1046 51.6047L70.7892 31.9201L78.2835 32.4939C78.5081 32.5111 78.7337 32.4795 78.9449 32.4013C79.1562 32.3231 79.348 32.2001 79.5072 32.0408L90.8796 20.6692C91.0865 20.4561 91.2289 20.1888 91.2903 19.8982C91.3517 19.6076 91.3295 19.3055 91.2264 19.027C91.1232 18.7484 90.9434 18.5048 90.7076 18.3242C90.4717 18.1436 90.1896 18.0335 89.8938 18.0065L83.0198 17.4801L82.4934 10.6059C82.4663 10.3102 82.3561 10.0282 82.1754 9.79246C81.9948 9.55674 81.7512 9.37695 81.4727 9.27387C81.1942 9.17078 80.8922 9.14861 80.6016 9.20993C80.3111 9.27124 80.0438 9.41353 79.8307 9.62035L68.4591 20.9926C68.2997 21.1517 68.1766 21.3435 68.0984 21.5548C68.0202 21.766 67.9886 21.9917 68.0059 22.2163ZM79.6369 14.2329C80.2622 21.5095 79.0316 20.2286 86.2669 20.8628L77.8059 29.3231L71.6482 28.8516L71.1767 22.6939L79.6369 14.2329Z" fill="#55384C"/>
</svg>
