<svg width="84" height="84" viewBox="0 0 84 84" fill="none" xmlns="http://www.w3.org/2000/svg">
<path d="M56.1821 6.25439L59.5631 7.1679C63.6979 8.28677 67.467 10.4701 70.4946 13.5002C73.5223 16.5303 75.7026 20.3012 76.8181 24.4369L77.7281 27.8144L70.9731 29.6379L70.0596 26.2604C69.2625 23.3063 67.7048 20.6128 65.5418 18.4486C63.3788 16.2845 60.6862 14.7252 57.7326 13.9264L54.3551 13.0094L56.1821 6.25439ZM3.5001 6.99989H33.5301L38.7346 30.4149L32.2246 36.9249C36.0523 42.882 41.1171 47.9456 47.0751 51.7719L53.5851 45.2654L77.0001 50.4699V80.4999H73.5001C60.0263 80.5229 46.835 76.6372 35.5251 69.3139C27.1854 63.9168 20.0832 56.8146 14.6861 48.4749C7.36278 37.165 3.47713 23.9737 3.5001 10.4999V6.99989ZM10.5946 13.9999C11.1844 24.9196 14.6221 35.4947 20.5661 44.6739C25.4252 52.1813 31.8188 58.5748 39.3261 63.4339C48.5053 69.3779 59.0804 72.8156 70.0001 73.4054V56.0839L55.8146 52.9339L48.2056 60.5464L45.8851 59.2269C37.0743 54.22 29.78 46.9257 24.7731 38.1149L23.4536 35.7944L31.0661 28.1854L27.9161 13.9999H10.5946ZM52.9831 18.0774L56.3641 18.9909C58.4315 19.5503 60.3161 20.642 61.8299 22.1571C63.3437 23.6721 64.4338 25.5576 64.9916 27.6254L65.9016 31.0029L59.1466 32.8264L58.2331 29.4489C57.9937 28.5626 57.5262 27.7546 56.877 27.1055C56.2279 26.4563 55.4199 25.9888 54.5336 25.7494L51.1561 24.8359L52.9831 18.0774Z" fill="#55384C"/>
</svg>
