<svg width="51" height="50" viewBox="0 0 51 50" fill="none" xmlns="http://www.w3.org/2000/svg">
<g id="quality 1" clip-path="url(#clip0_558_174)">
<path id="Vector" d="M31.1553 20.3555L23.6427 27.4512L20.0373 23.742C19.6376 23.3305 18.9794 23.3211 18.5683 23.7208C18.1568 24.1209 18.1474 24.7787 18.5471 25.1902L22.8714 29.6292C23.2732 30.0334 23.9224 30.0473 24.3408 29.6602L32.6039 21.8664C32.8045 21.6771 32.9218 21.4158 32.9295 21.1403C32.9372 20.8647 32.8351 20.5973 32.6454 20.397C32.2432 19.979 31.5802 19.9607 31.1553 20.3555Z" fill="#55384C"/>
<path id="Vector_2" d="M25.5806 9.4353C16.9948 9.4353 10.0134 16.4167 10.0134 25.0025C10.0134 33.5888 16.9948 40.5701 25.5806 40.5701C34.1669 40.5701 41.1482 33.5888 41.1482 25.0025C41.1482 16.4167 34.1669 9.4353 25.5806 9.4353ZM25.5806 38.4861C18.141 38.4861 12.0974 32.432 12.0974 25.0025C12.0974 17.573 18.141 11.5193 25.5806 11.5193C33.0276 11.5193 39.0643 17.5559 39.0643 25.0025C39.0643 32.4491 33.0276 38.4861 25.5806 38.4861Z" fill="#55384C"/>
<path id="Vector_3" d="M47.0042 19.2714L47.3481 13.0923C47.3721 12.6776 47.1466 12.288 46.775 12.1024L41.2732 9.3204L38.4912 3.8186C38.3019 3.45024 37.9148 3.22596 37.5013 3.2455L31.3116 3.57926L26.1538 0.171624C25.8062 -0.0575334 25.3556 -0.0575334 25.0076 0.171624L19.8497 3.57926L13.671 3.23533C13.2558 3.2109 12.8667 3.4364 12.6811 3.80842L9.89868 9.31022L4.39729 12.0923C4.02852 12.2811 3.80465 12.6682 3.82419 13.0822L4.16772 19.2612L0.760491 24.4191C0.531334 24.7667 0.531334 25.2173 0.760491 25.5653L4.15755 30.7333L3.81361 36.9124C3.78959 37.3272 4.01468 37.7167 4.38671 37.9023L9.88851 40.6844L12.6705 46.1862C12.8594 46.5549 13.2465 46.7788 13.6604 46.7593L19.8395 46.4153L24.9974 49.8226C25.343 50.059 25.798 50.059 26.1436 49.8226L31.3014 46.4153L37.4805 46.7593C37.8953 46.7833 38.2844 46.5578 38.4704 46.1862L41.2525 40.6844L46.7543 37.9023C47.1226 37.7131 47.3469 37.3264 47.3274 36.9124L46.9834 30.7333L50.3907 25.5755C50.6198 25.2279 50.6198 24.7769 50.3907 24.4293L47.0042 19.2714ZM45.0659 29.879C44.9389 30.0654 44.8799 30.2897 44.8994 30.5148L45.2222 36.3601L40.0228 38.9858C39.8246 39.0852 39.6638 39.2463 39.5645 39.4446L36.9384 44.6439L31.093 44.3212C30.8692 44.313 30.6482 44.3708 30.4573 44.4876L25.5807 47.7076L20.7045 44.4876C20.5351 44.3733 20.3357 44.3114 20.1314 44.3106H20.0793L14.2335 44.6338L11.6078 39.434C11.5085 39.2358 11.3477 39.075 11.1491 38.9757L5.93911 36.3601L6.26229 30.5148C6.27043 30.2909 6.21223 30.0699 6.09541 29.879L2.87582 25.0024L6.09541 20.1258C6.22281 19.9398 6.28183 19.7151 6.26229 19.4904L5.93911 13.6447L11.1389 11.0189C11.3371 10.9196 11.4979 10.7588 11.5972 10.5606L14.2229 5.36083L20.0687 5.68401C20.2921 5.69174 20.5132 5.63394 20.7045 5.51713L25.5807 2.29753L30.4573 5.51713C30.6437 5.64453 30.8684 5.70354 31.093 5.68401L36.9384 5.36083L39.5645 10.5606C39.6638 10.7588 39.8246 10.9196 40.0228 11.0189L45.2222 13.6447L44.8994 19.4904C44.8913 19.7139 44.9495 19.9349 45.0659 20.1258L48.2859 25.0024L45.0659 29.879Z" fill="#55384C"/>
</g>
<defs>
<clipPath id="clip0_558_174">
<rect width="50" height="50" fill="white" transform="translate(0.5)"/>
</clipPath>
</defs>
</svg>
