<svg width="51" height="50" viewBox="0 0 51 50" fill="none" xmlns="http://www.w3.org/2000/svg">
<g id="Group">
<g id="Group_2">
<path id="Vector" d="M47.8134 30.0055C48.3389 29.5272 48.6564 28.843 48.6564 28.0963V21.9037C48.6564 20.4771 47.4971 19.3165 46.0721 19.3165H44.4956C44.0606 17.7917 43.4516 16.3224 42.6792 14.9353L43.794 13.8204C44.2824 13.332 44.5511 12.6812 44.5505 11.9881C44.5498 11.2964 44.2809 10.6479 43.794 10.163L39.4157 5.78462C38.9292 5.29624 38.2794 5.0272 37.5861 5.0272C36.8928 5.0272 36.243 5.29624 35.7574 5.78364L34.6426 6.89849C33.2556 6.12622 31.7863 5.51704 30.2616 5.08198V3.50552C30.2616 2.08052 29.1011 0.921143 27.6745 0.921143H21.482C20.0555 0.921143 18.8949 2.08052 18.8949 3.50552V5.08198C17.3702 5.51694 15.901 6.12612 14.5139 6.89849L13.3991 5.78364C12.9106 5.29517 12.2596 5.0311 11.5669 5.0272C10.8752 5.02788 10.2267 5.29683 9.7418 5.78364L5.36338 10.1621C4.87559 10.648 4.60664 11.2964 4.60596 11.9882C4.60527 12.6813 4.87393 13.332 5.3624 13.8205L6.47725 14.9354C5.70498 16.3224 5.0958 17.7917 4.66084 19.3166H3.08438C1.65938 19.3165 0.5 20.4771 0.5 21.9036V28.0962C0.5 29.5228 1.65938 30.6834 3.08438 30.6834H4.66084C5.0958 32.2083 5.70498 33.6776 6.47725 35.0646L5.36338 36.1785C4.875 36.665 4.60596 37.3148 4.60596 38.0082C4.60596 38.7015 4.8749 39.3512 5.3624 39.8369L9.74072 44.2153C10.2266 44.7031 10.8751 44.9721 11.5668 44.9727C12.2557 44.9711 12.9105 44.7047 13.399 44.2163L14.5139 43.1014C15.9009 43.8737 17.3701 44.4829 18.8948 44.9179V46.4944C18.8948 47.9194 20.0554 49.0788 21.4819 49.0788H27.6744C29.101 49.0788 30.2615 47.9194 30.2615 46.4944V44.9175C31.2455 44.6362 32.2102 44.2807 33.1418 43.8578C34.979 45.7629 37.5561 46.95 40.4054 46.95C42.0595 46.95 43.7018 46.5401 45.1545 45.7647C45.5113 45.5742 45.6462 45.1305 45.4558 44.7737C45.2652 44.4167 44.8214 44.2821 44.4647 44.4724C43.2235 45.135 41.8198 45.4852 40.4054 45.4852C35.647 45.4852 31.7757 41.6138 31.7757 36.8552C31.7757 32.0966 35.647 28.2252 40.4054 28.2252C45.1639 28.2252 49.0351 32.0966 49.0351 36.8552C49.0351 38.9709 48.2593 41.0081 46.8507 42.5916C46.5818 42.8938 46.6089 43.3567 46.9111 43.6255C47.2133 43.8944 47.6762 43.8674 47.9451 43.5651C49.5927 41.7132 50.5 39.3302 50.5 36.8551C50.5 34.2138 49.4798 31.8065 47.8134 30.0055ZM39.1973 26.833C39.2726 26.2259 39.3108 25.6122 39.3108 24.9986C39.3108 16.8755 32.7012 10.2668 24.5768 10.2668C22.1679 10.2668 19.7764 10.8624 17.6608 11.9888C17.3038 12.179 17.1685 12.6225 17.3586 12.9795C17.5488 13.3367 17.9925 13.4719 18.3494 13.2818C20.2538 12.2676 22.4072 11.7316 24.5769 11.7316C31.8936 11.7316 37.8461 17.6831 37.8461 24.9985C37.8461 25.7157 37.7877 26.4326 37.674 27.1361C33.4308 28.3303 30.311 32.2351 30.311 36.8551C30.311 36.8925 30.312 36.9297 30.3125 36.967C29.6315 37.2952 28.931 37.5615 28.2132 37.7659V30.2778C31.2354 28.9417 33.232 25.9171 33.232 22.5957C33.232 19.8217 31.8562 17.2277 29.5523 15.6572C29.22 15.4299 28.2086 14.7383 27.3743 15.2189C26.5581 15.6889 26.6418 16.8189 26.6819 17.3619C26.6859 17.4153 26.6898 17.4592 26.6902 17.4882V22.0919C26.6902 23.2919 25.766 24.2984 24.577 24.4052C23.3879 24.2985 22.4637 23.2919 22.4637 22.0919V17.49C22.4642 17.4592 22.4681 17.4151 22.4721 17.3614C22.5127 16.8185 22.5971 15.689 21.7817 15.219C20.948 14.7385 19.9366 15.43 19.6051 15.6567C17.3005 17.2278 15.9246 19.8218 15.9246 22.5958C15.9246 25.9172 17.9211 28.9417 20.9435 30.2779V37.7623C15.3891 36.1781 11.3104 31.0558 11.3104 24.9986C11.3104 21.1391 12.9867 17.4788 15.9093 14.956C16.2155 14.6917 16.2494 14.2292 15.9852 13.923C15.7208 13.6167 15.2583 13.5827 14.9521 13.8471C11.7068 16.6484 9.84551 20.7129 9.84551 24.9986C9.84551 33.1232 16.4539 39.7331 24.5769 39.7331C26.6307 39.7331 28.6007 39.323 30.4483 38.5156C30.7032 40.0493 31.3044 41.4674 32.1696 42.686C31.2555 43.0782 30.3099 43.4011 29.3474 43.6478C29.0234 43.7309 28.7968 44.0228 28.7968 44.3573V46.4944C28.7968 47.1117 28.2934 47.6139 27.6745 47.6139H21.482C20.8632 47.6139 20.3598 47.1117 20.3598 46.4944V44.3573C20.3598 44.0226 20.1329 43.7305 19.8087 43.6476C18.0375 43.195 16.341 42.4916 14.7664 41.557C14.4786 41.3863 14.1114 41.4323 13.8747 41.6689L12.3633 43.1804C12.1521 43.3916 11.8703 43.5079 11.5694 43.5079C11.569 43.5079 11.5687 43.5079 11.5683 43.5079C11.2684 43.5076 10.9879 43.3916 10.7775 43.1804L6.39727 38.8C6.18682 38.5904 6.0709 38.3092 6.0709 38.0082C6.0709 37.7072 6.18682 37.4259 6.39824 37.2153L7.90977 35.7038C8.14648 35.467 8.19258 35.1 8.02168 34.8121C7.08721 33.2374 6.38389 31.541 5.93115 29.7697C5.84824 29.4455 5.55615 29.2186 5.22148 29.2186H3.08438C2.46709 29.2186 1.96484 28.7151 1.96484 28.0962V21.9036C1.96484 21.2847 2.46709 20.7812 3.08438 20.7812H5.22139C5.55605 20.7812 5.84814 20.5543 5.93105 20.2301C6.38379 18.4587 7.08711 16.7623 8.02158 15.1877C8.19248 14.8999 8.14639 14.5328 7.90967 14.296L6.39814 12.7845C6.18672 12.5731 6.07051 12.2908 6.0708 11.9895C6.07109 11.6896 6.18701 11.4091 6.39814 11.1988L10.7784 6.81841C10.9878 6.60825 11.2683 6.49233 11.5682 6.49204H11.5693C11.8701 6.49204 12.1521 6.60825 12.3632 6.81948L13.8746 8.33101C14.1112 8.56772 14.4784 8.61382 14.7663 8.44292C16.341 7.50835 18.0375 6.80503 19.8086 6.35229C20.1328 6.26938 20.3597 5.97729 20.3597 5.64263V3.50552C20.3597 2.88823 20.8631 2.38599 21.4819 2.38599H27.6744C28.2933 2.38599 28.7967 2.88823 28.7967 3.50552V5.64263C28.7967 5.97729 29.0235 6.26938 29.3478 6.35229C31.1189 6.80493 32.8154 7.50835 34.39 8.44292C34.6779 8.61372 35.045 8.56763 35.2817 8.33101L36.7941 6.81851C37.0038 6.60806 37.2851 6.49214 37.586 6.49214C37.887 6.49214 38.1682 6.60806 38.3789 6.81958L42.7592 11.2C42.9693 11.4093 43.0853 11.6898 43.0855 11.9897C43.0858 12.291 42.9695 12.5734 42.7581 12.7847L41.2467 14.2962C41.01 14.533 40.9639 14.9 41.1348 15.1879C42.0693 16.7626 42.7727 18.4592 43.2253 20.2303C43.3082 20.5545 43.6003 20.7814 43.935 20.7814H46.072C46.6893 20.7814 47.1915 21.2849 47.1915 21.9038V28.0964C47.1915 28.4544 47.0139 28.7884 46.734 28.997C45.0016 27.599 42.7997 26.7605 40.4055 26.7605C39.9966 26.7604 39.5936 26.7855 39.1973 26.833ZM21.9301 29.0981C19.2141 28.0924 17.3894 25.4792 17.3894 22.5957C17.3894 20.3066 18.5261 18.165 20.431 16.8665C20.7169 16.671 20.9043 16.5849 21.0137 16.547C21.0363 16.691 21.0356 16.927 21.0113 17.2522C21.0043 17.3458 20.9988 17.4199 20.9988 17.4882V22.0919C20.9988 24.0759 22.5486 25.7357 24.5271 25.8706C24.5604 25.8728 24.5937 25.8728 24.6269 25.8706C26.6054 25.7357 28.1552 24.0759 28.1552 22.0919V17.4882C28.1552 17.4203 28.1497 17.3468 28.1429 17.2538C28.1187 16.9272 28.1183 16.6904 28.1414 16.5465C28.2508 16.5842 28.4388 16.6703 28.7266 16.867C30.6306 18.1651 31.7673 20.3067 31.7673 22.5958C31.7673 25.4793 29.9425 28.0925 27.2266 29.0982C26.9393 29.2045 26.7484 29.4787 26.7484 29.785V38.0924C26.038 38.2084 25.3137 38.2682 24.5771 38.2682C23.8386 38.2682 23.1144 38.2066 22.4084 38.0899V29.7849C22.4081 29.4786 22.2174 29.2045 21.9301 29.0981Z" fill="#55384C"/>
<path id="Vector_2" d="M45.3372 32.3674C44.2747 31.4807 42.6885 31.6216 41.8014 32.6806L39.2518 35.7206L38.8306 35.3635C37.7755 34.4691 36.1886 34.6005 35.2923 35.6573C34.4004 36.7136 34.532 38.3001 35.5855 39.1936L37.9313 41.1849C38.3947 41.5767 38.9476 41.7803 39.5421 41.7802C39.6164 41.7802 39.6915 41.7771 39.7671 41.7706C40.4505 41.7128 41.043 41.4042 41.4791 40.8801L45.6479 35.9055C46.0786 35.3916 46.2835 34.7403 46.2249 34.0716C46.1662 33.403 45.8513 32.7981 45.3372 32.3674ZM44.5252 34.9647L40.3546 39.9412C40.1655 40.1685 39.9395 40.2859 39.6432 40.311C39.3474 40.3359 39.1041 40.2583 38.878 40.0672L36.5331 38.0766C36.094 37.7042 36.0393 37.0429 36.4103 36.6036C36.6173 36.3597 36.9127 36.2341 37.2096 36.2341C37.4482 36.2341 37.6878 36.3151 37.8834 36.4809L38.8661 37.3142C39.0148 37.4402 39.2077 37.5015 39.4018 37.4854C39.5961 37.4689 39.7758 37.3756 39.901 37.2262L42.9241 33.6215C43.2938 33.1801 43.9554 33.1221 44.3975 33.4911C44.6104 33.6695 44.7412 33.9211 44.7656 34.1996C44.7901 34.4788 44.7048 34.7505 44.5252 34.9647Z" fill="#55384C"/>
</g>
</g>
</svg>
