<svg width="100" height="100" viewBox="0 0 100 100" fill="none" xmlns="http://www.w3.org/2000/svg">
<path fill-rule="evenodd" clip-rule="evenodd" d="M89.3311 31.6107C88.9957 31.2407 88.5197 31.0373 88.0113 31.0373H87.8491C87.0161 31.0373 86.3129 31.5815 86.1181 32.3897L81.7149 49.9797C81.0225 52.7417 79.7567 54.9551 77.7229 56.9457L73.1575 61.4115C73.5145 62.1915 73.6551 63.0603 73.5687 63.9421C73.4281 65.2263 72.8115 66.3773 71.8053 67.1877L60.3809 76.4365C60.1429 76.6301 59.8617 76.7221 59.5695 76.7221C59.2017 76.7221 58.8339 76.5599 58.5741 76.2461C58.1305 75.6955 58.2171 74.8873 58.7689 74.4415L70.1933 65.1917C70.6585 64.8141 70.9507 64.2753 71.0155 63.6727C71.0805 63.0701 70.9073 62.4815 70.5287 62.0153C69.7389 61.0481 68.3217 60.8989 67.3481 61.6821L54.3009 72.2465C52.9919 73.3035 51.9857 74.5477 51.2825 75.9453L51.4773 89.4631C51.5531 89.4653 51.6287 89.4685 51.7045 89.4717C54.8959 89.5713 58.1523 89.5367 61.3115 89.5041C62.8909 89.4869 64.5355 89.4705 66.1475 89.4705C66.9589 89.4705 67.6405 88.8063 67.6513 87.9895C67.7271 83.0877 68.3437 82.2805 71.6217 78.8283C72.1409 78.2799 72.7251 77.6587 73.4067 76.9275C75.0187 75.1749 76.6089 73.8095 78.1561 72.4919C80.6877 70.3281 83.0677 68.2845 84.9827 64.8767C88.3257 58.8897 88.9207 48.0689 89.3967 39.3751C89.5157 37.0707 89.6347 34.8961 89.7969 32.9715C89.8395 32.4631 89.6773 31.9795 89.3311 31.6107ZM48.9019 89.4707L48.7179 75.9215C48.1013 74.5173 47.2789 73.5327 45.6887 72.2465L32.6415 61.6821C31.6787 60.8989 30.2507 61.0481 29.4609 62.0153C29.0931 62.4815 28.9199 63.0701 28.9741 63.6727C29.0391 64.2753 29.3311 64.8141 29.7963 65.1917L41.2207 74.4415C41.7725 74.8873 41.8589 75.6955 41.4155 76.2461C41.1667 76.5609 40.7881 76.7243 40.4203 76.7243C40.1281 76.7243 39.8469 76.6301 39.6089 76.4387L28.1845 67.1877C27.1891 66.3773 26.5617 65.2263 26.4211 63.9421C26.3345 63.0603 26.4751 62.1917 26.8431 61.4115L22.2669 56.9457C20.2331 54.9551 18.9673 52.7415 18.2749 49.9797L13.8825 32.3897C13.6769 31.5815 12.9845 31.0373 12.1515 31.0373H11.9783C11.4699 31.0373 11.0047 31.2407 10.6585 31.6107C10.3123 31.9807 10.1501 32.4631 10.1933 32.9717C10.3555 34.8963 10.4745 37.0731 10.6045 39.3753C11.0805 48.0713 11.6647 58.8899 15.0185 64.8769C16.9225 68.2847 19.3135 70.3285 21.8451 72.4921C23.3813 73.8099 24.9717 75.1751 26.5945 76.9277C27.2653 77.6591 27.8495 78.2801 28.3687 78.8263C31.6467 82.2807 32.2633 83.0877 32.3391 87.9897C32.3499 88.8065 33.0315 89.4707 33.8429 89.4707H48.9019ZM92.3603 33.1837C92.1981 35.0727 92.0791 37.2299 91.9491 39.5137C91.4623 48.4725 90.8565 59.6233 87.2215 66.1295C85.0901 69.9387 82.5263 72.1273 79.8215 74.4435C78.3393 75.7135 76.8031 77.0269 75.2885 78.6671C74.6068 79.4115 74.0119 80.0401 73.4817 80.5951C70.4633 83.7823 70.2793 83.9727 70.2145 88.0307C70.1821 90.2409 68.3537 92.0391 66.1467 92.0391C64.5455 92.0391 62.9119 92.0553 61.3325 92.0727C59.7421 92.0899 58.1301 92.1073 56.4965 92.1073C54.8737 92.1073 53.2509 92.0899 51.6281 92.0391C51.2603 92.0261 50.9141 92.0099 50.5679 91.9849C50.4489 92.0195 50.3299 92.0391 50.2001 92.0391H33.8425C31.6355 92.0391 29.8071 90.2411 29.7747 88.0307C29.7099 83.9727 29.5259 83.7823 26.5075 80.5929C25.9775 80.0401 25.3823 79.4115 24.7007 78.6671C23.1861 77.0271 21.6499 75.7137 20.1677 74.4435C17.4631 72.1273 14.8991 69.9387 12.7787 66.1295C9.13285 59.6231 8.52685 48.4747 8.04005 39.5157C7.91025 37.2319 7.79125 35.0725 7.63985 33.1835C7.54245 31.9707 7.94285 30.7613 8.76505 29.8709C9.58725 28.9817 10.7557 28.4689 11.9783 28.4689H12.1515C14.1529 28.4689 15.8839 29.8255 16.3707 31.7663L20.7631 49.3585C21.3365 51.6391 22.3859 53.4653 24.0627 55.1087L28.4983 59.4481C30.2185 58.2819 32.5661 58.3153 34.2537 59.6851L47.3117 70.2505C48.3719 71.1083 49.2807 71.9685 50.0379 73.0503C50.7627 72.0247 51.6499 71.0877 52.6885 70.2505L65.7357 59.6851C66.7309 58.8781 67.9967 58.5059 69.2733 58.6411C70.0847 58.7265 70.8419 59.0045 71.4911 59.4481L75.9267 55.1087C77.6035 53.4653 78.6529 51.6391 79.2262 49.3585L83.6187 31.7663C84.1055 29.8255 85.8473 28.4689 87.8487 28.4689H88.0109C89.2335 28.4689 90.4017 28.9817 91.2239 29.8709C92.0465 30.7635 92.4575 31.9709 92.3603 33.1837ZM25.5987 36.2485C31.3109 32.5593 34.1779 25.6473 32.7497 18.9993C39.3923 20.4307 46.3055 17.5669 49.9945 11.8557C53.0561 16.5877 58.3249 19.3649 63.8207 19.3649C64.9567 19.3649 66.1033 19.2459 67.2501 18.9993C65.8113 25.6473 68.6781 32.5593 74.3903 36.2485C68.6781 39.9387 65.8111 46.8517 67.2501 53.4999C60.5967 52.0687 53.6835 54.9313 49.9945 60.6445C46.9437 55.9125 41.6749 53.1353 36.1683 53.1353C35.0323 53.1353 33.8855 53.2533 32.7497 53.4999C34.1779 46.8519 31.3109 39.9389 25.5987 36.2485ZM21.6391 36.2485C21.6391 35.7455 21.9311 35.2867 22.3963 35.0791C29.0389 32.0769 32.2303 24.3827 29.6555 17.5605C29.4717 17.0887 29.5907 16.5565 29.9477 16.1985C30.3047 15.8425 30.8349 15.7279 31.3109 15.9063C38.1267 18.4811 45.8295 15.2951 48.8261 8.64807C49.0317 8.18947 49.4861 7.89307 49.9945 7.89307C50.5029 7.89307 50.9573 8.18947 51.1629 8.64807C54.1705 15.2951 61.8625 18.4811 68.6891 15.9063C69.1543 15.7279 69.6845 15.8425 70.0415 16.1985C70.3985 16.5567 70.5175 17.0889 70.3445 17.5605C67.7589 24.3827 70.9503 32.0769 77.5929 35.0791C78.0581 35.2869 78.3503 35.7455 78.3503 36.2485C78.3503 36.7537 78.0581 37.2125 77.5929 37.4201C70.9503 40.4211 67.7589 48.1175 70.3445 54.9375C70.5177 55.4103 70.3987 55.9425 70.0415 56.3007C69.6845 56.6567 69.1543 56.7713 68.6891 56.5929C61.8625 54.0171 54.1705 57.2053 51.1629 63.8489C50.9573 64.3099 50.5029 64.6041 49.9945 64.6041C49.4859 64.6041 49.0317 64.3099 48.8261 63.8489C45.8293 57.2053 38.1265 54.0169 31.3109 56.5929C30.8349 56.7715 30.3047 56.6567 29.9477 56.3007C29.5907 55.9427 29.4717 55.4103 29.6555 54.9375C32.2303 48.1175 29.0389 40.4211 22.3963 37.4201C21.9313 37.2125 21.6391 36.7539 21.6391 36.2485ZM37.0989 36.2485C37.0989 29.1385 42.8869 23.3539 49.9947 23.3539C57.1025 23.3539 62.8905 29.1387 62.8905 36.2485C62.8905 43.3607 57.1025 49.1453 49.9947 49.1453C42.8869 49.1455 37.0989 43.3607 37.0989 36.2485ZM34.5349 36.2485C34.5349 27.7223 41.4697 20.7855 49.9947 20.7855C58.5197 20.7855 65.4545 27.7223 65.4545 36.2485C65.4545 44.7769 58.5197 51.7137 49.9947 51.7137C41.4695 51.7137 34.5349 44.7769 34.5349 36.2485ZM42.5297 37.9211C42.0213 37.4201 42.0213 36.6067 42.5297 36.1047C43.0273 35.6037 43.8387 35.6037 44.3365 36.1047L47.9283 39.6921L55.5553 30.0819C55.9881 29.5269 56.7995 29.4329 57.3511 29.8741C57.9137 30.3145 58.0001 31.1225 57.5675 31.6775L49.0425 42.4171C48.8153 42.7027 48.4799 42.8791 48.1121 42.8995C48.0905 42.9017 48.0689 42.9027 48.0363 42.9027C47.7009 42.9027 47.3763 42.7675 47.1275 42.5261L42.5297 37.9211Z" fill="#55384C"/>
</svg>
