<svg width="100" height="101" viewBox="0 0 100 101" fill="none" xmlns="http://www.w3.org/2000/svg">
<mask id="mask0_591_871" style="mask-type:luminance" maskUnits="userSpaceOnUse" x="0" y="0" width="100" height="101">
<path d="M0 0.500008H100V100.5H0V0.500008Z" fill="white"/>
</mask>
<g mask="url(#mask0_591_871)">
<path d="M39.3281 39.0879C39.0254 38.8926 38.6658 38.7813 38.2812 38.7813C37.2031 38.7813 36.3281 39.6563 36.3281 40.7344C36.3281 41.2461 36.5252 41.7129 36.8477 42.0605C37.2051 42.4473 37.7146 42.6875 38.2812 42.6875C39.3592 42.6875 40.2344 41.8125 40.2344 40.7344C40.2344 40.041 39.873 39.4336 39.3281 39.0879Z" fill="#55384C"/>
<path d="M50 2.45312V15.3438" stroke="#55384C" stroke-width="3" stroke-linecap="round" stroke-linejoin="round"/>
<path d="M50 85.6562V98.5469" stroke="#55384C" stroke-width="3" stroke-linecap="round" stroke-linejoin="round"/>
<path d="M12.9473 17.3535L21.2344 25.6406" stroke="#55384C" stroke-width="3" stroke-linecap="round" stroke-linejoin="round"/>
<path d="M78.7656 77.3125L87.0527 85.5996" stroke="#55384C" stroke-width="3" stroke-linecap="round" stroke-linejoin="round"/>
<path d="M87.0527 17.3535L78.7656 25.6406" stroke="#55384C" stroke-width="3" stroke-linecap="round" stroke-linejoin="round"/>
<path d="M21.2344 77.3125L12.9473 85.5996" stroke="#55384C" stroke-width="3" stroke-linecap="round" stroke-linejoin="round"/>
<path d="M92.9687 50.5C92.9687 50.5 75.8887 75.8906 50 75.8906C24.1113 75.8906 7.03125 50.5 7.03125 50.5C7.03125 50.5 24.1113 25.1094 50 25.1094C75.8887 25.1094 92.9687 50.5 92.9687 50.5Z" stroke="#55384C" stroke-width="3" stroke-linecap="round" stroke-linejoin="round"/>
<path d="M44.416 35.9023C44.4861 35.875 44.5566 35.8496 44.627 35.8242C44.7049 35.7949 44.7832 35.7676 44.8613 35.7402C44.9316 35.7148 45.002 35.6914 45.0742 35.668C45.166 35.6367 45.2617 35.6055 45.3555 35.5762C45.4766 35.5391 45.5977 35.502 45.7207 35.4688C45.8398 35.4336 45.9609 35.4004 46.084 35.3691C46.2129 35.3359 46.3416 35.3047 46.4707 35.2754C46.5918 35.248 46.7109 35.2207 46.832 35.1973C46.9297 35.1758 47.0273 35.1563 47.127 35.1387C47.2129 35.123 47.2988 35.1074 47.3848 35.0938C47.4314 35.084 47.4803 35.0762 47.5291 35.0703C47.6172 35.0547 47.7051 35.043 47.793 35.0312C47.8164 35.0273 47.8379 35.0234 47.8613 35.0215C47.9355 35.0098 48.0117 35 48.0879 34.9902C48.1699 34.9805 48.252 34.9707 48.334 34.9629L48.4512 34.9512C48.5352 34.9414 48.6211 34.9336 48.7051 34.9277C48.7498 34.9238 48.7949 34.9199 48.8396 34.918C48.8963 34.9121 48.9551 34.9082 49.0117 34.9063C49.0957 34.9004 49.1814 34.8965 49.2656 34.8926C49.375 34.8867 49.4844 34.8828 49.5957 34.8809C49.7285 34.877 49.865 34.875 50 34.875C58.6289 34.875 65.625 41.8711 65.625 50.5C65.625 53.1973 64.9414 55.7344 63.7383 57.9473C63.6191 58.166 63.4959 58.3828 63.3672 58.5937C63.3006 58.7051 63.2324 58.8125 63.1619 58.9219C63.0371 59.1172 62.9082 59.3086 62.7754 59.498C62.7617 59.5176 62.7478 59.5352 62.7344 59.5547C62.4492 59.957 62.1445 60.3457 61.8201 60.7168C61.576 61 61.3203 61.2754 61.0545 61.541C60.8145 61.7813 60.5662 62.0156 60.3105 62.2383C59.2383 63.1816 58.0371 63.9805 56.7344 64.6016C56.5195 64.7051 56.3025 64.8027 56.0818 64.8965C55.6152 65.0937 55.1348 65.2695 54.6465 65.4219C54.1562 65.5742 53.6582 65.7031 53.1484 65.8066C52.1309 66.0156 51.0779 66.125 50 66.125C41.3711 66.125 34.375 59.1289 34.375 50.5C34.375 50.3652 34.377 50.2305 34.3809 50.0977C34.3828 49.9883 34.3865 49.8809 34.3926 49.7715C34.3965 49.6699 34.4021 49.5684 34.4082 49.4688C34.4102 49.4395 34.4121 49.4102 34.4141 49.3809C34.4219 49.2871 34.4275 49.1934 34.4375 49.0996C34.4395 49.0762 34.4414 49.0547 34.4432 49.0313C34.4531 48.9199 34.4648 48.8086 34.4785 48.6992V48.6953C34.492 48.5781 34.5059 48.4609 34.5234 48.3437C34.5352 48.2559 34.5469 48.168 34.5625 48.0801C34.5781 47.9629 34.5975 47.8496 34.6191 47.7344C34.6229 47.7031 34.6289 47.6738 34.6348 47.6426" stroke="#55384C" stroke-width="3" stroke-linecap="round" stroke-linejoin="round"/>
<path d="M50 56.3594C46.7695 56.3594 44.1406 53.7305 44.1406 50.5C44.1406 47.2695 46.7695 44.6406 50 44.6406C53.2305 44.6406 55.8594 47.2695 55.8594 50.5C55.8594 53.7305 53.2305 56.3594 50 56.3594Z" stroke="#55384C" stroke-width="3" stroke-linecap="round" stroke-linejoin="round"/>
</g>
</svg>
