<svg width="1240" height="47" viewBox="0 0 1240 47" fill="none" xmlns="http://www.w3.org/2000/svg">
<path fill-rule="evenodd" clip-rule="evenodd" d="M0 0.279724H46.4601V46.7203H0V0.279724ZM37.8086 38.0102C29.8212 38.0102 22.5758 34.7879 17.342 29.5736C16.2679 32.171 15.682 35.0222 15.682 37.9907H8.78816C8.78816 32.7178 10.1943 27.7574 12.6549 23.5C10.1943 19.2231 8.78816 14.2822 8.78816 8.98977H15.682C15.682 11.9777 16.2679 14.829 17.342 17.4264C22.5758 12.2121 29.8212 8.98977 37.8086 8.98977V15.8641C31.696 15.8641 26.1497 18.3443 22.1462 22.3478C21.7946 22.7188 21.4236 23.1094 21.0916 23.5C21.4236 23.8906 21.7946 24.2812 22.1462 24.6327C26.1497 28.6362 31.696 31.1164 37.8086 31.1164V38.0102Z" fill="#D2AF6E"/>
<path d="M145.493 14.829C145.942 15.0438 146.391 15.2782 146.801 15.5711C146.997 15.7078 147.192 15.864 147.387 16.0203V14.3994H152.152V32.6787H147.387V31.0578C147.192 31.214 146.997 31.3703 146.801 31.507C146.391 31.7804 145.942 32.0343 145.493 32.2296C144.927 32.4834 144.341 32.6787 143.735 32.7959C143.11 32.9326 142.466 32.9912 141.802 32.9912C141.157 32.9912 140.552 32.9326 139.947 32.8154C139.361 32.6983 138.794 32.542 138.267 32.3077C137.72 32.0928 137.213 31.7999 136.724 31.4679C136.256 31.1359 135.806 30.7453 135.396 30.2962C134.967 29.847 134.596 29.3783 134.264 28.8705C133.951 28.3628 133.678 27.8355 133.463 27.2691C133.248 26.7028 133.092 26.0974 132.994 25.4724C132.877 24.867 132.838 24.203 132.838 23.539C132.838 22.8555 132.877 22.211 132.994 21.5861C133.092 20.9807 133.248 20.3753 133.463 19.809C133.678 19.2426 133.951 18.7153 134.264 18.2076C134.596 17.6998 134.967 17.2116 135.396 16.7819C135.806 16.3327 136.256 15.9422 136.724 15.6102C137.213 15.2782 137.72 14.9852 138.267 14.7704C138.794 14.5361 139.361 14.3603 139.947 14.2626C140.552 14.1455 141.157 14.0869 141.802 14.0869C142.466 14.0869 143.11 14.1455 143.735 14.2822C144.341 14.3994 144.927 14.5946 145.493 14.829ZM187.11 8.48199C187.91 8.48199 188.633 8.81399 189.141 9.34128C189.668 9.84904 190 10.5716 190 11.3723C190 12.173 189.668 12.8761 189.141 13.4034C188.633 13.9307 187.91 14.2431 187.11 14.2431C186.309 14.2431 185.606 13.9307 185.079 13.4034C184.551 12.8761 184.239 12.173 184.239 11.3723C184.239 10.5716 184.551 9.84904 185.079 9.34128C185.606 8.81399 186.309 8.48199 187.11 8.48199ZM188.867 9.61469C188.418 9.14599 187.793 8.87258 187.11 8.87258C186.426 8.87258 185.801 9.14599 185.352 9.61469C184.903 10.0639 184.61 10.6888 184.61 11.3723C184.61 12.0558 184.903 12.6808 185.352 13.13C185.801 13.5791 186.426 13.8721 187.11 13.8721C187.793 13.8721 188.418 13.5791 188.867 13.13C189.336 12.6808 189.609 12.0558 189.609 11.3723C189.609 10.6888 189.336 10.0639 188.867 9.61469ZM187.676 12.7589L187.032 11.6848H186.602V12.7589H186.036V9.96621H187.286C187.618 9.96621 187.852 10.0443 188.028 10.2006C188.203 10.3763 188.282 10.5716 188.282 10.845C188.282 11.0403 188.223 11.2161 188.106 11.3723C187.989 11.509 187.832 11.6067 187.598 11.6457L188.301 12.7589H187.676ZM186.602 11.2942H187.246C187.559 11.2942 187.715 11.1575 187.715 10.8646C187.715 10.7279 187.676 10.6302 187.598 10.5521C187.52 10.474 187.403 10.4349 187.246 10.4349H186.602V11.2942ZM140.611 28.3042C140.904 28.4409 141.197 28.519 141.529 28.5776C141.841 28.6362 142.173 28.6752 142.525 28.6752C142.876 28.6752 143.228 28.6362 143.54 28.5776C143.872 28.519 144.184 28.4409 144.458 28.3042C144.751 28.187 145.024 28.0503 145.298 27.855C145.552 27.6792 145.805 27.4839 146.02 27.2301C146.255 26.9957 146.45 26.7418 146.606 26.4684C146.782 26.2145 146.919 25.9216 147.036 25.6287C147.153 25.3162 147.231 24.9842 147.29 24.6522C147.348 24.3007 147.387 23.9296 147.387 23.539C147.387 23.1485 147.348 22.7969 147.29 22.4454C147.231 22.1134 147.153 21.7814 147.036 21.4689C146.919 21.1565 146.782 20.8831 146.626 20.6097C146.45 20.3362 146.255 20.0824 146.02 19.8285C145.805 19.5941 145.552 19.3793 145.298 19.2035C145.024 19.0278 144.751 18.8715 144.458 18.7544C144.184 18.6372 143.872 18.5591 143.54 18.481C143.228 18.4224 142.876 18.4028 142.525 18.4028C142.173 18.4028 141.841 18.4224 141.529 18.5005C141.197 18.5591 140.904 18.6372 140.611 18.7544C140.337 18.8911 140.064 19.0278 139.81 19.2035C139.556 19.3793 139.302 19.5941 139.087 19.8285V19.848C138.853 20.0824 138.658 20.3362 138.482 20.6097C138.306 20.8831 138.169 21.1565 138.052 21.4689C137.935 21.7814 137.837 22.0939 137.779 22.4454C137.72 22.7969 137.701 23.1485 137.701 23.539C137.701 23.9296 137.72 24.3007 137.779 24.6327C137.837 24.9842 137.935 25.3162 138.052 25.6091C138.169 25.9216 138.306 26.195 138.482 26.4684C138.658 26.7418 138.853 26.9957 139.087 27.2301V27.2496C139.302 27.4839 139.556 27.6792 139.81 27.855C140.064 28.0503 140.337 28.187 140.611 28.3042ZM155.902 14.3994H160.042V16.6843C160.159 16.5476 160.277 16.4109 160.394 16.2937C160.765 15.8836 161.175 15.5125 161.624 15.2001C162.21 14.7899 162.874 14.4775 163.577 14.2626C164.28 14.0478 165.042 13.9502 165.842 13.9502H166.448V18.6763H165.842C164.925 18.6763 164.104 18.7934 163.382 19.0278C162.659 19.2426 162.034 19.5746 161.546 20.0238C161.058 20.4339 160.687 20.9612 160.433 21.5666C160.179 22.172 160.042 22.875 160.042 23.6367V32.6787H155.277V14.3994H155.902ZM185.118 19.809C185.352 20.3753 185.528 20.9612 185.645 21.6056C185.743 22.211 185.821 22.8555 185.821 23.5195V23.5781C185.821 23.6562 185.821 23.7539 185.821 23.871C185.821 23.9687 185.801 24.0859 185.801 24.1835C185.782 24.2811 185.762 24.3788 185.762 24.4764C185.743 24.5741 185.723 24.6717 185.704 24.7694L185.606 25.2576H179.005H176.974H171.291C171.408 25.6677 171.564 26.0583 171.779 26.4098C172.053 26.8981 172.404 27.3082 172.814 27.6597C173.264 28.0503 173.771 28.3432 174.338 28.5385C174.904 28.7338 175.509 28.851 176.173 28.851C176.701 28.851 177.208 28.7729 177.677 28.6166C178.165 28.4604 178.634 28.2456 179.044 27.9526C179.298 27.7769 179.532 27.5816 179.728 27.3668H179.747H185.079C185.001 27.5621 184.903 27.7574 184.805 27.9331C184.649 28.2456 184.473 28.5385 184.278 28.8315C183.985 29.2416 183.653 29.6322 183.302 30.0032C182.95 30.3547 182.54 30.7063 182.11 31.0383C181.681 31.3507 181.231 31.6437 180.743 31.878C180.275 32.1319 179.786 32.3272 179.298 32.503C178.81 32.6592 178.283 32.7764 177.755 32.8545C177.228 32.9521 176.681 32.9912 176.134 32.9912C174.748 32.9912 173.459 32.7568 172.307 32.3272C171.721 32.0928 171.174 31.8194 170.647 31.4874C170.139 31.1554 169.651 30.7649 169.201 30.3157C168.733 29.886 168.323 29.3978 167.971 28.8901C167.62 28.3823 167.327 27.855 167.092 27.2691C166.877 26.7028 166.702 26.1169 166.585 25.492C166.467 24.867 166.409 24.203 166.409 23.539C166.409 22.8555 166.467 22.211 166.585 21.5861C166.702 20.9612 166.877 20.3558 167.092 19.7894C167.327 19.2231 167.62 18.6958 167.971 18.188C168.323 17.6803 168.733 17.192 169.201 16.7624C169.651 16.3132 170.139 15.9226 170.647 15.5906C171.174 15.2586 171.721 14.9657 172.307 14.7509C172.873 14.5361 173.498 14.3603 174.142 14.2431C174.767 14.1455 175.431 14.0869 176.134 14.0869C176.818 14.0869 177.501 14.1455 178.126 14.2431C178.771 14.3603 179.376 14.5361 179.962 14.7509C180.548 14.9657 181.095 15.2586 181.622 15.5906C182.13 15.9226 182.618 16.3132 183.067 16.7624C183.536 17.2116 183.926 17.6803 184.258 18.188C184.61 18.6958 184.883 19.2426 185.118 19.809ZM120.085 14.8876C120.574 14.6142 121.12 14.4189 121.706 14.2822C122.273 14.1455 122.878 14.0869 123.542 14.0869C124.069 14.0869 124.577 14.1259 125.065 14.2041C125.534 14.3017 126.003 14.4384 126.452 14.5946C126.882 14.7704 127.311 14.9852 127.702 15.2586C128.092 15.5125 128.463 15.825 128.815 16.1765C129.167 16.528 129.479 16.8991 129.733 17.3092C130.006 17.7193 130.221 18.149 130.397 18.5981C130.573 19.0473 130.69 19.5355 130.787 20.0238C130.866 20.5315 130.905 21.0588 130.905 21.6056V32.6787H126.1V22.0743C126.1 21.4885 126.022 20.9416 125.847 20.4534C125.69 19.9652 125.436 19.5551 125.104 19.2035C124.792 18.8715 124.421 18.6177 123.972 18.4224C123.542 18.2466 123.034 18.149 122.488 18.149C121.921 18.149 121.413 18.2466 120.964 18.4224C120.515 18.5981 120.105 18.8715 119.792 19.2035C119.46 19.5355 119.207 19.9652 119.05 20.4534C118.875 20.9221 118.777 21.4689 118.777 22.0743V32.6787H114.012V14.3994H118.777V15.825C118.875 15.7469 118.953 15.6688 119.05 15.5906C119.363 15.3172 119.714 15.0829 120.085 14.8876ZM110.301 32.6787H106.161V14.3994H110.907V32.6787H110.301ZM102.392 32.6787H98.2517V7.58365H103.017V32.6787H102.392ZM180.567 20.4925C180.411 20.2581 180.255 20.0433 180.06 19.848C179.884 19.6527 179.669 19.4574 179.435 19.2817C179.2 19.1059 178.966 18.9497 178.712 18.813C178.458 18.6763 178.204 18.5786 177.931 18.481C177.658 18.4028 177.384 18.3443 177.091 18.2857C176.798 18.2466 176.486 18.2271 176.173 18.2271C175.841 18.2271 175.548 18.2466 175.256 18.2857C174.963 18.3443 174.689 18.4028 174.435 18.481C174.162 18.5786 173.908 18.6763 173.674 18.813C173.439 18.9497 173.205 19.1059 172.971 19.2621C172.756 19.4574 172.541 19.6332 172.365 19.848C172.189 20.0433 172.014 20.2581 171.877 20.4925C171.74 20.6878 171.643 20.8831 171.545 21.0979L171.467 21.2932H180.978L180.88 21.0979C180.802 20.8831 180.685 20.6878 180.567 20.4925ZM89.2292 32.1905C88.7214 32.4639 88.1942 32.6592 87.6083 32.7959C87.0419 32.9131 86.417 32.9912 85.7725 32.9912C85.2452 32.9912 84.7375 32.9521 84.2493 32.8545C83.761 32.7764 83.3118 32.6397 82.8627 32.4639C82.4135 32.3077 82.0034 32.0733 81.6128 31.8194C81.2027 31.5656 80.8316 31.2531 80.4801 30.9016C80.1286 30.55 79.8356 30.179 79.5622 29.7689C79.3084 29.3588 79.0935 28.9291 78.9178 28.4799C78.742 28.0308 78.6053 27.5425 78.5272 27.0543C78.4491 26.5465 78.3905 26.0193 78.3905 25.4724V14.3994H83.1947V24.9842C83.1947 25.5896 83.2923 26.1364 83.4486 26.6247C83.6243 27.1129 83.8782 27.523 84.1907 27.8745C84.5031 28.2065 84.8937 28.4604 85.3429 28.6362C85.7725 28.8315 86.2608 28.9096 86.8076 28.9096C87.3739 28.9096 87.9012 28.8315 88.3504 28.6362C88.7996 28.4604 89.1901 28.2065 89.5221 27.8745C89.8346 27.523 90.0885 27.1129 90.2643 26.6247C90.44 26.156 90.5181 25.5896 90.5181 24.9842V14.3994H95.2833V32.6787H90.5181V31.2531C90.44 31.3312 90.3424 31.4093 90.2643 31.4874C89.9323 31.7608 89.6003 31.9952 89.2292 32.1905ZM65.052 21.508L71.5552 14.3994H77.375L68.8602 23.539L77.375 32.6787H71.5552L65.052 25.5701V32.6787H60.365V14.3994H65.052V21.508ZM108.544 7.27118C110.028 7.27118 111.219 8.48199 111.219 9.96621C111.219 11.47 110.028 12.6613 108.544 12.6613C107.04 12.6613 105.849 11.47 105.849 9.96621C105.849 8.48199 107.04 7.27118 108.544 7.27118Z" fill="white"/>
<path d="M405.73 17.038C407.188 17.398 408.16 18.604 408.16 20.188C408.16 21.178 407.836 21.97 407.206 22.582C406.558 23.194 405.73 23.5 404.722 23.5H398.224V11.008H404.164C405.172 11.008 406 11.296 406.648 11.89C407.296 12.484 407.62 13.24 407.62 14.176C407.62 15.526 406.9 16.552 405.73 17.038ZM404.758 15.778C405.334 15.202 405.334 14.158 404.758 13.582C404.47 13.312 404.092 13.168 403.642 13.168H400.726V16.228H403.642C404.092 16.228 404.452 16.084 404.758 15.778ZM400.726 21.34H404.056C404.938 21.34 405.604 20.692 405.604 19.774C405.604 18.856 404.938 18.19 404.056 18.19H400.726V21.34ZM416.5 16.03V14.608H418.858V23.5H416.5V22.06C415.726 23.122 414.682 23.662 413.368 23.662C412.198 23.662 411.226 23.23 410.47 22.366C409.696 21.502 409.318 20.404 409.318 19.054C409.318 17.704 409.696 16.606 410.47 15.724C411.226 14.86 412.198 14.428 413.368 14.428C414.682 14.428 415.726 14.968 416.5 16.03ZM412.414 20.89C412.864 21.376 413.422 21.628 414.124 21.628C414.826 21.628 415.384 21.376 415.834 20.89C416.284 20.404 416.5 19.792 416.5 19.054C416.5 17.542 415.51 16.462 414.124 16.462C412.738 16.462 411.73 17.542 411.73 19.054C411.73 19.792 411.964 20.404 412.414 20.89ZM420.984 23.5V11.008H423.324V23.5H420.984ZM425.449 23.5V11.008H427.789V23.5H425.449ZM432.146 11.188C433.01 11.962 432.398 13.546 431.102 13.438C430.256 13.438 429.68 12.88 429.68 12.142C429.68 11.368 430.256 10.828 431.102 10.828C431.516 10.828 431.876 10.954 432.146 11.188ZM429.932 23.5V14.608H432.29V23.5H429.932ZM439.597 14.428C440.569 14.428 441.361 14.752 441.973 15.4C442.567 16.066 442.873 16.912 442.873 17.938V23.5H440.533V18.28C440.533 17.074 439.777 16.3 438.679 16.3C437.545 16.3 436.807 17.11 436.807 18.28V23.5H434.449V14.608H436.807V15.94C437.437 14.932 438.355 14.428 439.597 14.428ZM451.621 16.03V14.608H453.979V23.5H451.621V22.06C450.847 23.122 449.803 23.662 448.489 23.662C447.319 23.662 446.347 23.23 445.591 22.366C444.817 21.502 444.439 20.404 444.439 19.054C444.439 17.704 444.817 16.606 445.591 15.724C446.347 14.86 447.319 14.428 448.489 14.428C449.803 14.428 450.847 14.968 451.621 16.03ZM447.535 20.89C447.985 21.376 448.543 21.628 449.245 21.628C449.947 21.628 450.505 21.376 450.955 20.89C451.405 20.404 451.621 19.792 451.621 19.054C451.621 17.542 450.631 16.462 449.245 16.462C447.859 16.462 446.851 17.542 446.851 19.054C446.851 19.792 447.085 20.404 447.535 20.89Z" fill="white"/>
<path d="M501.16 20.8C501.214 22.24 501.286 23.14 501.412 23.5H498.802C498.712 23.086 498.658 22.294 498.64 21.124C498.586 19.81 497.956 18.946 496.93 18.946H493.726V23.5H491.224V11.008H497.056C499.594 11.008 501.214 12.394 501.214 14.608C501.214 16.12 500.458 17.254 499.144 17.812C500.422 18.226 501.088 19.234 501.16 20.8ZM493.726 16.93H496.786C497.938 16.93 498.676 16.192 498.676 15.058C498.676 13.924 497.938 13.204 496.786 13.204H493.726V16.93ZM505.461 14.608V16.588C506.091 15.148 507.225 14.32 508.683 14.32V16.66C506.721 16.66 505.461 17.632 505.461 19.216V23.5H503.121V14.608H505.461ZM518.943 19.072C518.943 19.342 518.925 19.576 518.871 19.774H511.689C511.977 20.944 512.949 21.754 514.173 21.754C515.199 21.754 516.081 21.142 516.423 20.332H518.781C518.529 21.304 517.971 22.096 517.107 22.726C516.243 23.356 515.253 23.662 514.155 23.662C512.769 23.662 511.617 23.23 510.717 22.366C509.799 21.502 509.349 20.404 509.349 19.054C509.349 17.704 509.799 16.606 510.717 15.724C511.617 14.86 512.769 14.428 514.155 14.428C515.541 14.428 516.675 14.86 517.575 15.724C518.475 16.606 518.925 17.722 518.943 19.072ZM514.173 16.336C513.075 16.336 512.157 16.984 511.779 17.992H516.657C516.297 17.002 515.307 16.336 514.173 16.336ZM523.747 14.608H525.727V16.552H523.747V23.5H521.389V16.552H519.733V14.608H521.389V12.286H523.747V14.608ZM532.209 14.428C533.199 14.428 533.991 14.752 534.603 15.4C535.215 16.066 535.521 16.912 535.521 17.938V23.5H533.163V18.28C533.163 17.11 532.425 16.3 531.327 16.3C530.193 16.3 529.437 17.074 529.437 18.28V23.5H527.097V11.008H529.437V15.994C530.067 14.95 530.985 14.428 532.209 14.428ZM550.861 20.134V11.008H553.363V23.5H550.177L545.353 14.374V23.5H542.851V11.008H546.037L550.861 20.134ZM564.752 19.072C564.752 19.342 564.734 19.576 564.68 19.774H557.498C557.786 20.944 558.758 21.754 559.982 21.754C561.008 21.754 561.89 21.142 562.232 20.332H564.59C564.338 21.304 563.78 22.096 562.916 22.726C562.052 23.356 561.062 23.662 559.964 23.662C558.578 23.662 557.426 23.23 556.526 22.366C555.608 21.502 555.158 20.404 555.158 19.054C555.158 17.704 555.608 16.606 556.526 15.724C557.426 14.86 558.578 14.428 559.964 14.428C561.35 14.428 562.484 14.86 563.384 15.724C564.284 16.606 564.734 17.722 564.752 19.072ZM559.982 16.336C558.884 16.336 557.966 16.984 557.588 17.992H562.466C562.106 17.002 561.116 16.336 559.982 16.336ZM567.23 15.184C567.896 14.68 568.778 14.428 569.858 14.428C570.938 14.428 571.82 14.698 572.504 15.22C573.188 15.742 573.53 16.426 573.53 17.254H571.388C571.334 16.552 570.74 16.066 569.876 16.066C569.084 16.066 568.526 16.462 568.526 17.038C568.526 17.686 569.174 17.938 570.668 18.244C571.478 18.388 572.36 18.676 573.08 19.234C573.494 19.594 573.8 20.188 573.8 20.89C573.8 21.7 573.44 22.366 572.738 22.888C572.018 23.41 571.1 23.662 569.966 23.662C568.814 23.662 567.878 23.392 567.14 22.852C566.402 22.312 566.042 21.628 566.042 20.782H568.31C568.364 21.502 569.012 21.988 569.948 21.988C570.812 21.988 571.424 21.556 571.424 20.962C571.424 20.314 570.776 20.08 569.336 19.774C569.21 19.756 569.12 19.738 569.066 19.72C567.176 19.27 566.222 18.424 566.222 17.146C566.222 16.336 566.564 15.688 567.23 15.184ZM580.672 14.428C581.662 14.428 582.454 14.752 583.066 15.4C583.678 16.066 583.984 16.912 583.984 17.938V23.5H581.626V18.28C581.626 17.11 580.888 16.3 579.79 16.3C578.656 16.3 577.9 17.074 577.9 18.28V23.5H575.56V11.008H577.9V15.994C578.53 14.95 579.448 14.428 580.672 14.428Z" fill="white"/>
<path d="M620.224 11.008H625.66C626.92 11.008 627.946 11.386 628.756 12.16C629.548 12.934 629.944 13.924 629.944 15.166C629.944 16.39 629.548 17.38 628.756 18.154C627.946 18.928 626.92 19.324 625.66 19.324H622.726V23.5H620.224V11.008ZM622.726 17.2H625.39C626.596 17.2 627.388 16.372 627.388 15.202C627.388 13.996 626.596 13.204 625.39 13.204H622.726V17.2ZM633.705 14.608V16.588C634.335 15.148 635.469 14.32 636.927 14.32V16.66C634.965 16.66 633.705 17.632 633.705 19.216V23.5H631.365V14.608H633.705ZM638.962 15.724C639.862 14.86 641.014 14.428 642.4 14.428C643.786 14.428 644.938 14.86 645.838 15.724C646.738 16.606 647.188 17.704 647.188 19.054C647.188 20.404 646.738 21.502 645.838 22.366C644.938 23.23 643.786 23.662 642.4 23.662C641.014 23.662 639.862 23.23 638.962 22.366C638.044 21.502 637.594 20.404 637.594 19.054C637.594 17.704 638.044 16.606 638.962 15.724ZM644.11 17.182C643.66 16.696 643.084 16.462 642.382 16.462C641.68 16.462 641.122 16.696 640.672 17.182C640.222 17.668 640.006 18.298 640.006 19.054C640.006 20.548 640.996 21.628 642.382 21.628C643.768 21.628 644.776 20.548 644.776 19.054C644.776 18.298 644.56 17.668 644.11 17.182ZM655.516 16.03V11.008H657.874V23.5H655.516V22.06C654.742 23.122 653.698 23.662 652.384 23.662C651.214 23.662 650.242 23.23 649.486 22.366C648.712 21.502 648.334 20.404 648.334 19.054C648.334 17.704 648.712 16.606 649.486 15.724C650.242 14.86 651.214 14.428 652.384 14.428C653.698 14.428 654.742 14.968 655.516 16.03ZM651.43 20.89C651.88 21.376 652.438 21.628 653.14 21.628C653.842 21.628 654.4 21.376 654.85 20.89C655.3 20.404 655.516 19.792 655.516 19.054C655.516 17.542 654.526 16.462 653.14 16.462C651.754 16.462 650.746 17.542 650.746 19.054C650.746 19.792 650.98 20.404 651.43 20.89ZM665.958 14.608H668.298V19.81C668.298 20.944 667.92 21.88 667.146 22.582C666.372 23.302 665.364 23.662 664.122 23.662C662.88 23.662 661.872 23.302 661.098 22.582C660.306 21.88 659.91 20.944 659.91 19.81V14.608H662.25V19.81C662.25 20.962 663.006 21.736 664.104 21.736C665.202 21.736 665.958 20.962 665.958 19.81V14.608ZM675.987 14.608H678.759L675.015 18.838L678.759 23.5H675.987L672.675 19.234V23.5H670.335V11.008H672.675V18.478L675.987 14.608ZM683.42 14.608H685.4V16.552H683.42V23.5H681.062V16.552H679.406V14.608H681.062V12.286H683.42V14.608ZM695.756 19.072C695.756 19.342 695.738 19.576 695.684 19.774H688.502C688.79 20.944 689.762 21.754 690.986 21.754C692.012 21.754 692.894 21.142 693.236 20.332H695.594C695.342 21.304 694.784 22.096 693.92 22.726C693.056 23.356 692.066 23.662 690.968 23.662C689.582 23.662 688.43 23.23 687.53 22.366C686.612 21.502 686.162 20.404 686.162 19.054C686.162 17.704 686.612 16.606 687.53 15.724C688.43 14.86 689.582 14.428 690.968 14.428C692.354 14.428 693.488 14.86 694.388 15.724C695.288 16.606 695.738 17.722 695.756 19.072ZM690.986 16.336C689.888 16.336 688.97 16.984 688.592 17.992H693.47C693.11 17.002 692.12 16.336 690.986 16.336ZM700.559 14.608H702.539V16.552H700.559V23.5H698.201V16.552H696.545V14.608H698.201V12.286H700.559V14.608Z" fill="white"/>
<path d="M746.182 16.588H752.626C752.626 16.714 752.644 17.092 752.644 17.236C752.644 19.108 752.05 20.638 750.844 21.844C749.638 23.05 748.072 23.662 746.164 23.662C744.274 23.662 742.708 23.05 741.484 21.844C740.242 20.638 739.63 19.09 739.63 17.236C739.63 15.382 740.242 13.834 741.484 12.628C742.708 11.422 744.274 10.828 746.164 10.828C747.73 10.828 749.098 11.278 750.268 12.16C751.438 13.06 752.158 14.212 752.428 15.598H749.818C749.314 14.014 747.928 12.988 746.182 12.988C745.012 12.988 744.058 13.384 743.32 14.176C742.564 14.986 742.186 15.994 742.186 17.218C742.186 18.46 742.564 19.468 743.32 20.278C744.058 21.088 745.012 21.484 746.182 21.484C748.054 21.484 749.53 20.368 749.908 18.712H746.182V16.588ZM761.031 16.03V14.608H763.389V23.5H761.031V22.06C760.257 23.122 759.213 23.662 757.899 23.662C756.729 23.662 755.757 23.23 755.001 22.366C754.227 21.502 753.849 20.404 753.849 19.054C753.849 17.704 754.227 16.606 755.001 15.724C755.757 14.86 756.729 14.428 757.899 14.428C759.213 14.428 760.257 14.968 761.031 16.03ZM756.945 20.89C757.395 21.376 757.953 21.628 758.655 21.628C759.357 21.628 759.915 21.376 760.365 20.89C760.815 20.404 761.031 19.792 761.031 19.054C761.031 17.542 760.041 16.462 758.655 16.462C757.269 16.462 756.261 17.542 756.261 19.054C756.261 19.792 756.495 20.404 756.945 20.89ZM765.515 23.5V11.008H767.855V23.5H765.515ZM779.088 19.072C779.088 19.342 779.07 19.576 779.016 19.774H771.834C772.122 20.944 773.094 21.754 774.318 21.754C775.344 21.754 776.226 21.142 776.568 20.332H778.926C778.674 21.304 778.116 22.096 777.252 22.726C776.388 23.356 775.398 23.662 774.3 23.662C772.914 23.662 771.762 23.23 770.862 22.366C769.944 21.502 769.494 20.404 769.494 19.054C769.494 17.704 769.944 16.606 770.862 15.724C771.762 14.86 772.914 14.428 774.3 14.428C775.686 14.428 776.82 14.86 777.72 15.724C778.62 16.606 779.07 17.722 779.088 19.072ZM774.318 16.336C773.22 16.336 772.302 16.984 771.924 17.992H776.802C776.442 17.002 775.452 16.336 774.318 16.336ZM783.06 14.608V16.588C783.69 15.148 784.824 14.32 786.282 14.32V16.66C784.32 16.66 783.06 17.632 783.06 19.216V23.5H780.72V14.608H783.06ZM789.755 11.188C790.619 11.962 790.007 13.546 788.711 13.438C787.865 13.438 787.289 12.88 787.289 12.142C787.289 11.368 787.865 10.828 788.711 10.828C789.125 10.828 789.485 10.954 789.755 11.188ZM787.541 23.5V14.608H789.899V23.5H787.541ZM798.737 16.03V14.608H801.095V23.5H798.737V22.06C797.963 23.122 796.919 23.662 795.605 23.662C794.435 23.662 793.463 23.23 792.707 22.366C791.933 21.502 791.555 20.404 791.555 19.054C791.555 17.704 791.933 16.606 792.707 15.724C793.463 14.86 794.435 14.428 795.605 14.428C796.919 14.428 797.963 14.968 798.737 16.03ZM794.651 20.89C795.101 21.376 795.659 21.628 796.361 21.628C797.063 21.628 797.621 21.376 798.071 20.89C798.521 20.404 798.737 19.792 798.737 19.054C798.737 17.542 797.747 16.462 796.361 16.462C794.975 16.462 793.967 17.542 793.967 19.054C793.967 19.792 794.201 20.404 794.651 20.89Z" fill="white"/>
<path d="M845.73 17.038C847.188 17.398 848.16 18.604 848.16 20.188C848.16 21.178 847.836 21.97 847.206 22.582C846.558 23.194 845.73 23.5 844.722 23.5H838.224V11.008H844.164C845.172 11.008 846 11.296 846.648 11.89C847.296 12.484 847.62 13.24 847.62 14.176C847.62 15.526 846.9 16.552 845.73 17.038ZM844.758 15.778C845.334 15.202 845.334 14.158 844.758 13.582C844.47 13.312 844.092 13.168 843.642 13.168H840.726V16.228H843.642C844.092 16.228 844.452 16.084 844.758 15.778ZM840.726 21.34H844.056C844.938 21.34 845.604 20.692 845.604 19.774C845.604 18.856 844.938 18.19 844.056 18.19H840.726V21.34ZM849.804 23.5V11.008H852.144V23.5H849.804ZM855.151 15.724C856.051 14.86 857.203 14.428 858.589 14.428C859.975 14.428 861.127 14.86 862.027 15.724C862.927 16.606 863.377 17.704 863.377 19.054C863.377 20.404 862.927 21.502 862.027 22.366C861.127 23.23 859.975 23.662 858.589 23.662C857.203 23.662 856.051 23.23 855.151 22.366C854.233 21.502 853.783 20.404 853.783 19.054C853.783 17.704 854.233 16.606 855.151 15.724ZM860.299 17.182C859.849 16.696 859.273 16.462 858.571 16.462C857.869 16.462 857.311 16.696 856.861 17.182C856.411 17.668 856.195 18.298 856.195 19.054C856.195 20.548 857.185 21.628 858.571 21.628C859.957 21.628 860.965 20.548 860.965 19.054C860.965 18.298 860.749 17.668 860.299 17.182ZM871.705 15.94V14.608H874.063V22.906C874.063 24.166 873.631 25.21 872.767 26.038C871.885 26.848 870.787 27.262 869.437 27.262C868.303 27.262 867.313 26.956 866.467 26.326C865.621 25.696 865.099 24.904 864.937 23.95H867.133C867.367 24.796 868.285 25.39 869.347 25.39C870.715 25.39 871.705 24.4 871.705 23.05V21.646C870.949 22.654 869.905 23.158 868.573 23.158C867.403 23.158 866.431 22.744 865.675 21.916C864.901 21.106 864.523 20.062 864.523 18.784C864.523 17.524 864.901 16.48 865.675 15.652C866.431 14.842 867.403 14.428 868.573 14.428C869.887 14.428 870.931 14.932 871.705 15.94ZM867.619 20.638C868.069 21.124 868.627 21.358 869.329 21.358C870.031 21.358 870.589 21.124 871.039 20.638C871.489 20.152 871.705 19.54 871.705 18.802C871.705 18.064 871.489 17.434 871.039 16.948C870.589 16.462 870.031 16.228 869.329 16.228C868.627 16.228 868.069 16.462 867.619 16.948C867.169 17.434 866.935 18.064 866.935 18.802C866.935 19.54 867.169 20.152 867.619 20.638Z" fill="white"/>
<rect x="1083.5" y="5" width="156" height="37" rx="18.5" stroke="white"/>
<path d="M1110.73 26.134V17.008H1113.24V29.5H1110.05L1105.23 20.374V29.5H1102.72V17.008H1105.91L1110.73 26.134ZM1122.21 22.03V20.608H1124.57V29.5H1122.21V28.06C1121.44 29.122 1120.4 29.662 1119.08 29.662C1117.91 29.662 1116.94 29.23 1116.18 28.366C1115.41 27.502 1115.03 26.404 1115.03 25.054C1115.03 23.704 1115.41 22.606 1116.18 21.724C1116.94 20.86 1117.91 20.428 1119.08 20.428C1120.4 20.428 1121.44 20.968 1122.21 22.03ZM1118.13 26.89C1118.58 27.376 1119.14 27.628 1119.84 27.628C1120.54 27.628 1121.1 27.376 1121.55 26.89C1122 26.404 1122.21 25.792 1122.21 25.054C1122.21 23.542 1121.22 22.462 1119.84 22.462C1118.45 22.462 1117.44 23.542 1117.44 25.054C1117.44 25.792 1117.68 26.404 1118.13 26.89ZM1137.5 20.608H1140.27L1136.53 24.838L1140.27 29.5H1137.5L1134.19 25.234V29.5H1131.85V17.008H1134.19V24.478L1137.5 20.608ZM1142.03 21.724C1142.93 20.86 1144.08 20.428 1145.47 20.428C1146.85 20.428 1148 20.86 1148.9 21.724C1149.8 22.606 1150.25 23.704 1150.25 25.054C1150.25 26.404 1149.8 27.502 1148.9 28.366C1148 29.23 1146.85 29.662 1145.47 29.662C1144.08 29.662 1142.93 29.23 1142.03 28.366C1141.11 27.502 1140.66 26.404 1140.66 25.054C1140.66 23.704 1141.11 22.606 1142.03 21.724ZM1147.18 23.182C1146.73 22.696 1146.15 22.462 1145.45 22.462C1144.75 22.462 1144.19 22.696 1143.74 23.182C1143.29 23.668 1143.07 24.298 1143.07 25.054C1143.07 26.548 1144.06 27.628 1145.45 27.628C1146.83 27.628 1147.84 26.548 1147.84 25.054C1147.84 24.298 1147.63 23.668 1147.18 23.182ZM1157.05 20.428C1158.02 20.428 1158.82 20.752 1159.43 21.4C1160.02 22.066 1160.33 22.912 1160.33 23.938V29.5H1157.99V24.28C1157.99 23.074 1157.23 22.3 1156.13 22.3C1155 22.3 1154.26 23.11 1154.26 24.28V29.5H1151.9V20.608H1154.26V21.94C1154.89 20.932 1155.81 20.428 1157.05 20.428ZM1165.67 20.608H1167.65V22.552H1165.67V29.5H1163.32V22.552H1161.66V20.608H1163.32V18.286H1165.67V20.608ZM1175.6 22.03V20.608H1177.96V29.5H1175.6V28.06C1174.82 29.122 1173.78 29.662 1172.47 29.662C1171.3 29.662 1170.32 29.23 1169.57 28.366C1168.79 27.502 1168.42 26.404 1168.42 25.054C1168.42 23.704 1168.79 22.606 1169.57 21.724C1170.32 20.86 1171.3 20.428 1172.47 20.428C1173.78 20.428 1174.82 20.968 1175.6 22.03ZM1171.51 26.89C1171.96 27.376 1172.52 27.628 1173.22 27.628C1173.92 27.628 1174.48 27.376 1174.93 26.89C1175.38 26.404 1175.6 25.792 1175.6 25.054C1175.6 23.542 1174.61 22.462 1173.22 22.462C1171.84 22.462 1170.83 23.542 1170.83 25.054C1170.83 25.792 1171.06 26.404 1171.51 26.89ZM1185.73 20.608H1188.51L1184.76 24.838L1188.51 29.5H1185.73L1182.42 25.234V29.5H1180.08V17.008H1182.42V24.478L1185.73 20.608ZM1193.17 20.608H1195.15V22.552H1193.17V29.5H1190.81V22.552H1189.15V20.608H1190.81V18.286H1193.17V20.608ZM1197.28 21.724C1198.18 20.86 1199.33 20.428 1200.71 20.428C1202.1 20.428 1203.25 20.86 1204.15 21.724C1205.05 22.606 1205.5 23.704 1205.5 25.054C1205.5 26.404 1205.05 27.502 1204.15 28.366C1203.25 29.23 1202.1 29.662 1200.71 29.662C1199.33 29.662 1198.18 29.23 1197.28 28.366C1196.36 27.502 1195.91 26.404 1195.91 25.054C1195.91 23.704 1196.36 22.606 1197.28 21.724ZM1202.42 23.182C1201.97 22.696 1201.4 22.462 1200.7 22.462C1199.99 22.462 1199.44 22.696 1198.99 23.182C1198.54 23.668 1198.32 24.298 1198.32 25.054C1198.32 26.548 1199.31 27.628 1200.7 27.628C1202.08 27.628 1203.09 26.548 1203.09 25.054C1203.09 24.298 1202.87 23.668 1202.42 23.182ZM1212.3 20.428C1213.27 20.428 1214.06 20.752 1214.68 21.4C1215.27 22.066 1215.58 22.912 1215.58 23.938V29.5H1213.24V24.28C1213.24 23.074 1212.48 22.3 1211.38 22.3C1210.25 22.3 1209.51 23.11 1209.51 24.28V29.5H1207.15V20.608H1209.51V21.94C1210.14 20.932 1211.06 20.428 1212.3 20.428ZM1219.86 17.188C1220.72 17.962 1220.11 19.546 1218.82 19.438C1217.97 19.438 1217.39 18.88 1217.39 18.142C1217.39 17.368 1217.97 16.828 1218.82 16.828C1219.23 16.828 1219.59 16.954 1219.86 17.188ZM1217.65 29.5V20.608H1220V29.5H1217.65Z" fill="white"/>
</svg>
