<svg width="94" height="91" viewBox="0 0 94 91" fill="none" xmlns="http://www.w3.org/2000/svg">
<g id="peugeot-logo 1" clip-path="url(#clip0_409_392)">
<path id="Vector" d="M81.6435 16.5047C81.4435 16.5047 81.4435 16.5047 80.4435 16.1047L78.5435 17.1047L78.1435 15.0047C77.5435 14.8047 77.1435 14.8047 76.8435 15.0047C76.3435 15.3047 76.1435 16.3047 76.1435 17.0047L78.8435 18.1047L80.5435 17.3047L81.2435 19.9047L81.1435 20.1047C79.5435 23.7047 79.2435 23.8047 78.8435 23.8047H78.7435C78.5435 23.8047 77.9435 23.7047 75.6435 22.4047C75.7435 24.5047 75.5435 28.1047 73.5435 32.1047C73.4435 32.5047 73.1435 33.0047 72.7435 33.5047C73.0435 35.6047 74.5435 48.3047 74.8435 54.8047C75.9435 54.5047 77.8435 54.2047 79.0435 55.0047C80.7435 56.2047 80.5435 57.8047 80.2435 58.7047H83.8435L83.0435 55.0047L93.5435 59.4047L82.9435 63.7047L83.7435 60.0047H11.5435L7.74346 62.8047H0.543457L5.24346 59.4047L0.543457 56.0047H7.74346L11.5435 58.8047H14.9435C14.7435 56.3047 14.1435 46.3047 14.1435 42.7047V42.4047L14.3435 42.2047C15.7435 40.4047 16.2435 37.8047 16.7435 35.0047C17.3435 31.8047 17.9435 28.3047 20.1435 25.5047C19.2435 24.5047 17.4435 22.2047 16.9435 19.5047C16.2435 15.3047 19.1435 12.5047 22.4435 11.8047C25.5435 11.2047 28.0435 12.0047 30.5435 12.7047C32.9435 13.4047 35.1435 14.1047 38.0435 13.7047C41.0435 13.3047 42.6435 10.8047 42.5435 8.70469C42.4435 6.90469 40.9435 5.00469 37.2435 5.00469C35.1435 5.00469 33.2435 6.00469 31.2435 7.00469C28.3435 8.50469 25.0435 10.2047 20.2435 9.10469C19.5435 10.1047 18.5435 10.8047 17.1435 10.8047C13.3435 10.8047 11.1435 5.60469 11.0435 5.40469L10.3435 3.70469L11.9435 4.40469C12.4435 4.60469 12.9435 4.70469 13.6435 4.70469C14.1435 4.70469 14.7435 4.60469 15.3435 4.60469C15.9435 4.50469 16.5435 4.50469 17.1435 4.50469C17.6435 4.50469 18.1435 4.60469 18.5435 4.70469C20.3435 5.10469 20.9435 6.70469 20.7435 8.00469C24.9435 8.80469 27.8435 7.40469 30.6435 6.00469C32.7435 4.90469 34.7435 3.90469 37.2435 3.90469C41.9435 3.90469 43.8435 6.60469 43.9435 8.90469C44.1435 11.7047 42.0435 14.8047 38.2435 15.4047C35.0435 15.9047 32.5435 15.1047 30.1435 14.3047C27.7435 13.6047 25.5435 12.9047 22.7435 13.4047C20.2435 13.9047 17.7435 16.0047 18.3435 19.4047C18.7435 21.7047 20.2435 23.7047 21.0435 24.6047C22.1435 23.5047 23.6435 22.5047 25.5435 21.8047C29.7435 20.3047 34.2435 20.4047 39.0435 20.5047C43.3435 20.6047 47.6435 20.7047 52.0435 19.7047C51.6435 17.2047 51.9435 12.0047 52.7435 10.5047C53.5435 9.10469 60.0435 2.20469 62.4435 1.30469C64.4435 0.504689 71.3435 0.904689 73.3435 1.80469C73.9435 2.10469 74.6435 3.20469 75.6435 5.00469C75.7435 5.10469 75.7435 5.20469 75.7435 5.20469C78.6435 7.10469 78.6435 7.10469 78.7435 7.20469C78.7435 7.30469 78.8435 7.30469 79.9435 9.10469C83.5435 11.0047 83.5435 11.0047 83.6435 11.4047C84.0435 12.9047 83.4435 14.4047 82.8435 15.3047C82.0435 16.4047 81.7435 16.5047 81.6435 16.5047ZM84.7435 61.6047L90.1435 59.4047L84.7435 57.2047L85.2435 59.4047L84.7435 61.6047ZM7.34346 57.3047H4.54346L7.44346 59.4047L4.54346 61.5047H7.34346L10.2435 59.4047L7.34346 57.3047ZM18.0435 6.00469C17.7435 5.90469 17.4435 5.90469 17.0435 5.90469C16.5435 5.90469 16.0435 6.00469 15.4435 6.00469C14.8435 6.10469 14.2435 6.10469 13.6435 6.10469H13.0435C13.8435 7.40469 15.1435 9.00469 16.4435 9.30469C16.6435 9.30469 16.8435 9.40469 17.1435 9.40469C18.4435 9.40469 19.1435 8.50469 19.2435 7.70469C19.3435 7.00469 19.0435 6.20469 18.0435 6.00469ZM73.7435 27.4047C74.3435 24.7047 74.2435 22.6047 74.1435 21.6047C73.4435 21.2047 72.5435 20.7047 71.6435 20.2047C72.5435 22.5047 73.4435 24.9047 73.7435 27.4047ZM67.5435 20.6047C67.4435 25.2047 67.3435 30.4047 65.2435 35.8047C64.9435 36.8047 64.5435 37.9047 64.0435 39.2047C70.8435 34.0047 71.9435 32.2047 72.1435 31.6047C73.1435 27.6047 71.4435 23.5047 69.8435 19.6047C69.0435 17.7047 68.2435 15.8047 67.8435 14.0047C67.6435 16.1047 67.5435 18.3047 67.5435 20.6047ZM67.5435 9.30469C63.6435 11.4047 60.2435 14.6047 58.6435 17.8047C62.0435 20.0047 64.5435 25.1047 65.4435 29.7047C65.9435 26.6047 66.0435 23.5047 66.1435 20.6047C66.2435 16.6047 66.2435 12.8047 67.5435 9.30469ZM78.7435 58.5047C78.9435 57.7047 79.0435 56.9047 78.1435 56.2047C77.3435 55.6047 75.2435 56.1047 74.3435 56.4047L73.3435 56.8047V55.8047C73.2435 50.5047 71.9435 39.1047 71.3435 34.9047C69.9435 36.3047 67.8435 38.1047 65.1435 40.2047C65.4435 41.1047 68.4435 48.4047 70.3435 53.2047C70.7435 54.4047 72.4435 57.4047 73.0435 58.5047H78.7435ZM60.5435 58.7047H71.5435C70.8435 57.4047 69.4435 54.8047 69.0435 53.7047C68.5435 52.6047 64.8435 43.3047 63.9435 41.0047C63.7435 41.2047 63.4435 41.4047 63.2435 41.5047C63.1435 41.6047 63.0435 41.7047 62.9435 41.7047C61.4435 44.8047 58.2435 51.7047 56.9435 54.5047C57.7435 54.5047 58.8435 54.6047 59.6435 55.4047C60.7435 56.6047 60.7435 57.9047 60.5435 58.7047ZM43.5435 58.7047H51.0435L53.2435 43.9047C49.5435 43.8047 45.5435 42.5047 41.7435 41.1047C40.3435 40.6047 39.0435 40.2047 37.7435 39.8047C37.2435 43.1047 35.1435 47.4047 34.5435 48.6047L37.6435 55.0047C38.8435 54.7047 41.3435 54.2047 42.5435 55.4047C43.7435 56.5047 43.7435 57.9047 43.5435 58.7047ZM42.1435 58.5047C42.2435 58.0047 42.3435 57.1047 41.6435 56.4047C40.9435 55.7047 38.5435 56.2047 37.5435 56.5047L36.9435 56.8047L32.9435 48.7047L33.1435 48.4047C33.1435 48.3047 35.9435 43.1047 36.4435 39.6047C33.9435 39.0047 31.7435 38.7047 30.1435 39.4047C29.5435 40.3047 28.7435 41.2047 27.9435 42.1047L29.6435 51.8047L37.0435 58.6047H42.1435V58.5047ZM24.3435 55.9047C25.1435 56.9047 25.0435 58.0047 24.8435 58.8047H35.1435L28.3435 52.5047L26.7435 43.2047C24.2435 45.4047 21.6435 47.0047 20.7435 47.6047L20.0435 54.8047C21.1435 54.5047 23.2435 54.4047 24.3435 55.9047ZM39.0435 21.8047C34.3435 21.7047 29.9435 21.6047 26.0435 23.0047C19.8435 25.3047 18.9435 30.3047 18.0435 35.2047C17.5435 38.1047 17.0435 40.8047 15.4435 42.8047C15.4435 46.5047 16.1435 55.9047 16.2435 58.4047H23.3435C23.5435 58.0047 23.7435 57.3047 23.1435 56.6047C22.3435 55.5047 20.0435 55.9047 19.2435 56.2047L18.2435 56.5047L19.2435 46.5047L19.5435 46.3047C19.6435 46.2047 29.1435 40.9047 30.2435 35.1047C30.3435 34.7047 30.6435 34.5047 31.0435 34.5047C31.4435 34.6047 31.6435 34.9047 31.6435 35.3047C31.5435 36.0047 31.2435 36.7047 30.9435 37.4047C34.0435 36.9047 37.9435 38.3047 42.0435 39.7047C45.8435 41.0047 49.7435 42.4047 53.2435 42.4047L53.5435 40.1047L55.1435 35.8047C55.2435 35.4047 55.6435 35.2047 56.0435 35.4047C56.4435 35.5047 56.5435 36.0047 56.4435 36.3047L54.8435 40.4047L52.5435 58.5047H59.1435C59.3435 58.1047 59.4435 57.3047 58.7435 56.6047C57.7435 55.6047 56.0435 56.2047 56.0435 56.2047L54.4435 56.8047L55.1435 55.2047C55.2435 55.1047 60.3435 43.9047 61.9435 40.5047C64.1435 35.1047 64.3435 33.4047 64.3435 32.9047C64.3435 28.1047 61.5435 21.2047 57.7435 18.8047C51.4435 22.1047 45.1435 22.0047 39.0435 21.8047ZM53.4435 19.2047C54.6435 18.8047 55.9435 18.3047 57.2435 17.7047C59.0435 13.8047 63.4435 9.70469 68.2435 7.50469C68.2435 7.40469 68.1435 7.20469 68.1435 7.10469C65.7435 7.10469 57.3435 7.50469 53.8435 11.4047C53.3435 12.7047 53.0435 17.0047 53.4435 19.2047ZM72.6435 3.00469C71.0435 2.20469 64.4435 1.90469 62.8435 2.50469C61.7435 2.90469 59.1435 5.30469 57.0435 7.50469C61.4435 5.70469 66.8435 5.50469 68.4435 5.50469C68.9435 4.70469 69.8435 3.80469 70.2435 3.50469C70.8435 3.20469 72.1435 3.60469 73.9435 4.70469C73.1435 3.50469 72.8435 3.10469 72.6435 3.00469ZM69.5435 6.50469V6.90469C70.1435 6.70469 70.7435 6.50469 71.4435 6.30469C71.8435 6.10469 72.3435 6.00469 72.8435 5.80469C71.9435 5.30469 71.2435 4.90469 70.9435 4.90469C70.4435 5.20469 69.6435 6.10469 69.5435 6.50469ZM82.3435 11.9047C81.8435 11.6047 80.3435 10.8047 79.1435 10.2047L78.9435 10.1047L78.8435 9.90469C78.3435 9.20469 77.8435 8.40469 77.7435 8.10469C77.4435 7.90469 76.1435 7.10469 75.2435 6.40469C75.0435 6.50469 74.8435 6.50469 74.5435 6.60469C73.3435 7.00469 70.8435 7.80469 70.0435 8.20469C68.2435 10.8047 69.2435 14.0047 70.7435 17.7047C72.0435 18.6047 73.8435 19.6047 75.4435 20.5047C76.7435 21.2047 77.9435 21.8047 78.4435 22.0047C78.7435 21.5047 79.1435 20.6047 79.5435 19.8047L78.3435 19.3047L74.6435 17.7047V17.2047C74.6435 16.9047 74.5435 14.5047 76.0435 13.5047C76.8435 13.0047 77.7435 13.0047 78.8435 13.5047L80.6435 14.4047C80.8435 14.5047 81.1435 14.6047 81.3435 14.7047C81.4435 14.6047 81.6435 14.4047 81.7435 14.1047C81.2435 13.9047 80.1435 12.2047 80.3435 12.0047C80.5435 11.8047 81.6435 12.0047 82.4435 12.1047C82.3435 12.2047 82.3435 12.1047 82.3435 11.9047ZM76.2435 8.60469C76.5435 8.90469 76.7435 9.80469 76.7435 9.80469C76.7435 9.80469 73.2435 9.70469 73.2435 9.40469C73.1435 9.20469 75.6435 8.10469 76.2435 8.60469ZM8.04346 67.7047C10.4435 67.7047 11.9435 68.5047 11.9435 70.5047C11.9435 72.5047 10.7435 73.5047 8.54346 73.5047H3.94346V77.8047H0.543457V67.7047H8.04346ZM3.84346 72.4047H7.74346C8.94346 72.4047 9.94346 71.8047 9.94346 70.6047C9.94346 69.4047 9.04346 68.8047 7.74346 68.8047H3.84346V72.4047ZM24.4435 68.8047H17.9435V72.0047H22.1435V73.1047H17.9435V76.8047H24.4435V77.8047H14.6435V67.7047H24.4435V68.8047ZM30.2435 86.5047H27.6435V87.9047H30.1435V88.8047H27.6435V90.7047H26.7435V85.6047H30.3435V86.5047H30.2435ZM37.6435 87.3047C37.6435 88.0047 37.3435 88.7047 36.3435 88.9047L37.8435 90.6047V90.7047H36.7435L35.2435 89.0047H34.3435V90.7047H33.4435V85.6047H35.8435C36.9435 85.6047 37.6435 86.4047 37.6435 87.3047ZM34.3435 88.1047H35.7435C36.3435 88.1047 36.6435 87.7047 36.6435 87.3047C36.6435 86.9047 36.3435 86.5047 35.7435 86.5047H34.3435V88.1047ZM27.4435 73.8047V67.7047H30.7435V73.6047C30.7435 75.3047 31.1435 77.1047 33.8435 77.1047C36.6435 77.1047 37.7435 75.9047 37.7435 73.6047V67.7047H38.8435V73.7047C38.8435 75.6047 37.8435 78.0047 33.7435 78.0047C29.7435 78.0047 27.4435 76.6047 27.4435 73.8047ZM43.4435 85.6047L45.6435 90.7047H44.6435L44.2435 89.7047H41.6435L41.2435 90.7047H40.2435L42.4435 85.6047H43.4435ZM43.9435 88.8047L43.0435 86.6047L42.0435 88.8047H43.9435ZM51.9435 88.8047V85.6047H52.8435V90.7047H52.2435L49.6435 87.3047V90.7047H48.7435V85.6047H49.5435L51.9435 88.8047ZM53.4435 72.5047V77.4047C53.4435 77.4047 52.1435 78.1047 48.7435 78.1047C45.3435 78.1047 41.5435 76.8047 41.5435 72.8047C41.5435 68.9047 45.9435 67.5047 48.7435 67.5047C51.3435 67.5047 52.3435 68.1047 52.3435 68.1047L51.8435 68.9047C51.8435 68.9047 50.5435 68.4047 48.8435 68.4047C47.1435 68.4047 44.8435 69.5047 44.8435 72.9047C44.8435 75.9047 47.0435 77.1047 49.0435 77.1047C50.7435 77.1047 51.6435 76.7047 51.6435 76.7047V72.5047H53.4435ZM58.7435 85.5047C59.4435 85.5047 60.0435 85.8047 60.5435 86.3047L59.9435 86.9047C59.6435 86.6047 59.1435 86.4047 58.7435 86.4047C57.5435 86.4047 57.0435 87.3047 57.0435 88.2047C57.0435 89.0047 57.5435 89.9047 58.7435 89.9047C59.1435 89.9047 59.6435 89.7047 60.0435 89.4047L60.6435 90.1047C60.1435 90.6047 59.4435 90.9047 58.7435 90.9047C56.8435 90.9047 56.1435 89.6047 56.0435 88.3047C56.0435 86.9047 56.9435 85.5047 58.7435 85.5047ZM66.4435 76.7047V77.8047H56.6435V67.7047H66.4435V68.8047H59.9435V72.0047H64.1435V73.1047H59.9435V76.8047H66.4435V76.7047ZM67.3435 86.5047H64.5435V87.7047H67.2435V88.6047H64.5435V89.7047H67.3435V90.6047H63.6435V85.5047H67.3435V86.5047ZM75.1435 67.5047C79.3435 67.5047 81.4435 70.0047 81.4435 72.6047C81.4435 75.7047 79.1435 78.1047 75.1435 78.1047C71.4435 78.1047 68.4435 76.2047 68.4435 72.8047C68.3435 69.1047 71.5435 67.5047 75.1435 67.5047ZM75.5435 77.1047C77.8435 77.1047 79.6435 75.1047 79.6435 72.6047C79.6435 70.3047 77.9435 68.4047 75.7435 68.4047C73.0435 68.4047 71.9435 70.2047 71.9435 72.8047C71.8435 75.3047 73.2435 77.1047 75.5435 77.1047ZM93.4435 68.8047H89.9435V77.8047H86.7435V68.8047H83.2435V67.7047H93.5435L93.4435 68.8047Z" fill="#595959"/>
</g>
<defs>
<clipPath id="clip0_409_392">
<rect width="93" height="90" fill="white" transform="translate(0.543457 0.804688)"/>
</clipPath>
</defs>
</svg>
