<svg width="65" height="65" viewBox="0 0 65 65" fill="none" xmlns="http://www.w3.org/2000/svg">
<g id="WMF-Logo 1">
<g id="Ebene 1">
<g id="Group">
<path id="Vector" d="M8.51392 3.74902H18.4979L27.5859 20.133L35.3939 8.22902L42.8179 20.133L52.6739 3.74902H57.4099L40.7699 32.805L32.7059 20.133L24.8979 32.933" stroke="#595959"/>
<path id="Vector_2" fill-rule="evenodd" clip-rule="evenodd" d="M24.8979 32.933L32.7059 20.133L40.7699 32.805L57.4099 3.74902H52.6739L42.8179 20.133L35.3939 8.22902L27.5859 20.133L18.4979 3.74902H8.51392L24.8979 32.933Z" stroke="#595959"/>
<path id="Vector_3" fill-rule="evenodd" clip-rule="evenodd" d="M8.51392 3.74902H18.4979L27.5859 20.133L35.3939 8.22902L42.8179 20.133L52.6739 3.74902H57.4099L40.7699 32.805L32.7059 20.133L24.8979 32.933L8.51392 3.74902Z" stroke="#595959"/>
<path id="Vector_4" fill-rule="evenodd" clip-rule="evenodd" d="M8.51392 3.74902H18.4979L27.5859 20.133L35.3939 8.22902L42.8179 20.133L52.6739 3.74902H57.4099L40.7699 32.805L32.7059 20.133L24.8979 32.933L8.51392 3.74902Z" fill="#595959" stroke="#595959"/>
<path id="Vector_5" fill-rule="evenodd" clip-rule="evenodd" d="M38.7219 61.8608H29.5059V39.9728L22.3379 53.0288L15.2979 39.9728V61.8608H10.3059V28.7088H18.4979L24.8979 39.9728L32.7059 27.3008L38.7219 36.9008V61.8608Z" fill="#595959" stroke="#595959"/>
<path id="Vector_6" fill-rule="evenodd" clip-rule="evenodd" d="M42.0498 36.901L46.9138 28.709H51.0098H56.6418V37.669H51.0098V42.661H56.1298V47.141H51.0098V61.861H42.0498V36.901Z" fill="#595959" stroke="#595959"/>
</g>
</g>
</g>
</svg>
