<svg width="182" height="44" viewBox="0 0 182 44" fill="none" xmlns="http://www.w3.org/2000/svg">
<path fill-rule="evenodd" clip-rule="evenodd" d="M0.5 0H44.7456V44H0.5V0ZM36.503 35.7516C28.8825 35.7516 21.9878 32.71 17.0111 27.761C15.9743 30.2097 15.4041 32.9162 15.4041 35.7516H8.84627C8.84627 30.7252 10.1941 26.034 12.5528 22.0129C10.1941 17.966 8.84627 13.2748 8.84627 8.27417H15.4041C15.4041 11.0838 15.9743 13.7903 17.0111 16.239C21.9878 11.3158 28.8825 8.24839 36.503 8.24839V14.7698C30.671 14.7698 25.4092 17.1154 21.599 20.9045C21.2361 21.2654 20.8991 21.6262 20.5621 22.0129C20.8991 22.3738 21.2361 22.7346 21.599 23.0955C25.4092 26.8846 30.671 29.2302 36.503 29.2302V35.7516Z" fill="#D2AF6E"/>
<path d="M139.095 13.7904C139.535 13.9966 139.95 14.2286 140.339 14.4864C140.546 14.6152 140.728 14.7699 140.909 14.9246V13.378H145.445V30.6996H140.909V29.1788C140.728 29.3077 140.546 29.4623 140.339 29.5912C139.95 29.849 139.535 30.081 139.095 30.2872C138.576 30.5192 138.006 30.6996 137.41 30.8027C136.84 30.9316 136.218 30.9831 135.57 30.9831C134.973 30.9831 134.377 30.9316 133.833 30.8285C133.263 30.7254 132.718 30.5707 132.226 30.3645C131.707 30.1325 131.215 29.8748 130.748 29.5654C130.308 29.2304 129.867 28.8695 129.478 28.4571C129.064 28.0189 128.727 27.5807 128.416 27.0909C128.105 26.627 127.845 26.1114 127.638 25.5701C127.457 25.0288 127.301 24.4618 127.197 23.8947C127.094 23.3018 127.042 22.6832 127.042 22.0388C127.042 21.3944 127.094 20.7758 127.197 20.2087C127.301 19.6158 127.457 19.0487 127.638 18.5074C127.845 17.9661 128.105 17.4506 128.416 16.9867C128.727 16.4969 129.064 16.0587 129.478 15.6205C129.867 15.2081 130.308 14.8472 130.748 14.5379C131.215 14.2028 131.707 13.9451 132.2 13.7388C132.718 13.5069 133.263 13.3522 133.833 13.2491C134.377 13.146 134.973 13.0944 135.57 13.0944C136.218 13.0944 136.84 13.146 137.41 13.2749C138.006 13.378 138.576 13.5584 139.095 13.7904ZM178.752 7.78454C179.504 7.78454 180.204 8.09386 180.696 8.58361C181.189 9.07335 181.5 9.76931 181.5 10.5168C181.5 11.2643 181.189 11.9603 180.696 12.45C180.204 12.9398 179.504 13.2491 178.752 13.2491C178.001 13.2491 177.301 12.9398 176.808 12.45C176.316 11.9603 176.005 11.2643 176.005 10.5168C176.005 9.76931 176.316 9.07335 176.808 8.58361C177.301 8.09386 178.001 7.78454 178.752 7.78454ZM180.437 8.84137C179.997 8.40317 179.4 8.14541 178.752 8.14541C178.104 8.14541 177.508 8.40317 177.068 8.84137C176.653 9.27956 176.368 9.87242 176.368 10.5168C176.368 11.1612 176.653 11.7541 177.068 12.1923C177.508 12.6047 178.104 12.8882 178.752 12.8882C179.4 12.8882 179.997 12.6047 180.437 12.1923C180.878 11.7541 181.137 11.1612 181.137 10.5168C181.137 9.87242 180.878 9.27956 180.437 8.84137ZM179.297 11.8314L178.675 10.8004H178.26V11.8314H177.742V9.20224H178.934C179.245 9.20224 179.478 9.25379 179.634 9.40845C179.789 9.5631 179.867 9.76931 179.867 10.0013C179.867 10.2075 179.815 10.3622 179.711 10.5168C179.582 10.6457 179.426 10.723 179.219 10.7746L179.893 11.8314H179.297ZM178.26 10.4395H178.882C179.193 10.4395 179.323 10.3106 179.323 10.0271C179.323 9.92397 179.297 9.82087 179.219 9.74354C179.141 9.66621 179.038 9.64043 178.882 9.64043H178.26V10.4395ZM134.455 26.5754C134.714 26.6785 135.025 26.7558 135.31 26.8332C135.621 26.8847 135.932 26.9105 136.269 26.9105C136.606 26.9105 136.943 26.8847 137.254 26.8332C137.565 26.7558 137.851 26.6785 138.11 26.5754C138.395 26.4465 138.654 26.3176 138.913 26.1372C139.147 25.9826 139.38 25.7763 139.613 25.5444C139.82 25.3124 140.002 25.0804 140.183 24.8226C140.339 24.5649 140.468 24.3071 140.572 24.0236C140.676 23.7142 140.754 23.4307 140.831 23.0956C140.883 22.7605 140.909 22.3997 140.909 22.0388C140.909 21.6779 140.883 21.3428 140.831 21.0077C140.754 20.6984 140.676 20.3891 140.572 20.0798C140.468 19.7963 140.339 19.5127 140.183 19.255C140.002 18.9972 139.82 18.7652 139.613 18.5332C139.38 18.3012 139.147 18.1208 138.913 17.9404C138.654 17.7599 138.395 17.6311 138.136 17.5022C137.851 17.3991 137.565 17.3217 137.254 17.2702C136.943 17.1929 136.606 17.1671 136.269 17.1671C135.932 17.1671 135.621 17.1929 135.31 17.2702C135.025 17.3217 134.714 17.3991 134.455 17.528C134.17 17.6311 133.937 17.7599 133.677 17.9404C133.444 18.1208 133.211 18.3012 133.003 18.5332C132.77 18.7652 132.589 18.9972 132.433 19.255C132.252 19.5127 132.122 19.7963 132.019 20.0798C131.889 20.3633 131.811 20.6727 131.759 21.0077C131.707 21.3428 131.682 21.6779 131.682 22.0388C131.682 22.3997 131.707 22.7605 131.759 23.0956C131.811 23.4049 131.889 23.7142 132.019 24.0236C132.122 24.3071 132.252 24.5649 132.407 24.8226C132.589 25.0804 132.77 25.3124 133.003 25.5444C133.211 25.7763 133.444 25.9826 133.677 26.1372C133.937 26.3176 134.196 26.4465 134.455 26.5754ZM149.022 13.378H152.962V15.5432C153.066 15.4143 153.169 15.2854 153.299 15.1823C153.636 14.7699 154.025 14.4348 154.465 14.1513C155.036 13.7646 155.658 13.4553 156.332 13.2491C157.005 13.0687 157.731 12.9656 158.483 12.9656H159.079V17.4248H158.483C157.602 17.4248 156.824 17.5537 156.15 17.7599C155.45 17.9661 154.88 18.3012 154.388 18.7137C153.947 19.1003 153.584 19.5901 153.325 20.1829C153.092 20.75 152.962 21.3944 152.962 22.1419V30.6996H148.426V13.378H149.022ZM176.86 18.5074C177.068 19.0487 177.249 19.6158 177.353 20.2087C177.456 20.7758 177.508 21.3944 177.534 22.0388V22.0646C177.534 22.1677 177.534 22.245 177.508 22.3739C177.508 22.4512 177.508 22.5543 177.508 22.6574C177.482 22.7605 177.482 22.8379 177.456 22.941C177.456 23.0183 177.431 23.1214 177.405 23.1987L177.327 23.6627H171.028H169.084H163.667C163.797 24.0751 163.952 24.436 164.134 24.7711C164.419 25.2093 164.756 25.6217 165.144 25.9568C165.559 26.3176 166.052 26.6012 166.596 26.7816C167.114 26.962 167.71 27.0652 168.333 27.0652C168.825 27.0652 169.318 26.9878 169.758 26.8589C170.225 26.7043 170.665 26.4981 171.054 26.2403C171.313 26.0599 171.521 25.8794 171.728 25.6732H176.808C176.731 25.8537 176.653 26.0341 176.549 26.2145C176.42 26.4981 176.238 26.7816 176.057 27.0394C175.772 27.4518 175.461 27.8127 175.124 28.1478C174.787 28.5086 174.398 28.8437 173.983 29.1273C173.568 29.4366 173.154 29.7201 172.687 29.9521C172.246 30.1841 171.78 30.3645 171.313 30.5192C170.847 30.6738 170.354 30.8027 169.836 30.88C169.343 30.9574 168.825 30.9831 168.281 30.9831C166.959 30.9831 165.741 30.7769 164.652 30.3645C164.082 30.1583 163.563 29.9005 163.071 29.5654C162.578 29.2561 162.112 28.8953 161.671 28.4571C161.23 28.0446 160.868 27.6065 160.531 27.1167C160.194 26.627 159.909 26.1114 159.701 25.5959C159.468 25.0546 159.312 24.4875 159.183 23.8947C159.079 23.3018 159.027 22.6832 159.027 22.0388C159.027 21.3944 159.079 20.7758 159.183 20.1829C159.312 19.5901 159.468 19.023 159.701 18.5074C159.909 17.9661 160.194 17.4506 160.531 16.9609C160.868 16.4969 161.23 16.0329 161.671 15.6205C162.112 15.1823 162.578 14.8215 163.071 14.5121C163.563 14.2028 164.082 13.9193 164.652 13.7131C165.196 13.5069 165.792 13.3522 166.389 13.2491C166.985 13.146 167.633 13.0944 168.281 13.0944C168.955 13.0944 169.577 13.146 170.199 13.2491C170.795 13.3522 171.391 13.5069 171.935 13.7131C172.506 13.9193 173.024 14.2028 173.517 14.5121C174.009 14.8215 174.476 15.2081 174.916 15.6205C175.331 16.0329 175.72 16.4969 176.057 16.9609C176.368 17.4506 176.653 17.9661 176.86 18.5074ZM114.885 13.842C115.378 13.5842 115.87 13.4038 116.441 13.2749C116.985 13.146 117.555 13.0944 118.177 13.0944C118.696 13.0944 119.162 13.1202 119.629 13.1975C120.095 13.2749 120.536 13.4038 120.951 13.5842C121.365 13.7388 121.78 13.9451 122.143 14.2028C122.532 14.4348 122.895 14.7183 123.206 15.0534C123.543 15.3885 123.854 15.7494 124.087 16.136C124.346 16.5227 124.554 16.9351 124.709 17.3733C124.89 17.7857 124.994 18.2497 125.072 18.7137C125.176 19.1776 125.202 19.6932 125.202 20.2087V30.6996H120.64V20.6727C120.64 20.0798 120.536 19.5643 120.38 19.1261C120.225 18.6621 119.992 18.2755 119.681 17.9404C119.395 17.6311 119.033 17.3733 118.592 17.1929C118.177 17.0382 117.711 16.9351 117.192 16.9351C116.648 16.9351 116.155 17.0382 115.741 17.1929C115.3 17.3733 114.911 17.6053 114.626 17.9404C114.315 18.2497 114.056 18.6621 113.9 19.1003C113.745 19.5643 113.641 20.0798 113.641 20.6727V30.6996H109.105V13.378H113.641V14.7441C113.745 14.6668 113.823 14.5895 113.9 14.5121C114.211 14.2544 114.548 14.0224 114.885 13.842ZM105.58 30.6996H101.614V13.378H106.15V30.6996H105.58ZM98.0373 30.6996H94.0974V6.90815H98.6334V30.6996H98.0373ZM172.506 19.1519C172.376 18.9456 172.221 18.7394 172.039 18.5332C171.858 18.3528 171.65 18.1724 171.443 17.9919C171.21 17.8373 170.976 17.6826 170.743 17.5537C170.51 17.4506 170.251 17.3475 170.017 17.2444C169.758 17.1671 169.473 17.1155 169.188 17.064C168.929 17.0382 168.618 17.0124 168.333 17.0124C168.022 17.0124 167.736 17.0382 167.451 17.064C167.192 17.1155 166.933 17.1671 166.674 17.2444C166.414 17.3475 166.181 17.4506 165.948 17.5537C165.715 17.6826 165.507 17.8373 165.3 17.9919C165.067 18.1724 164.885 18.3528 164.704 18.5332C164.522 18.7394 164.367 18.9456 164.237 19.1519C164.108 19.3323 164.004 19.5385 163.926 19.7189L163.848 19.9251H172.92L172.817 19.7189C172.739 19.5385 172.635 19.3323 172.506 19.1519ZM85.4919 30.2356C85.0254 30.4934 84.507 30.6738 83.9627 30.8027C83.4183 30.9316 82.8222 30.9831 82.2001 30.9831C81.7076 30.9831 81.2151 30.9574 80.7486 30.88C80.282 30.8027 79.8414 30.6738 79.4266 30.5192C79.0119 30.3387 78.6231 30.1325 78.2343 29.8748C77.8455 29.6428 77.5086 29.3592 77.1716 29.0241C76.8346 28.6891 76.5495 28.3282 76.2903 27.9415C76.0311 27.5549 75.8237 27.1425 75.6682 26.7301C75.5127 26.2919 75.3831 25.8537 75.3053 25.3639C75.2276 24.9 75.1757 24.3844 75.1757 23.8689V13.378H79.7377V23.4307C79.7377 23.9978 79.8414 24.5133 79.9969 24.9515C80.1524 25.4155 80.3857 25.8279 80.6967 26.1372C81.0078 26.4723 81.3706 26.7043 81.7854 26.8847C82.2001 27.0394 82.6667 27.1425 83.1851 27.1425C83.7294 27.1425 84.2219 27.0394 84.6625 26.8847C85.0772 26.7043 85.466 26.4723 85.7771 26.1372C86.0881 25.8279 86.3214 25.4413 86.4769 24.9773C86.6583 24.5133 86.7361 23.9978 86.7361 23.4307V13.378H91.2721V30.6996H86.7361V29.3592C86.6583 29.4366 86.5547 29.4881 86.4769 29.5654C86.1659 29.8232 85.8548 30.0552 85.4919 30.2356ZM62.4749 20.1056L68.6698 13.378H74.1908L66.1037 22.0388L74.1908 30.6996H68.6698L62.4749 23.972V30.6996H57.9907V13.378H62.4749V20.1056ZM103.895 6.65039C105.321 6.65039 106.461 7.78454 106.461 9.20224C106.461 10.5942 105.321 11.7541 103.895 11.7541C102.47 11.7541 101.329 10.5942 101.329 9.20224C101.329 7.78454 102.47 6.65039 103.895 6.65039Z" fill="#55384C"/>
</svg>
